<svg width="14" height="14" viewBox="0 0 14 14" fill="none" xmlns="http://www.w3.org/2000/svg">
<path fill-rule="evenodd" clip-rule="evenodd" d="M4.21737 1.0003C4.07687 1.01573 3.97143 1.13596 3.97449 1.27727V2.07411H2.5257C1.68967 2.07411 1.00021 2.762 1.00021 3.5996V5.20179V5.23588C0.999931 5.24298 0.999931 5.25008 1.00021 5.25718V11.4785C1.00021 12.3161 1.68931 13.0039 2.5257 13.0039H11.4784C12.3147 13.0039 12.9996 12.3161 12.9996 11.4785V5.27422C12.9998 5.26854 12.9998 5.26286 12.9996 5.25718C13.0001 5.24725 13.0001 5.23729 12.9996 5.22736V3.5996C12.9996 2.762 12.3144 2.07411 11.4784 2.07411H9.9827V1.27727C9.98386 1.20347 9.95506 1.13234 9.90286 1.08014C9.85066 1.02795 9.77954 0.999137 9.70573 1.0003C9.6334 1.00142 9.56447 1.03123 9.51413 1.08318C9.46378 1.13512 9.43614 1.20494 9.43727 1.27727V2.07411H4.51991V1.27727C4.52108 1.20347 4.49227 1.13234 4.44007 1.08014C4.38787 1.02795 4.31675 0.999137 4.24294 1.0003C4.23442 0.9999 4.22589 0.9999 4.21737 1.0003ZM2.52565 2.61954H3.97444V3.41638C3.97422 3.51395 4.02615 3.6042 4.11062 3.65305C4.19509 3.7019 4.29921 3.7019 4.38368 3.65305C4.46814 3.6042 4.52008 3.51395 4.51986 3.41638V2.61954H9.43722V3.41638C9.43701 3.51395 9.48894 3.6042 9.57341 3.65305C9.65787 3.7019 9.762 3.7019 9.84647 3.65305C9.93093 3.6042 9.98286 3.51395 9.98265 3.41638V2.61954H11.4783C12.0163 2.61954 12.4541 3.05889 12.4541 3.5996V4.98447H1.54558V3.5996C1.54558 3.05889 1.98763 2.61954 2.52565 2.61954ZM1.54558 5.52991H12.4541V11.4785C12.4541 12.0192 12.016 12.4585 11.4783 12.4585H2.52565C1.98799 12.4585 1.54558 12.0192 1.54558 11.4785V5.52991Z" fill="#0E7EE4"/>
<path d="M3.97449 1.27727H4.22455L4.22443 1.27188L3.97449 1.27727ZM3.97449 2.07411V2.32411H4.22449V2.07411H3.97449ZM1.00021 5.23588L1.25021 5.24565V5.23588H1.00021ZM1.00021 5.25718H1.2504L1.25002 5.24742L1.00021 5.25718ZM12.9996 5.27422L12.7496 5.26641V5.27422H12.9996ZM12.9996 5.25718L12.75 5.24351L12.7494 5.25424L12.7497 5.26499L12.9996 5.25718ZM12.9996 5.22736H12.7492L12.75 5.24103L12.9996 5.22736ZM9.9827 2.07411H9.7327V2.32411H9.9827V2.07411ZM9.9827 1.27727L9.7327 1.27334V1.27727H9.9827ZM9.70573 1.0003L9.7096 1.25027L9.70966 1.25027L9.70573 1.0003ZM9.43727 1.27727H9.68731L9.68724 1.27334L9.43727 1.27727ZM9.43727 2.07411V2.32411H9.68727V2.07411H9.43727ZM4.51991 2.07411H4.26991V2.32411H4.51991V2.07411ZM4.51991 1.27727L4.26991 1.27334V1.27727H4.51991ZM4.24294 1.0003L4.23122 1.25002L4.23904 1.25039L4.24688 1.25027L4.24294 1.0003ZM3.97444 2.61954H4.22444V2.36954H3.97444V2.61954ZM3.97444 3.41638L4.22444 3.41692V3.41638H3.97444ZM4.51986 3.41638H4.26986L4.26986 3.41692L4.51986 3.41638ZM4.51986 2.61954V2.36954H4.26986V2.61954H4.51986ZM9.43722 2.61954H9.68722V2.36954H9.43722V2.61954ZM9.43722 3.41638L9.68722 3.41692V3.41638H9.43722ZM9.98265 3.41638H9.73265L9.73265 3.41692L9.98265 3.41638ZM9.98265 2.61954V2.36954H9.73265V2.61954H9.98265ZM12.4541 4.98447V5.23447H12.7041V4.98447H12.4541ZM1.54558 4.98447H1.29558V5.23447H1.54558V4.98447ZM1.54558 5.52991V5.27991H1.29558V5.52991H1.54558ZM12.4541 5.52991H12.7041V5.27991H12.4541V5.52991ZM4.19009 0.751793C3.92077 0.781364 3.71869 1.01181 3.72455 1.28267L4.22443 1.27188C4.22417 1.2601 4.23296 1.25009 4.24466 1.24881L4.19009 0.751793ZM3.72449 1.27727V2.07411H4.22449V1.27727H3.72449ZM3.97449 1.82411H2.5257V2.32411H3.97449V1.82411ZM2.5257 1.82411C1.55177 1.82411 0.750208 2.62376 0.750208 3.5996H1.25021C1.25021 2.90024 1.82758 2.32411 2.5257 2.32411V1.82411ZM0.750208 3.5996V5.20179H1.25021V3.5996H0.750208ZM0.750208 5.20179V5.23588H1.25021V5.20179H0.750208ZM0.750399 5.22612C0.749867 5.23972 0.749867 5.25334 0.750399 5.26694L1.25002 5.24742C1.24999 5.24682 1.24999 5.24623 1.25002 5.24564L0.750399 5.22612ZM0.750208 5.25718V11.4785H1.25021V5.25718H0.750208ZM0.750208 11.4785C0.750208 12.4543 1.55137 13.2539 2.5257 13.2539V12.7539C1.82725 12.7539 1.25021 12.1779 1.25021 11.4785H0.750208ZM2.5257 13.2539H11.4784V12.7539H2.5257V13.2539ZM11.4784 13.2539C12.4536 13.2539 13.2496 12.4533 13.2496 11.4785H12.7496C12.7496 12.1788 12.1759 12.7539 11.4784 12.7539V13.2539ZM13.2496 11.4785V5.27422H12.7496V11.4785H13.2496ZM13.2495 5.28204C13.2498 5.27115 13.2498 5.26025 13.2495 5.24937L12.7497 5.26499C12.7497 5.26546 12.7497 5.26594 12.7497 5.26641L13.2495 5.28204ZM13.2492 5.27085C13.2503 5.25181 13.2503 5.23273 13.2492 5.21369L12.75 5.24103C12.75 5.24185 12.75 5.24268 12.75 5.24351L13.2492 5.27085ZM13.2496 5.22736V3.5996H12.7496V5.22736H13.2496ZM13.2496 3.5996C13.2496 2.62467 12.4532 1.82411 11.4784 1.82411V2.32411C12.1756 2.32411 12.7496 2.89933 12.7496 3.5996H13.2496ZM11.4784 1.82411H9.9827V2.32411H11.4784V1.82411ZM10.2327 2.07411V1.27727H9.7327V2.07411H10.2327ZM10.2327 1.28121C10.2349 1.13974 10.1797 1.00341 10.0796 0.903365L9.72608 1.25692C9.73043 1.26127 9.73283 1.26719 9.73273 1.27334L10.2327 1.28121ZM10.0796 0.903365C9.97959 0.803319 9.84326 0.748103 9.70179 0.750331L9.70966 1.25027C9.71581 1.25017 9.72174 1.25257 9.72608 1.25692L10.0796 0.903365ZM9.70185 0.75033C9.56321 0.752479 9.43111 0.809623 9.33461 0.909186L9.69364 1.25717C9.69784 1.25285 9.70358 1.25036 9.7096 1.25027L9.70185 0.75033ZM9.33461 0.909186C9.23811 1.00875 9.18512 1.14257 9.18731 1.28121L9.68724 1.27334C9.68715 1.26731 9.68945 1.2615 9.69364 1.25717L9.33461 0.909186ZM9.18727 1.27727V2.07411H9.68727V1.27727H9.18727ZM9.43727 1.82411H4.51991V2.32411H9.43727V1.82411ZM4.76991 2.07411V1.27727H4.26991V2.07411H4.76991ZM4.76988 1.28121C4.77211 1.13974 4.71689 1.00341 4.61685 0.903365L4.26329 1.25692C4.26764 1.26127 4.27004 1.26719 4.26994 1.27334L4.76988 1.28121ZM4.61685 0.903365C4.5168 0.803319 4.38047 0.748103 4.239 0.750331L4.24688 1.25027C4.25302 1.25017 4.25895 1.25257 4.26329 1.25692L4.61685 0.903365ZM4.25466 0.750575C4.23833 0.749808 4.22198 0.749808 4.20565 0.750575L4.22909 1.25002C4.2298 1.24999 4.23051 1.24999 4.23122 1.25002L4.25466 0.750575ZM2.52565 2.86954H3.97444V2.36954H2.52565V2.86954ZM3.72444 2.61954V3.41638H4.22444V2.61954H3.72444ZM3.72444 3.41583C3.72403 3.60285 3.82357 3.77584 3.98546 3.86947L4.23578 3.43664C4.22874 3.43257 4.22442 3.42505 4.22444 3.41692L3.72444 3.41583ZM3.98546 3.86947C4.14736 3.96309 4.34694 3.96309 4.50884 3.86947L4.25852 3.43664C4.25149 3.4407 4.24281 3.4407 4.23578 3.43664L3.98546 3.86947ZM4.50884 3.86947C4.67073 3.77584 4.77027 3.60285 4.76986 3.41583L4.26986 3.41692C4.26988 3.42505 4.26556 3.43257 4.25852 3.43664L4.50884 3.86947ZM4.76986 3.41638V2.61954H4.26986V3.41638H4.76986ZM4.51986 2.86954H9.43722V2.36954H4.51986V2.86954ZM9.18722 2.61954V3.41638H9.68722V2.61954H9.18722ZM9.18722 3.41583C9.18681 3.60285 9.28635 3.77584 9.44825 3.86947L9.69857 3.43664C9.69153 3.43257 9.68721 3.42505 9.68722 3.41692L9.18722 3.41583ZM9.44825 3.86947C9.61015 3.96309 9.80973 3.96309 9.97163 3.86947L9.72131 3.43664C9.71427 3.4407 9.7056 3.4407 9.69857 3.43664L9.44825 3.86947ZM9.97163 3.86947C10.1335 3.77584 10.2331 3.60285 10.2326 3.41583L9.73265 3.41692C9.73267 3.42505 9.72834 3.43257 9.72131 3.43664L9.97163 3.86947ZM10.2326 3.41638V2.61954H9.73265V3.41638H10.2326ZM9.98265 2.86954H11.4783V2.36954H9.98265V2.86954ZM11.4783 2.86954C11.8773 2.86954 12.2041 3.19599 12.2041 3.5996H12.7041C12.7041 2.92178 12.1554 2.36954 11.4783 2.36954V2.86954ZM12.2041 3.5996V4.98447H12.7041V3.5996H12.2041ZM12.4541 4.73447H1.54558V5.23447H12.4541V4.73447ZM1.79558 4.98447V3.5996H1.29558V4.98447H1.79558ZM1.79558 3.5996C1.79558 3.19741 2.12525 2.86954 2.52565 2.86954V2.36954C1.85001 2.36954 1.29558 2.92037 1.29558 3.5996H1.79558ZM1.54558 5.77991H12.4541V5.27991H1.54558V5.77991ZM12.2041 5.52991V11.4785H12.7041V5.52991H12.2041ZM12.2041 11.4785C12.2041 11.882 11.877 12.2085 11.4783 12.2085V12.7085C12.1549 12.7085 12.7041 12.1564 12.7041 11.4785H12.2041ZM11.4783 12.2085H2.52565V12.7085H11.4783V12.2085ZM2.52565 12.2085C2.12555 12.2085 1.79558 11.8806 1.79558 11.4785H1.29558C1.29558 12.1578 1.85043 12.7085 2.52565 12.7085V12.2085ZM1.79558 11.4785V5.52991H1.29558V11.4785H1.79558Z" fill="#0E7EE4"/>
<circle cx="4.70809" cy="8.7535" r="1.01131" fill="#0E7EE4"/>
<circle cx="9.42782" cy="8.7535" r="1.01131" fill="#0E7EE4"/>
</svg>
