<svg width="16" height="13" viewBox="0 0 16 13" fill="none" xmlns="http://www.w3.org/2000/svg">
<path d="M4.95801 9.53711C4.95801 9.94043 5.21777 10.1865 5.62109 10.1865H6.96777C7.37109 10.1865 7.63086 9.94043 7.63086 9.53711V1.62109C7.63086 1.22461 7.37109 0.97168 6.96777 0.97168H5.62109C5.21777 0.97168 4.95801 1.22461 4.95801 1.62109V9.53711ZM8.3623 9.53711C8.3623 9.94043 8.61523 10.1865 9.01855 10.1865H10.3721C10.7754 10.1865 11.0352 9.94043 11.0352 9.53711V3.09766C11.0352 2.70117 10.7754 2.45508 10.3721 2.45508H9.01855C8.61523 2.45508 8.3623 2.70117 8.3623 3.09766V9.53711ZM1.56055 9.53711C1.56055 9.94043 1.81348 10.1865 2.2168 10.1865H3.57031C3.9668 10.1865 4.22656 9.94043 4.22656 9.53711V4.41699C4.22656 4.02051 3.9668 3.76758 3.57031 3.76758H2.2168C1.81348 3.76758 1.56055 4.02051 1.56055 4.41699V9.53711ZM11.7666 9.53711C11.7666 9.94043 12.0195 10.1865 12.4229 10.1865H13.7764C14.1729 10.1865 14.4326 9.94043 14.4326 9.53711V5.69531C14.4326 5.29883 14.1729 5.0459 13.7764 5.0459H12.4229C12.0195 5.0459 11.7666 5.29883 11.7666 5.69531V9.53711ZM0.849609 11.8613C0.849609 12.2578 1.16406 12.5586 1.56055 12.5586H14.4395C14.8291 12.5586 15.1436 12.2578 15.1436 11.8613C15.1436 11.458 14.8291 11.1572 14.4395 11.1572H1.56055C1.16406 11.1572 0.849609 11.458 0.849609 11.8613Z" fill="#044E92"/>
</svg>
