<svg width="372" height="30" viewBox="0 0 372 30" fill="none" xmlns="http://www.w3.org/2000/svg">
<g filter="url(#filter0_i)">
<rect x="286" y="6" width="40" height="16" rx="8" fill="#BABDC6"/>
</g>
<g filter="url(#filter1_d)">
<circle cx="294" cy="14" r="12" fill="white"/>
</g>
<path d="M346.396 9.2C347.189 9.2 347.843 9.35867 348.356 9.676C348.869 9.99333 349.243 10.3993 349.476 10.894C349.709 11.3887 349.826 11.916 349.826 12.476C349.826 13.0267 349.709 13.5447 349.476 14.03C349.243 14.5153 348.869 14.9167 348.356 15.234C347.843 15.542 347.189 15.696 346.396 15.696H344.38V19H342.966V9.2H346.396ZM346.2 14.464C346.825 14.464 347.353 14.3147 347.782 14.016C348.211 13.7173 348.426 13.204 348.426 12.476C348.426 11.748 348.211 11.2393 347.782 10.95C347.353 10.6513 346.825 10.502 346.2 10.502H344.38V14.464H346.2ZM353.829 19.098C353.195 19.098 352.649 18.9347 352.191 18.608C351.734 18.2813 351.384 17.8287 351.141 17.25C350.908 16.6713 350.791 16.0133 350.791 15.276C350.791 14.5293 350.913 13.8667 351.155 13.288C351.398 12.7093 351.748 12.2567 352.205 11.93C352.672 11.594 353.227 11.426 353.871 11.426C354.515 11.426 355.029 11.5753 355.411 11.874C355.794 12.1727 356.083 12.518 356.279 12.91H356.377V11.622H357.833V19H356.377V17.572H356.279C356.074 17.9827 355.775 18.342 355.383 18.65C354.991 18.9487 354.473 19.098 353.829 19.098ZM354.319 17.894C354.982 17.894 355.486 17.642 355.831 17.138C356.186 16.6247 356.363 15.9993 356.363 15.262C356.363 14.5247 356.186 13.904 355.831 13.4C355.486 12.896 354.982 12.644 354.319 12.644C353.647 12.644 353.139 12.896 352.793 13.4C352.448 13.904 352.275 14.52 352.275 15.248C352.275 15.9947 352.443 16.6247 352.779 17.138C353.125 17.642 353.638 17.894 354.319 17.894ZM359.963 11.622H361.405V19H359.963V11.622ZM360.677 10.278C360.425 10.278 360.215 10.194 360.047 10.026C359.879 9.858 359.795 9.648 359.795 9.396C359.795 9.144 359.879 8.934 360.047 8.766C360.215 8.598 360.425 8.514 360.677 8.514C360.929 8.514 361.139 8.60267 361.307 8.78C361.475 8.948 361.559 9.15333 361.559 9.396C361.559 9.63867 361.475 9.84867 361.307 10.026C361.139 10.194 360.929 10.278 360.677 10.278ZM366.19 19.098C365.555 19.098 365.009 18.9347 364.552 18.608C364.094 18.2813 363.744 17.8287 363.502 17.25C363.268 16.6713 363.152 16.0133 363.152 15.276C363.152 14.5293 363.268 13.8667 363.502 13.288C363.744 12.7093 364.094 12.2567 364.552 11.93C365.018 11.594 365.574 11.426 366.218 11.426C366.862 11.426 367.375 11.5753 367.758 11.874C368.14 12.1727 368.43 12.518 368.626 12.91H368.724V8.5H370.194V19H368.724V17.572H368.626C368.42 17.9827 368.122 18.342 367.73 18.65C367.338 18.9487 366.824 19.098 366.19 19.098ZM366.666 17.894C367.328 17.894 367.832 17.642 368.178 17.138C368.532 16.634 368.71 16.0133 368.71 15.276C368.71 14.5387 368.532 13.918 368.178 13.414C367.832 12.91 367.328 12.658 366.666 12.658C365.984 12.658 365.476 12.91 365.14 13.414C364.804 13.9087 364.636 14.5247 364.636 15.262C364.636 16.0087 364.804 16.634 365.14 17.138C365.485 17.642 365.994 17.894 366.666 17.894Z" fill="black"/>
<path d="M207.396 9.2C208.189 9.2 208.843 9.35867 209.356 9.676C209.869 9.99333 210.243 10.3993 210.476 10.894C210.709 11.3887 210.826 11.916 210.826 12.476C210.826 13.0267 210.709 13.5447 210.476 14.03C210.243 14.5153 209.869 14.9167 209.356 15.234C208.843 15.542 208.189 15.696 207.396 15.696H205.38V19H203.966V9.2H207.396ZM207.2 14.464C207.825 14.464 208.353 14.3147 208.782 14.016C209.211 13.7173 209.426 13.204 209.426 12.476C209.426 11.748 209.211 11.2393 208.782 10.95C208.353 10.6513 207.825 10.502 207.2 10.502H205.38V14.464H207.2ZM215.333 19.098C214.568 19.098 213.924 18.916 213.401 18.552C212.879 18.188 212.491 17.7167 212.239 17.138C211.987 16.55 211.861 15.9247 211.861 15.262C211.861 14.5993 211.987 13.9787 212.239 13.4C212.491 12.812 212.879 12.336 213.401 11.972C213.933 11.608 214.582 11.426 215.347 11.426C216.355 11.426 217.158 11.7573 217.755 12.42C218.353 13.0733 218.651 14.0253 218.651 15.276V15.682H213.275V15.78C213.275 16.1533 213.359 16.5033 213.527 16.83C213.695 17.1567 213.933 17.4227 214.241 17.628C214.549 17.824 214.904 17.922 215.305 17.922C215.744 17.922 216.122 17.8147 216.439 17.6C216.757 17.376 216.985 17.0773 217.125 16.704H218.553C218.367 17.3947 217.998 17.9687 217.447 18.426C216.897 18.874 216.192 19.098 215.333 19.098ZM217.237 14.688C217.2 13.932 217.009 13.386 216.663 13.05C216.327 12.7047 215.879 12.532 215.319 12.532C214.722 12.532 214.241 12.728 213.877 13.12C213.523 13.512 213.336 14.0347 213.317 14.688H217.237ZM220.29 11.622H221.746V12.882H221.858C222.036 12.4713 222.325 12.126 222.726 11.846C223.128 11.566 223.622 11.426 224.21 11.426C224.845 11.426 225.368 11.58 225.778 11.888C226.189 12.1867 226.488 12.574 226.674 13.05C226.861 13.5167 226.954 14.016 226.954 14.548V19H225.512V14.758C225.512 14.086 225.34 13.5727 224.994 13.218C224.658 12.8633 224.21 12.686 223.65 12.686C223.062 12.686 222.596 12.8773 222.25 13.26C221.914 13.6427 221.746 14.142 221.746 14.758V19H220.29V11.622ZM231.565 19.098C230.93 19.098 230.384 18.9347 229.927 18.608C229.469 18.2813 229.119 17.8287 228.877 17.25C228.643 16.6713 228.527 16.0133 228.527 15.276C228.527 14.5293 228.643 13.8667 228.877 13.288C229.119 12.7093 229.469 12.2567 229.927 11.93C230.393 11.594 230.949 11.426 231.593 11.426C232.237 11.426 232.75 11.5753 233.133 11.874C233.515 12.1727 233.805 12.518 234.001 12.91H234.099V8.5H235.569V19H234.099V17.572H234.001C233.795 17.9827 233.497 18.342 233.105 18.65C232.713 18.9487 232.199 19.098 231.565 19.098ZM232.041 17.894C232.703 17.894 233.207 17.642 233.553 17.138C233.907 16.634 234.085 16.0133 234.085 15.276C234.085 14.5387 233.907 13.918 233.553 13.414C233.207 12.91 232.703 12.658 232.041 12.658C231.359 12.658 230.851 12.91 230.515 13.414C230.179 13.9087 230.011 14.5247 230.011 15.262C230.011 16.0087 230.179 16.634 230.515 17.138C230.86 17.642 231.369 17.894 232.041 17.894ZM237.629 11.622H239.071V19H237.629V11.622ZM238.343 10.278C238.091 10.278 237.881 10.194 237.713 10.026C237.545 9.858 237.461 9.648 237.461 9.396C237.461 9.144 237.545 8.934 237.713 8.766C237.881 8.598 238.091 8.514 238.343 8.514C238.595 8.514 238.805 8.60267 238.973 8.78C239.141 8.948 239.225 9.15333 239.225 9.396C239.225 9.63867 239.141 9.84867 238.973 10.026C238.805 10.194 238.595 10.278 238.343 10.278ZM241.195 11.622H242.651V12.882H242.763C242.94 12.4713 243.229 12.126 243.631 11.846C244.032 11.566 244.527 11.426 245.115 11.426C245.749 11.426 246.272 11.58 246.683 11.888C247.093 12.1867 247.392 12.574 247.579 13.05C247.765 13.5167 247.859 14.016 247.859 14.548V19H246.417V14.758C246.417 14.086 246.244 13.5727 245.899 13.218C245.563 12.8633 245.115 12.686 244.555 12.686C243.967 12.686 243.5 12.8773 243.155 13.26C242.819 13.6427 242.651 14.142 242.651 14.758V19H241.195V11.622ZM253.127 22.01C252.828 22.01 252.6 21.9913 252.441 21.954C252.282 21.9167 252.1 21.8607 251.895 21.786V20.596C252.016 20.6333 252.175 20.666 252.371 20.694C252.576 20.7313 252.777 20.75 252.973 20.75C253.682 20.75 254.2 20.5493 254.527 20.148C254.863 19.756 255.031 19.2427 255.031 18.608V17.39H254.919C254.742 17.7913 254.443 18.1413 254.023 18.44C253.612 18.7387 253.099 18.888 252.483 18.888C251.876 18.888 251.344 18.734 250.887 18.426C250.43 18.1087 250.075 17.67 249.823 17.11C249.58 16.5407 249.459 15.8873 249.459 15.15C249.459 14.4127 249.58 13.764 249.823 13.204C250.075 12.6347 250.43 12.196 250.887 11.888C251.344 11.5707 251.881 11.412 252.497 11.412C253.132 11.412 253.654 11.5753 254.065 11.902C254.476 12.2193 254.765 12.5787 254.933 12.98H255.031V11.622H256.501V18.608C256.501 19.112 256.398 19.6207 256.193 20.134C255.997 20.6473 255.647 21.086 255.143 21.45C254.639 21.8233 253.967 22.01 253.127 22.01ZM252.987 17.684C253.64 17.684 254.14 17.432 254.485 16.928C254.84 16.424 255.017 15.822 255.017 15.122C255.017 14.45 254.844 13.8667 254.499 13.372C254.154 12.8773 253.65 12.63 252.987 12.63C252.324 12.63 251.82 12.8773 251.475 13.372C251.13 13.8573 250.957 14.4407 250.957 15.122C250.957 15.822 251.13 16.424 251.475 16.928C251.83 17.432 252.334 17.684 252.987 17.684Z" fill="black"/>
<g filter="url(#filter2_i)">
<rect x="147" y="6" width="40" height="16" rx="8" fill="#BABDC6"/>
</g>
<g filter="url(#filter3_d)">
<circle cx="155" cy="14" r="12" fill="white"/>
</g>
<path d="M67.124 19.098C66.1813 19.098 65.374 18.8833 64.702 18.454C64.0393 18.0153 63.5353 17.418 63.19 16.662C62.8447 15.8967 62.672 15.0333 62.672 14.072C62.672 13.1107 62.8447 12.2473 63.19 11.482C63.5353 10.7073 64.044 10.1007 64.716 9.662C65.388 9.214 66.1907 8.99 67.124 8.99C68.048 8.99 68.8413 9.20933 69.504 9.648C70.176 10.0867 70.6847 10.6933 71.03 11.468C71.3753 12.2333 71.548 13.106 71.548 14.086C71.548 15.0567 71.3753 15.92 71.03 16.676C70.6847 17.432 70.176 18.0247 69.504 18.454C68.8413 18.8833 68.048 19.098 67.124 19.098ZM67.11 17.782C67.7073 17.782 68.2253 17.6233 68.664 17.306C69.1027 16.9887 69.4387 16.55 69.672 15.99C69.9053 15.4207 70.022 14.7767 70.022 14.058C70.022 13.3393 69.9053 12.7 69.672 12.14C69.4387 11.5707 69.1027 11.1227 68.664 10.796C68.2253 10.4693 67.7073 10.306 67.11 10.306C66.5127 10.306 65.9947 10.4693 65.556 10.796C65.1173 11.1227 64.7813 11.5707 64.548 12.14C64.3147 12.7093 64.198 13.3487 64.198 14.058C64.198 14.7673 64.3147 15.4067 64.548 15.976C64.7813 16.536 65.1173 16.9793 65.556 17.306C65.9947 17.6233 66.5127 17.782 67.11 17.782ZM72.6459 11.622H74.0319L76.1039 17.502H76.1739L78.2319 11.622H79.6179L77.0139 19H75.2359L72.6459 11.622ZM83.9311 19.098C83.1658 19.098 82.5218 18.916 81.9991 18.552C81.4764 18.188 81.0891 17.7167 80.8371 17.138C80.5851 16.55 80.4591 15.9247 80.4591 15.262C80.4591 14.5993 80.5851 13.9787 80.8371 13.4C81.0891 12.812 81.4764 12.336 81.9991 11.972C82.5311 11.608 83.1798 11.426 83.9451 11.426C84.9531 11.426 85.7558 11.7573 86.3531 12.42C86.9504 13.0733 87.2491 14.0253 87.2491 15.276V15.682H81.8731V15.78C81.8731 16.1533 81.9571 16.5033 82.1251 16.83C82.2931 17.1567 82.5311 17.4227 82.8391 17.628C83.1471 17.824 83.5018 17.922 83.9031 17.922C84.3418 17.922 84.7198 17.8147 85.0371 17.6C85.3544 17.376 85.5831 17.0773 85.7231 16.704H87.1511C86.9644 17.3947 86.5958 17.9687 86.0451 18.426C85.4944 18.874 84.7898 19.098 83.9311 19.098ZM85.8351 14.688C85.7978 13.932 85.6064 13.386 85.2611 13.05C84.9251 12.7047 84.4771 12.532 83.9171 12.532C83.3198 12.532 82.8391 12.728 82.4751 13.12C82.1204 13.512 81.9338 14.0347 81.9151 14.688H85.8351ZM88.8739 11.622H90.3159V12.798H90.3999C90.5212 12.4713 90.7359 12.196 91.0439 11.972C91.3612 11.7387 91.7672 11.622 92.2619 11.622C92.3925 11.622 92.5045 11.6267 92.5979 11.636C92.6912 11.6453 92.7845 11.6687 92.8779 11.706L92.8219 13.078C92.5699 13.0033 92.3085 12.966 92.0379 12.966C91.4872 12.966 91.0625 13.1247 90.7639 13.442C90.4652 13.75 90.3159 14.2633 90.3159 14.982V19H88.8739V11.622ZM96.6215 19.098C95.9868 19.098 95.4408 18.9347 94.9835 18.608C94.5261 18.2813 94.1761 17.8287 93.9335 17.25C93.7001 16.6713 93.5835 16.0133 93.5835 15.276C93.5835 14.5293 93.7001 13.8667 93.9335 13.288C94.1761 12.7093 94.5261 12.2567 94.9835 11.93C95.4501 11.594 96.0055 11.426 96.6495 11.426C97.2935 11.426 97.8068 11.5753 98.1895 11.874C98.5721 12.1727 98.8615 12.518 99.0575 12.91H99.1555V8.5H100.625V19H99.1555V17.572H99.0575C98.8521 17.9827 98.5535 18.342 98.1615 18.65C97.7695 18.9487 97.2561 19.098 96.6215 19.098ZM97.0975 17.894C97.7601 17.894 98.2641 17.642 98.6095 17.138C98.9641 16.634 99.1415 16.0133 99.1415 15.276C99.1415 14.5387 98.9641 13.918 98.6095 13.414C98.2641 12.91 97.7601 12.658 97.0975 12.658C96.4161 12.658 95.9075 12.91 95.5715 13.414C95.2355 13.9087 95.0675 14.5247 95.0675 15.262C95.0675 16.0087 95.2355 16.634 95.5715 17.138C95.9168 17.642 96.4255 17.894 97.0975 17.894ZM109.07 19H107.614V17.67H107.516C107.329 18.0807 107.04 18.426 106.648 18.706C106.256 18.986 105.78 19.126 105.22 19.126C104.585 19.126 104.067 18.9767 103.666 18.678C103.274 18.37 102.989 17.9827 102.812 17.516C102.635 17.04 102.546 16.5407 102.546 16.018V11.622H103.988V15.808C103.988 16.4613 104.151 16.97 104.478 17.334C104.805 17.698 105.239 17.88 105.78 17.88C106.349 17.88 106.797 17.6887 107.124 17.306C107.451 16.914 107.614 16.4147 107.614 15.808V11.622H109.07V19ZM114.091 19.098C113.326 19.098 112.682 18.916 112.159 18.552C111.637 18.188 111.249 17.7167 110.997 17.138C110.745 16.55 110.619 15.9247 110.619 15.262C110.619 14.5993 110.745 13.9787 110.997 13.4C111.249 12.812 111.637 12.336 112.159 11.972C112.691 11.608 113.34 11.426 114.105 11.426C115.113 11.426 115.916 11.7573 116.513 12.42C117.111 13.0733 117.409 14.0253 117.409 15.276V15.682H112.033V15.78C112.033 16.1533 112.117 16.5033 112.285 16.83C112.453 17.1567 112.691 17.4227 112.999 17.628C113.307 17.824 113.662 17.922 114.063 17.922C114.502 17.922 114.88 17.8147 115.197 17.6C115.515 17.376 115.743 17.0773 115.883 16.704H117.311C117.125 17.3947 116.756 17.9687 116.205 18.426C115.655 18.874 114.95 19.098 114.091 19.098ZM115.995 14.688C115.958 13.932 115.767 13.386 115.421 13.05C115.085 12.7047 114.637 12.532 114.077 12.532C113.48 12.532 112.999 12.728 112.635 13.12C112.281 13.512 112.094 14.0347 112.075 14.688H115.995Z" fill="black"/>
<g filter="url(#filter4_i)">
<rect x="6" y="6" width="40" height="16" rx="8" fill="#BABDC6"/>
</g>
<g filter="url(#filter5_d)">
<circle cx="14" cy="14" r="12" fill="white"/>
</g>
<defs>
<filter id="filter0_i" x="286" y="6" width="40" height="20" filterUnits="userSpaceOnUse" color-interpolation-filters="sRGB">
<feFlood flood-opacity="0" result="BackgroundImageFix"/>
<feBlend mode="normal" in="SourceGraphic" in2="BackgroundImageFix" result="shape"/>
<feColorMatrix in="SourceAlpha" type="matrix" values="0 0 0 0 0 0 0 0 0 0 0 0 0 0 0 0 0 0 127 0" result="hardAlpha"/>
<feOffset dy="4"/>
<feGaussianBlur stdDeviation="4.5"/>
<feComposite in2="hardAlpha" operator="arithmetic" k2="-1" k3="1"/>
<feColorMatrix type="matrix" values="0 0 0 0 0 0 0 0 0 0 0 0 0 0 0 0 0 0 0.25 0"/>
<feBlend mode="normal" in2="shape" result="effect1_innerShadow"/>
</filter>
<filter id="filter1_d" x="280" y="0" width="30" height="30" filterUnits="userSpaceOnUse" color-interpolation-filters="sRGB">
<feFlood flood-opacity="0" result="BackgroundImageFix"/>
<feColorMatrix in="SourceAlpha" type="matrix" values="0 0 0 0 0 0 0 0 0 0 0 0 0 0 0 0 0 0 127 0"/>
<feOffset dx="1" dy="1"/>
<feGaussianBlur stdDeviation="1.5"/>
<feColorMatrix type="matrix" values="0 0 0 0 0 0 0 0 0 0 0 0 0 0 0 0 0 0 0.2 0"/>
<feBlend mode="normal" in2="BackgroundImageFix" result="effect1_dropShadow"/>
<feBlend mode="normal" in="SourceGraphic" in2="effect1_dropShadow" result="shape"/>
</filter>
<filter id="filter2_i" x="147" y="6" width="40" height="20" filterUnits="userSpaceOnUse" color-interpolation-filters="sRGB">
<feFlood flood-opacity="0" result="BackgroundImageFix"/>
<feBlend mode="normal" in="SourceGraphic" in2="BackgroundImageFix" result="shape"/>
<feColorMatrix in="SourceAlpha" type="matrix" values="0 0 0 0 0 0 0 0 0 0 0 0 0 0 0 0 0 0 127 0" result="hardAlpha"/>
<feOffset dy="4"/>
<feGaussianBlur stdDeviation="4.5"/>
<feComposite in2="hardAlpha" operator="arithmetic" k2="-1" k3="1"/>
<feColorMatrix type="matrix" values="0 0 0 0 0 0 0 0 0 0 0 0 0 0 0 0 0 0 0.25 0"/>
<feBlend mode="normal" in2="shape" result="effect1_innerShadow"/>
</filter>
<filter id="filter3_d" x="141" y="0" width="30" height="30" filterUnits="userSpaceOnUse" color-interpolation-filters="sRGB">
<feFlood flood-opacity="0" result="BackgroundImageFix"/>
<feColorMatrix in="SourceAlpha" type="matrix" values="0 0 0 0 0 0 0 0 0 0 0 0 0 0 0 0 0 0 127 0"/>
<feOffset dx="1" dy="1"/>
<feGaussianBlur stdDeviation="1.5"/>
<feColorMatrix type="matrix" values="0 0 0 0 0 0 0 0 0 0 0 0 0 0 0 0 0 0 0.2 0"/>
<feBlend mode="normal" in2="BackgroundImageFix" result="effect1_dropShadow"/>
<feBlend mode="normal" in="SourceGraphic" in2="effect1_dropShadow" result="shape"/>
</filter>
<filter id="filter4_i" x="6" y="6" width="40" height="20" filterUnits="userSpaceOnUse" color-interpolation-filters="sRGB">
<feFlood flood-opacity="0" result="BackgroundImageFix"/>
<feBlend mode="normal" in="SourceGraphic" in2="BackgroundImageFix" result="shape"/>
<feColorMatrix in="SourceAlpha" type="matrix" values="0 0 0 0 0 0 0 0 0 0 0 0 0 0 0 0 0 0 127 0" result="hardAlpha"/>
<feOffset dy="4"/>
<feGaussianBlur stdDeviation="4.5"/>
<feComposite in2="hardAlpha" operator="arithmetic" k2="-1" k3="1"/>
<feColorMatrix type="matrix" values="0 0 0 0 0 0 0 0 0 0 0 0 0 0 0 0 0 0 0.25 0"/>
<feBlend mode="normal" in2="shape" result="effect1_innerShadow"/>
</filter>
<filter id="filter5_d" x="0" y="0" width="30" height="30" filterUnits="userSpaceOnUse" color-interpolation-filters="sRGB">
<feFlood flood-opacity="0" result="BackgroundImageFix"/>
<feColorMatrix in="SourceAlpha" type="matrix" values="0 0 0 0 0 0 0 0 0 0 0 0 0 0 0 0 0 0 127 0"/>
<feOffset dx="1" dy="1"/>
<feGaussianBlur stdDeviation="1.5"/>
<feColorMatrix type="matrix" values="0 0 0 0 0 0 0 0 0 0 0 0 0 0 0 0 0 0 0.2 0"/>
<feBlend mode="normal" in2="BackgroundImageFix" result="effect1_dropShadow"/>
<feBlend mode="normal" in="SourceGraphic" in2="effect1_dropShadow" result="shape"/>
</filter>
</defs>
</svg>
