<svg width="311" height="713" viewBox="0 0 311 713" fill="none" xmlns="http://www.w3.org/2000/svg">
    <g opacity="0.5">
        <path opacity="0.2" d="M157.253 567.524L310.747 640.517L157.253 713L0 640.517L157.253 567.524Z" fill="#044E92" />
        <path opacity="0.2" d="M157.253 565.482L310.747 638.475L157.253 710.958L0 638.475L157.253 565.482Z" fill="#044E92" />
    </g>
    <g opacity="0.5">
        <path opacity="0.2" d="M157.253 542.938L310.747 615.931L157.253 688.414L0 615.931L157.253 542.938Z" fill="#044E92" />
        <path opacity="0.2" d="M157.253 540.896L310.747 613.889L157.253 686.372L0 613.889L157.253 540.896Z" fill="#044E92" />
    </g>
    <g opacity="0.5">
        <path opacity="0.2" d="M157.253 518.352L310.747 591.345L157.253 663.828L0 591.345L157.253 518.352Z" fill="#044E92" />
        <path opacity="0.2" d="M157.253 516.31L310.747 589.303L157.253 661.786L0 589.303L157.253 516.31Z" fill="#044E92" />
    </g>
    <g opacity="0.5">
        <path opacity="0.2" d="M157.253 493.766L310.747 566.759L157.253 639.241L0 566.759L157.253 493.766Z" fill="#044E92" />
        <path opacity="0.2" d="M157.253 491.724L310.747 564.717L157.253 637.2L0 564.717L157.253 491.724Z" fill="#044E92" />
    </g>
    <g opacity="0.5">
        <path opacity="0.2" d="M157.253 469.179L310.747 542.172L157.253 614.655L0 542.172L157.253 469.179Z" fill="#044E92" />
        <path opacity="0.2" d="M157.253 467.138L310.747 540.131L157.253 612.613L0 540.131L157.253 467.138Z" fill="#044E92" />
    </g>
    <g opacity="0.5">
        <path opacity="0.2" d="M157.253 444.594L310.747 517.587L157.253 590.069L0 517.587L157.253 444.594Z" fill="#044E92" />
        <path opacity="0.2" d="M157.253 442.552L310.747 515.545L157.253 588.027L0 515.545L157.253 442.552Z" fill="#044E92" />
    </g>
    <g opacity="0.5">
        <path opacity="0.2" d="M157.253 420.007L310.747 493L157.253 565.482L0 493L157.253 420.007Z" fill="#044E92" />
        <path opacity="0.2" d="M157.253 417.965L310.747 490.958L157.253 563.441L0 490.958L157.253 417.965Z" fill="#044E92" />
    </g>
    <g opacity="0.5">
        <path opacity="0.2" d="M157.253 395.421L310.747 468.414L157.253 540.897L0 468.414L157.253 395.421Z" fill="#044E92" />
        <path opacity="0.2" d="M157.253 393.379L310.747 466.372L157.253 538.855L0 466.372L157.253 393.379Z" fill="#044E92" />
    </g>
    <g opacity="0.5">
        <path opacity="0.2" d="M157.253 370.835L310.747 443.828L157.253 516.31L0 443.828L157.253 370.835Z" fill="#044E92" />
        <path opacity="0.2" d="M157.253 368.793L310.747 441.786L157.253 514.268L0 441.786L157.253 368.793Z" fill="#044E92" />
    </g>
    <g opacity="0.5">
        <path opacity="0.2" d="M157.253 346.249L310.747 419.241L157.253 491.724L0 419.241L157.253 346.249Z" fill="#044E92" />
        <path opacity="0.2" d="M157.253 344.207L310.747 417.2L157.253 489.682L0 417.2L157.253 344.207Z" fill="#044E92" />
    </g>
    <g opacity="0.5">
        <path opacity="0.2" d="M157.253 321.663L310.747 394.656L157.253 467.138L0 394.656L157.253 321.663Z" fill="#044E92" />
        <path opacity="0.2" d="M157.253 319.621L310.747 392.614L157.253 465.096L0 392.614L157.253 319.621Z" fill="#044E92" />
    </g>
    <g opacity="0.5">
        <path opacity="0.2" d="M157.253 297.076L310.747 370.069L157.253 442.552L0 370.069L157.253 297.076Z" fill="#044E92" />
        <path opacity="0.2" d="M157.253 295.035L310.747 368.028L157.253 440.51L0 368.028L157.253 295.035Z" fill="#044E92" />
    </g>
    <g opacity="0.5">
        <path opacity="0.2" d="M157.253 272.49L310.747 345.483L157.253 417.966L0 345.483L157.253 272.49Z" fill="#044E92" />
        <path opacity="0.2" d="M157.253 270.448L310.747 343.441L157.253 415.924L0 343.441L157.253 270.448Z" fill="#044E92" />
    </g>
    <g opacity="0.5">
        <path opacity="0.2" d="M157.253 247.904L310.747 320.897L157.253 393.379L0 320.897L157.253 247.904Z" fill="#044E92" />
        <path opacity="0.2" d="M157.253 245.862L310.747 318.855L157.253 391.337L0 318.855L157.253 245.862Z" fill="#044E92" />
    </g>
    <g opacity="0.5">
        <path opacity="0.2" d="M157.253 223.318L310.747 296.311L157.253 368.793L0 296.311L157.253 223.318Z" fill="#044E92" />
        <path opacity="0.2" d="M157.253 221.276L310.747 294.269L157.253 366.751L0 294.269L157.253 221.276Z" fill="#044E92" />
    </g>
    <g opacity="0.5">
        <path opacity="0.2" d="M157.253 198.731L310.747 271.724L157.253 344.207L0 271.724L157.253 198.731Z" fill="#044E92" />
        <path opacity="0.2" d="M157.253 196.69L310.747 269.683L157.253 342.165L0 269.683L157.253 196.69Z" fill="#044E92" />
    </g>
    <g opacity="0.5">
        <path opacity="0.2" d="M157.253 174.145L310.747 247.138L157.253 319.621L0 247.138L157.253 174.145Z" fill="#044E92" />
        <path opacity="0.2" d="M157.253 172.104L310.747 245.096L157.253 317.579L0 245.096L157.253 172.104Z" fill="#044E92" />
    </g>
    <g opacity="0.5">
        <path opacity="0.2" d="M157.253 149.559L310.747 222.552L157.253 295.035L0 222.552L157.253 149.559Z" fill="#044E92" />
        <path opacity="0.2" d="M157.253 147.517L310.747 220.51L157.253 292.993L0 220.51L157.253 147.517Z" fill="#044E92" />
    </g>
    <g opacity="0.5">
        <path opacity="0.2" d="M157.253 124.973L310.747 197.966L157.253 270.449L0 197.966L157.253 124.973Z" fill="#044E92" />
        <path opacity="0.2" d="M157.253 122.931L310.747 195.924L157.253 268.407L0 195.924L157.253 122.931Z" fill="#044E92" />
    </g>
    <g opacity="0.5">
        <path opacity="0.2" d="M157.253 100.386L310.747 173.379L157.253 245.862L0 173.379L157.253 100.386Z" fill="#044E92" />
        <path opacity="0.2" d="M157.253 98.3447L310.747 171.338L157.253 243.82L0 171.338L157.253 98.3447Z" fill="#044E92" />
    </g>
    <g opacity="0.5">
        <path opacity="0.2" d="M157.253 75.8003L310.747 148.793L157.253 221.276L0 148.793L157.253 75.8003Z" fill="#044E92" />
        <path opacity="0.2" d="M157.253 73.7585L310.747 146.751L157.253 219.234L0 146.751L157.253 73.7585Z" fill="#044E92" />
    </g>
    <g opacity="0.5">
        <path opacity="0.2" d="M157.253 51.2141L310.747 124.207L157.253 196.69L0 124.207L157.253 51.2141Z" fill="#044E92" />
        <path opacity="0.2" d="M157.253 49.1724L310.747 122.165L157.253 194.648L0 122.165L157.253 49.1724Z" fill="#044E92" />
    </g>
    <g opacity="0.5">
        <path opacity="0.2" d="M157.253 26.6279L310.747 99.6209L157.253 172.103L0 99.6209L157.253 26.6279Z" fill="#044E92" />
        <path opacity="0.2" d="M157.253 24.5862L310.747 97.5791L157.253 170.062L0 97.5791L157.253 24.5862Z" fill="#044E92" />
    </g>
    <path opacity="0.2" d="M157.253 2.04175L310.747 75.0347L157.253 147.517L0 75.0347L157.253 2.04175Z" fill="#E0F0FF" />
    <path d="M2.38199 72.9898L157.248 1.10487L308.411 72.9898L157.248 144.372L2.38199 72.9898Z" fill="#E0F0FF" stroke="#E1E6F0" stroke-width="2" />
    <path opacity="0.5" d="M0 73.2463L157.253 146.493V713L0 640.778V73.2463Z" fill="#E0F0FF" />
    <g opacity="0.5">
        <path fill-rule="evenodd" clip-rule="evenodd" d="M310.746 516.586L157.253 589.32V589.32L157.252 589.32L0 516.586V492L157.252 564.734L310.746 492V516.586Z" fill="#F9FAFB" />
        <path fill-rule="evenodd" clip-rule="evenodd" d="M310.746 516.586L157.253 589.32V589.32L157.252 589.32L0 516.586V492L157.252 564.734L310.746 492V516.586Z" fill="url(#paint0_linear)" />
    </g>
    <defs>
        <linearGradient id="paint0_linear" x1="2.31524e-06" y1="589.32" x2="57.297" y2="410.7" gradientUnits="userSpaceOnUse">
            <stop stop-color="#0E7EE4" />
            <stop offset="1" stop-color="#00A3FF" />
        </linearGradient>
    </defs>
</svg>
