<svg width="492" height="34" viewBox="0 0 492 34" fill="none" xmlns="http://www.w3.org/2000/svg">
<rect x="460" width="32" height="32" rx="8" fill="#EFF2F7"/>
<path d="M475.581 23.4062H476.894C477.454 23.4062 477.892 23.0645 478.021 22.5312L478.274 21.4238L478.425 21.3691L479.389 21.9639C479.86 22.2578 480.414 22.1826 480.804 21.7861L481.713 20.877C482.109 20.4736 482.185 19.9268 481.891 19.4619L481.289 18.5049L481.344 18.3613L482.444 18.1084C482.978 17.9717 483.319 17.5342 483.319 16.9805V15.709C483.319 15.1553 482.978 14.7178 482.444 14.5879L481.357 14.3213L481.296 14.1709L481.897 13.2139C482.191 12.7559 482.116 12.209 481.72 11.792L480.811 10.8896C480.421 10.4932 479.867 10.418 479.396 10.7119L478.438 11.2998L478.274 11.2383L478.021 10.1309C477.892 9.59766 477.454 9.25586 476.894 9.25586H475.581C475.027 9.25586 474.59 9.60449 474.46 10.1309L474.207 11.2383L474.043 11.2998L473.079 10.7119C472.607 10.4248 472.054 10.4932 471.664 10.8896L470.762 11.792C470.358 12.209 470.29 12.7559 470.584 13.2139L471.179 14.1709L471.124 14.3213L470.03 14.5879C469.497 14.7178 469.155 15.1553 469.155 15.709V16.9805C469.155 17.5342 469.504 17.9785 470.03 18.1084L471.131 18.3613L471.186 18.5049L470.591 19.4619C470.29 19.9268 470.365 20.4736 470.762 20.877L471.671 21.7861C472.061 22.1826 472.621 22.2578 473.086 21.9639L474.05 21.3691L474.207 21.4238L474.46 22.5312C474.59 23.0645 475.027 23.4062 475.581 23.4062ZM475.772 22.1416C475.663 22.1416 475.615 22.0938 475.595 21.998L475.219 20.4121C474.795 20.3164 474.392 20.1523 474.057 19.9336L472.662 20.7881C472.587 20.8428 472.505 20.8359 472.43 20.7607L471.787 20.1182C471.712 20.043 471.712 19.9678 471.76 19.8857L472.621 18.498C472.423 18.1631 472.252 17.7666 472.156 17.3496L470.563 16.9736C470.475 16.96 470.42 16.9053 470.42 16.7959V15.8936C470.42 15.7773 470.468 15.7295 470.563 15.709L472.149 15.333C472.252 14.8955 472.437 14.4854 472.614 14.1777L471.76 12.79C471.705 12.7012 471.698 12.626 471.773 12.5508L472.423 11.915C472.505 11.8398 472.573 11.833 472.662 11.8877L474.043 12.7285C474.344 12.5439 474.795 12.3594 475.219 12.25L475.595 10.6641C475.615 10.5684 475.663 10.5205 475.772 10.5205H476.702C476.812 10.5205 476.866 10.5684 476.88 10.6641L477.263 12.2568C477.7 12.3594 478.09 12.5371 478.425 12.7354L479.806 11.8945C479.901 11.8398 479.97 11.8467 480.052 11.9219L480.694 12.5576C480.77 12.6328 480.77 12.708 480.715 12.7969L479.867 14.1777C480.038 14.4854 480.229 14.8955 480.325 15.3262L481.911 15.709C482.014 15.7295 482.055 15.7773 482.055 15.8936V16.7959C482.055 16.9053 482.007 16.96 481.911 16.9736L480.318 17.3496C480.223 17.7666 480.052 18.1699 479.854 18.498L480.708 19.8789C480.763 19.9678 480.763 20.043 480.688 20.1113L480.045 20.7539C479.963 20.8359 479.888 20.8359 479.806 20.7881L478.425 19.9336C478.083 20.1523 477.707 20.3096 477.263 20.4121L476.88 21.998C476.866 22.0938 476.812 22.1416 476.702 22.1416H475.772ZM476.237 18.7852C477.584 18.7852 478.685 17.6846 478.685 16.3311C478.685 14.9912 477.584 13.8906 476.237 13.8906C474.897 13.8906 473.79 14.9912 473.79 16.3311C473.79 17.6777 474.897 18.7852 476.237 18.7852ZM476.237 17.6162C475.54 17.6162 474.966 17.0352 474.966 16.3311C474.966 15.6406 475.54 15.0664 476.237 15.0664C476.928 15.0664 477.502 15.6406 477.502 16.3311C477.502 17.0352 476.928 17.6162 476.237 17.6162Z" fill="#044E92"/>
<rect x="420" width="32" height="32" rx="8" fill="#EFF2F7"/>
<path d="M432.801 23.3721H439.712C441.12 23.3721 441.865 22.6201 441.865 21.1982V15.333C441.865 14.3965 441.735 13.959 441.147 13.3574L437.846 10.0146C437.278 9.43359 436.807 9.29688 435.952 9.29688H432.801C431.399 9.29688 430.647 10.0488 430.647 11.4707V21.1982C430.647 22.6201 431.393 23.3721 432.801 23.3721ZM432.938 21.9707C432.343 21.9707 432.049 21.6631 432.049 21.0889V11.5869C432.049 11.0127 432.343 10.6982 432.944 10.6982H435.624V14.1162C435.624 15.1074 436.109 15.5791 437.094 15.5791H440.464V21.0889C440.464 21.6631 440.17 21.9707 439.568 21.9707H432.938ZM437.217 14.3828C436.943 14.3828 436.827 14.2598 436.827 13.9932V10.8555L440.307 14.3828H437.217ZM436.861 16.8506C436.861 16.5225 436.588 16.2832 436.253 16.2832C435.925 16.2832 435.651 16.5225 435.651 16.8506V18.6348L435.706 19.6123L435.234 19.1133L434.79 18.6621C434.694 18.5459 434.537 18.4775 434.394 18.4775C434.079 18.4775 433.854 18.6963 433.854 18.9971C433.854 19.168 433.915 19.291 434.045 19.4072L435.788 21C435.945 21.1367 436.082 21.2119 436.253 21.2119C436.431 21.2119 436.567 21.1367 436.725 21L438.468 19.4072C438.598 19.291 438.659 19.168 438.659 18.9971C438.659 18.6963 438.427 18.4775 438.119 18.4775C437.969 18.4775 437.812 18.5459 437.723 18.6621L437.278 19.1133L436.807 19.6123L436.861 18.6348V16.8506Z" fill="#044E92"/>
<g filter="url(#filter0_i)">
<rect x="286" y="10" width="40" height="16" rx="8" fill="#BABDC6"/>
</g>
<g filter="url(#filter1_d)">
<circle cx="294" cy="18" r="12" fill="white"/>
</g>
<path d="M346.396 13.2C347.189 13.2 347.843 13.3587 348.356 13.676C348.869 13.9933 349.243 14.3993 349.476 14.894C349.709 15.3887 349.826 15.916 349.826 16.476C349.826 17.0267 349.709 17.5447 349.476 18.03C349.243 18.5153 348.869 18.9167 348.356 19.234C347.843 19.542 347.189 19.696 346.396 19.696H344.38V23H342.966V13.2H346.396ZM346.2 18.464C346.825 18.464 347.353 18.3147 347.782 18.016C348.211 17.7173 348.426 17.204 348.426 16.476C348.426 15.748 348.211 15.2393 347.782 14.95C347.353 14.6513 346.825 14.502 346.2 14.502H344.38V18.464H346.2ZM353.829 23.098C353.195 23.098 352.649 22.9347 352.191 22.608C351.734 22.2813 351.384 21.8287 351.141 21.25C350.908 20.6713 350.791 20.0133 350.791 19.276C350.791 18.5293 350.913 17.8667 351.155 17.288C351.398 16.7093 351.748 16.2567 352.205 15.93C352.672 15.594 353.227 15.426 353.871 15.426C354.515 15.426 355.029 15.5753 355.411 15.874C355.794 16.1727 356.083 16.518 356.279 16.91H356.377V15.622H357.833V23H356.377V21.572H356.279C356.074 21.9827 355.775 22.342 355.383 22.65C354.991 22.9487 354.473 23.098 353.829 23.098ZM354.319 21.894C354.982 21.894 355.486 21.642 355.831 21.138C356.186 20.6247 356.363 19.9993 356.363 19.262C356.363 18.5247 356.186 17.904 355.831 17.4C355.486 16.896 354.982 16.644 354.319 16.644C353.647 16.644 353.139 16.896 352.793 17.4C352.448 17.904 352.275 18.52 352.275 19.248C352.275 19.9947 352.443 20.6247 352.779 21.138C353.125 21.642 353.638 21.894 354.319 21.894ZM359.963 15.622H361.405V23H359.963V15.622ZM360.677 14.278C360.425 14.278 360.215 14.194 360.047 14.026C359.879 13.858 359.795 13.648 359.795 13.396C359.795 13.144 359.879 12.934 360.047 12.766C360.215 12.598 360.425 12.514 360.677 12.514C360.929 12.514 361.139 12.6027 361.307 12.78C361.475 12.948 361.559 13.1533 361.559 13.396C361.559 13.6387 361.475 13.8487 361.307 14.026C361.139 14.194 360.929 14.278 360.677 14.278ZM366.19 23.098C365.555 23.098 365.009 22.9347 364.552 22.608C364.094 22.2813 363.744 21.8287 363.502 21.25C363.268 20.6713 363.152 20.0133 363.152 19.276C363.152 18.5293 363.268 17.8667 363.502 17.288C363.744 16.7093 364.094 16.2567 364.552 15.93C365.018 15.594 365.574 15.426 366.218 15.426C366.862 15.426 367.375 15.5753 367.758 15.874C368.14 16.1727 368.43 16.518 368.626 16.91H368.724V12.5H370.194V23H368.724V21.572H368.626C368.42 21.9827 368.122 22.342 367.73 22.65C367.338 22.9487 366.824 23.098 366.19 23.098ZM366.666 21.894C367.328 21.894 367.832 21.642 368.178 21.138C368.532 20.634 368.71 20.0133 368.71 19.276C368.71 18.5387 368.532 17.918 368.178 17.414C367.832 16.91 367.328 16.658 366.666 16.658C365.984 16.658 365.476 16.91 365.14 17.414C364.804 17.9087 364.636 18.5247 364.636 19.262C364.636 20.0087 364.804 20.634 365.14 21.138C365.485 21.642 365.994 21.894 366.666 21.894Z" fill="black"/>
<path d="M207.396 13.2C208.189 13.2 208.843 13.3587 209.356 13.676C209.869 13.9933 210.243 14.3993 210.476 14.894C210.709 15.3887 210.826 15.916 210.826 16.476C210.826 17.0267 210.709 17.5447 210.476 18.03C210.243 18.5153 209.869 18.9167 209.356 19.234C208.843 19.542 208.189 19.696 207.396 19.696H205.38V23H203.966V13.2H207.396ZM207.2 18.464C207.825 18.464 208.353 18.3147 208.782 18.016C209.211 17.7173 209.426 17.204 209.426 16.476C209.426 15.748 209.211 15.2393 208.782 14.95C208.353 14.6513 207.825 14.502 207.2 14.502H205.38V18.464H207.2ZM215.333 23.098C214.568 23.098 213.924 22.916 213.401 22.552C212.879 22.188 212.491 21.7167 212.239 21.138C211.987 20.55 211.861 19.9247 211.861 19.262C211.861 18.5993 211.987 17.9787 212.239 17.4C212.491 16.812 212.879 16.336 213.401 15.972C213.933 15.608 214.582 15.426 215.347 15.426C216.355 15.426 217.158 15.7573 217.755 16.42C218.353 17.0733 218.651 18.0253 218.651 19.276V19.682H213.275V19.78C213.275 20.1533 213.359 20.5033 213.527 20.83C213.695 21.1567 213.933 21.4227 214.241 21.628C214.549 21.824 214.904 21.922 215.305 21.922C215.744 21.922 216.122 21.8147 216.439 21.6C216.757 21.376 216.985 21.0773 217.125 20.704H218.553C218.367 21.3947 217.998 21.9687 217.447 22.426C216.897 22.874 216.192 23.098 215.333 23.098ZM217.237 18.688C217.2 17.932 217.009 17.386 216.663 17.05C216.327 16.7047 215.879 16.532 215.319 16.532C214.722 16.532 214.241 16.728 213.877 17.12C213.523 17.512 213.336 18.0347 213.317 18.688H217.237ZM220.29 15.622H221.746V16.882H221.858C222.036 16.4713 222.325 16.126 222.726 15.846C223.128 15.566 223.622 15.426 224.21 15.426C224.845 15.426 225.368 15.58 225.778 15.888C226.189 16.1867 226.488 16.574 226.674 17.05C226.861 17.5167 226.954 18.016 226.954 18.548V23H225.512V18.758C225.512 18.086 225.34 17.5727 224.994 17.218C224.658 16.8633 224.21 16.686 223.65 16.686C223.062 16.686 222.596 16.8773 222.25 17.26C221.914 17.6427 221.746 18.142 221.746 18.758V23H220.29V15.622ZM231.565 23.098C230.93 23.098 230.384 22.9347 229.927 22.608C229.469 22.2813 229.119 21.8287 228.877 21.25C228.643 20.6713 228.527 20.0133 228.527 19.276C228.527 18.5293 228.643 17.8667 228.877 17.288C229.119 16.7093 229.469 16.2567 229.927 15.93C230.393 15.594 230.949 15.426 231.593 15.426C232.237 15.426 232.75 15.5753 233.133 15.874C233.515 16.1727 233.805 16.518 234.001 16.91H234.099V12.5H235.569V23H234.099V21.572H234.001C233.795 21.9827 233.497 22.342 233.105 22.65C232.713 22.9487 232.199 23.098 231.565 23.098ZM232.041 21.894C232.703 21.894 233.207 21.642 233.553 21.138C233.907 20.634 234.085 20.0133 234.085 19.276C234.085 18.5387 233.907 17.918 233.553 17.414C233.207 16.91 232.703 16.658 232.041 16.658C231.359 16.658 230.851 16.91 230.515 17.414C230.179 17.9087 230.011 18.5247 230.011 19.262C230.011 20.0087 230.179 20.634 230.515 21.138C230.86 21.642 231.369 21.894 232.041 21.894ZM237.629 15.622H239.071V23H237.629V15.622ZM238.343 14.278C238.091 14.278 237.881 14.194 237.713 14.026C237.545 13.858 237.461 13.648 237.461 13.396C237.461 13.144 237.545 12.934 237.713 12.766C237.881 12.598 238.091 12.514 238.343 12.514C238.595 12.514 238.805 12.6027 238.973 12.78C239.141 12.948 239.225 13.1533 239.225 13.396C239.225 13.6387 239.141 13.8487 238.973 14.026C238.805 14.194 238.595 14.278 238.343 14.278ZM241.195 15.622H242.651V16.882H242.763C242.94 16.4713 243.229 16.126 243.631 15.846C244.032 15.566 244.527 15.426 245.115 15.426C245.749 15.426 246.272 15.58 246.683 15.888C247.093 16.1867 247.392 16.574 247.579 17.05C247.765 17.5167 247.859 18.016 247.859 18.548V23H246.417V18.758C246.417 18.086 246.244 17.5727 245.899 17.218C245.563 16.8633 245.115 16.686 244.555 16.686C243.967 16.686 243.5 16.8773 243.155 17.26C242.819 17.6427 242.651 18.142 242.651 18.758V23H241.195V15.622ZM253.127 26.01C252.828 26.01 252.6 25.9913 252.441 25.954C252.282 25.9167 252.1 25.8607 251.895 25.786V24.596C252.016 24.6333 252.175 24.666 252.371 24.694C252.576 24.7313 252.777 24.75 252.973 24.75C253.682 24.75 254.2 24.5493 254.527 24.148C254.863 23.756 255.031 23.2427 255.031 22.608V21.39H254.919C254.742 21.7913 254.443 22.1413 254.023 22.44C253.612 22.7387 253.099 22.888 252.483 22.888C251.876 22.888 251.344 22.734 250.887 22.426C250.43 22.1087 250.075 21.67 249.823 21.11C249.58 20.5407 249.459 19.8873 249.459 19.15C249.459 18.4127 249.58 17.764 249.823 17.204C250.075 16.6347 250.43 16.196 250.887 15.888C251.344 15.5707 251.881 15.412 252.497 15.412C253.132 15.412 253.654 15.5753 254.065 15.902C254.476 16.2193 254.765 16.5787 254.933 16.98H255.031V15.622H256.501V22.608C256.501 23.112 256.398 23.6207 256.193 24.134C255.997 24.6473 255.647 25.086 255.143 25.45C254.639 25.8233 253.967 26.01 253.127 26.01ZM252.987 21.684C253.64 21.684 254.14 21.432 254.485 20.928C254.84 20.424 255.017 19.822 255.017 19.122C255.017 18.45 254.844 17.8667 254.499 17.372C254.154 16.8773 253.65 16.63 252.987 16.63C252.324 16.63 251.82 16.8773 251.475 17.372C251.13 17.8573 250.957 18.4407 250.957 19.122C250.957 19.822 251.13 20.424 251.475 20.928C251.83 21.432 252.334 21.684 252.987 21.684Z" fill="black"/>
<g filter="url(#filter2_i)">
<rect x="147" y="10" width="40" height="16" rx="8" fill="#BABDC6"/>
</g>
<g filter="url(#filter3_d)">
<circle cx="155" cy="18" r="12" fill="white"/>
</g>
<path d="M67.124 23.098C66.1813 23.098 65.374 22.8833 64.702 22.454C64.0393 22.0153 63.5353 21.418 63.19 20.662C62.8447 19.8967 62.672 19.0333 62.672 18.072C62.672 17.1107 62.8447 16.2473 63.19 15.482C63.5353 14.7073 64.044 14.1007 64.716 13.662C65.388 13.214 66.1907 12.99 67.124 12.99C68.048 12.99 68.8413 13.2093 69.504 13.648C70.176 14.0867 70.6847 14.6933 71.03 15.468C71.3753 16.2333 71.548 17.106 71.548 18.086C71.548 19.0567 71.3753 19.92 71.03 20.676C70.6847 21.432 70.176 22.0247 69.504 22.454C68.8413 22.8833 68.048 23.098 67.124 23.098ZM67.11 21.782C67.7073 21.782 68.2253 21.6233 68.664 21.306C69.1027 20.9887 69.4387 20.55 69.672 19.99C69.9053 19.4207 70.022 18.7767 70.022 18.058C70.022 17.3393 69.9053 16.7 69.672 16.14C69.4387 15.5707 69.1027 15.1227 68.664 14.796C68.2253 14.4693 67.7073 14.306 67.11 14.306C66.5127 14.306 65.9947 14.4693 65.556 14.796C65.1173 15.1227 64.7813 15.5707 64.548 16.14C64.3147 16.7093 64.198 17.3487 64.198 18.058C64.198 18.7673 64.3147 19.4067 64.548 19.976C64.7813 20.536 65.1173 20.9793 65.556 21.306C65.9947 21.6233 66.5127 21.782 67.11 21.782ZM72.6459 15.622H74.0319L76.1039 21.502H76.1739L78.2319 15.622H79.6179L77.0139 23H75.2359L72.6459 15.622ZM83.9311 23.098C83.1658 23.098 82.5218 22.916 81.9991 22.552C81.4764 22.188 81.0891 21.7167 80.8371 21.138C80.5851 20.55 80.4591 19.9247 80.4591 19.262C80.4591 18.5993 80.5851 17.9787 80.8371 17.4C81.0891 16.812 81.4764 16.336 81.9991 15.972C82.5311 15.608 83.1798 15.426 83.9451 15.426C84.9531 15.426 85.7558 15.7573 86.3531 16.42C86.9504 17.0733 87.2491 18.0253 87.2491 19.276V19.682H81.8731V19.78C81.8731 20.1533 81.9571 20.5033 82.1251 20.83C82.2931 21.1567 82.5311 21.4227 82.8391 21.628C83.1471 21.824 83.5018 21.922 83.9031 21.922C84.3418 21.922 84.7198 21.8147 85.0371 21.6C85.3544 21.376 85.5831 21.0773 85.7231 20.704H87.1511C86.9644 21.3947 86.5958 21.9687 86.0451 22.426C85.4944 22.874 84.7898 23.098 83.9311 23.098ZM85.8351 18.688C85.7978 17.932 85.6064 17.386 85.2611 17.05C84.9251 16.7047 84.4771 16.532 83.9171 16.532C83.3198 16.532 82.8391 16.728 82.4751 17.12C82.1204 17.512 81.9338 18.0347 81.9151 18.688H85.8351ZM88.8739 15.622H90.3159V16.798H90.3999C90.5212 16.4713 90.7359 16.196 91.0439 15.972C91.3612 15.7387 91.7672 15.622 92.2619 15.622C92.3925 15.622 92.5045 15.6267 92.5979 15.636C92.6912 15.6453 92.7845 15.6687 92.8779 15.706L92.8219 17.078C92.5699 17.0033 92.3085 16.966 92.0379 16.966C91.4872 16.966 91.0625 17.1247 90.7639 17.442C90.4652 17.75 90.3159 18.2633 90.3159 18.982V23H88.8739V15.622ZM96.6215 23.098C95.9868 23.098 95.4408 22.9347 94.9835 22.608C94.5261 22.2813 94.1761 21.8287 93.9335 21.25C93.7001 20.6713 93.5835 20.0133 93.5835 19.276C93.5835 18.5293 93.7001 17.8667 93.9335 17.288C94.1761 16.7093 94.5261 16.2567 94.9835 15.93C95.4501 15.594 96.0055 15.426 96.6495 15.426C97.2935 15.426 97.8068 15.5753 98.1895 15.874C98.5721 16.1727 98.8615 16.518 99.0575 16.91H99.1555V12.5H100.625V23H99.1555V21.572H99.0575C98.8521 21.9827 98.5535 22.342 98.1615 22.65C97.7695 22.9487 97.2561 23.098 96.6215 23.098ZM97.0975 21.894C97.7601 21.894 98.2641 21.642 98.6095 21.138C98.9641 20.634 99.1415 20.0133 99.1415 19.276C99.1415 18.5387 98.9641 17.918 98.6095 17.414C98.2641 16.91 97.7601 16.658 97.0975 16.658C96.4161 16.658 95.9075 16.91 95.5715 17.414C95.2355 17.9087 95.0675 18.5247 95.0675 19.262C95.0675 20.0087 95.2355 20.634 95.5715 21.138C95.9168 21.642 96.4255 21.894 97.0975 21.894ZM109.07 23H107.614V21.67H107.516C107.329 22.0807 107.04 22.426 106.648 22.706C106.256 22.986 105.78 23.126 105.22 23.126C104.585 23.126 104.067 22.9767 103.666 22.678C103.274 22.37 102.989 21.9827 102.812 21.516C102.635 21.04 102.546 20.5407 102.546 20.018V15.622H103.988V19.808C103.988 20.4613 104.151 20.97 104.478 21.334C104.805 21.698 105.239 21.88 105.78 21.88C106.349 21.88 106.797 21.6887 107.124 21.306C107.451 20.914 107.614 20.4147 107.614 19.808V15.622H109.07V23ZM114.091 23.098C113.326 23.098 112.682 22.916 112.159 22.552C111.637 22.188 111.249 21.7167 110.997 21.138C110.745 20.55 110.619 19.9247 110.619 19.262C110.619 18.5993 110.745 17.9787 110.997 17.4C111.249 16.812 111.637 16.336 112.159 15.972C112.691 15.608 113.34 15.426 114.105 15.426C115.113 15.426 115.916 15.7573 116.513 16.42C117.111 17.0733 117.409 18.0253 117.409 19.276V19.682H112.033V19.78C112.033 20.1533 112.117 20.5033 112.285 20.83C112.453 21.1567 112.691 21.4227 112.999 21.628C113.307 21.824 113.662 21.922 114.063 21.922C114.502 21.922 114.88 21.8147 115.197 21.6C115.515 21.376 115.743 21.0773 115.883 20.704H117.311C117.125 21.3947 116.756 21.9687 116.205 22.426C115.655 22.874 114.95 23.098 114.091 23.098ZM115.995 18.688C115.958 17.932 115.767 17.386 115.421 17.05C115.085 16.7047 114.637 16.532 114.077 16.532C113.48 16.532 112.999 16.728 112.635 17.12C112.281 17.512 112.094 18.0347 112.075 18.688H115.995Z" fill="black"/>
<g filter="url(#filter4_i)">
<rect x="6" y="10" width="40" height="16" rx="8" fill="#BABDC6"/>
</g>
<g filter="url(#filter5_d)">
<circle cx="14" cy="18" r="12" fill="white"/>
</g>
<defs>
<filter id="filter0_i" x="286" y="10" width="40" height="20" filterUnits="userSpaceOnUse" color-interpolation-filters="sRGB">
<feFlood flood-opacity="0" result="BackgroundImageFix"/>
<feBlend mode="normal" in="SourceGraphic" in2="BackgroundImageFix" result="shape"/>
<feColorMatrix in="SourceAlpha" type="matrix" values="0 0 0 0 0 0 0 0 0 0 0 0 0 0 0 0 0 0 127 0" result="hardAlpha"/>
<feOffset dy="4"/>
<feGaussianBlur stdDeviation="4.5"/>
<feComposite in2="hardAlpha" operator="arithmetic" k2="-1" k3="1"/>
<feColorMatrix type="matrix" values="0 0 0 0 0 0 0 0 0 0 0 0 0 0 0 0 0 0 0.25 0"/>
<feBlend mode="normal" in2="shape" result="effect1_innerShadow"/>
</filter>
<filter id="filter1_d" x="280" y="4" width="30" height="30" filterUnits="userSpaceOnUse" color-interpolation-filters="sRGB">
<feFlood flood-opacity="0" result="BackgroundImageFix"/>
<feColorMatrix in="SourceAlpha" type="matrix" values="0 0 0 0 0 0 0 0 0 0 0 0 0 0 0 0 0 0 127 0"/>
<feOffset dx="1" dy="1"/>
<feGaussianBlur stdDeviation="1.5"/>
<feColorMatrix type="matrix" values="0 0 0 0 0 0 0 0 0 0 0 0 0 0 0 0 0 0 0.2 0"/>
<feBlend mode="normal" in2="BackgroundImageFix" result="effect1_dropShadow"/>
<feBlend mode="normal" in="SourceGraphic" in2="effect1_dropShadow" result="shape"/>
</filter>
<filter id="filter2_i" x="147" y="10" width="40" height="20" filterUnits="userSpaceOnUse" color-interpolation-filters="sRGB">
<feFlood flood-opacity="0" result="BackgroundImageFix"/>
<feBlend mode="normal" in="SourceGraphic" in2="BackgroundImageFix" result="shape"/>
<feColorMatrix in="SourceAlpha" type="matrix" values="0 0 0 0 0 0 0 0 0 0 0 0 0 0 0 0 0 0 127 0" result="hardAlpha"/>
<feOffset dy="4"/>
<feGaussianBlur stdDeviation="4.5"/>
<feComposite in2="hardAlpha" operator="arithmetic" k2="-1" k3="1"/>
<feColorMatrix type="matrix" values="0 0 0 0 0 0 0 0 0 0 0 0 0 0 0 0 0 0 0.25 0"/>
<feBlend mode="normal" in2="shape" result="effect1_innerShadow"/>
</filter>
<filter id="filter3_d" x="141" y="4" width="30" height="30" filterUnits="userSpaceOnUse" color-interpolation-filters="sRGB">
<feFlood flood-opacity="0" result="BackgroundImageFix"/>
<feColorMatrix in="SourceAlpha" type="matrix" values="0 0 0 0 0 0 0 0 0 0 0 0 0 0 0 0 0 0 127 0"/>
<feOffset dx="1" dy="1"/>
<feGaussianBlur stdDeviation="1.5"/>
<feColorMatrix type="matrix" values="0 0 0 0 0 0 0 0 0 0 0 0 0 0 0 0 0 0 0.2 0"/>
<feBlend mode="normal" in2="BackgroundImageFix" result="effect1_dropShadow"/>
<feBlend mode="normal" in="SourceGraphic" in2="effect1_dropShadow" result="shape"/>
</filter>
<filter id="filter4_i" x="6" y="10" width="40" height="20" filterUnits="userSpaceOnUse" color-interpolation-filters="sRGB">
<feFlood flood-opacity="0" result="BackgroundImageFix"/>
<feBlend mode="normal" in="SourceGraphic" in2="BackgroundImageFix" result="shape"/>
<feColorMatrix in="SourceAlpha" type="matrix" values="0 0 0 0 0 0 0 0 0 0 0 0 0 0 0 0 0 0 127 0" result="hardAlpha"/>
<feOffset dy="4"/>
<feGaussianBlur stdDeviation="4.5"/>
<feComposite in2="hardAlpha" operator="arithmetic" k2="-1" k3="1"/>
<feColorMatrix type="matrix" values="0 0 0 0 0 0 0 0 0 0 0 0 0 0 0 0 0 0 0.25 0"/>
<feBlend mode="normal" in2="shape" result="effect1_innerShadow"/>
</filter>
<filter id="filter5_d" x="0" y="4" width="30" height="30" filterUnits="userSpaceOnUse" color-interpolation-filters="sRGB">
<feFlood flood-opacity="0" result="BackgroundImageFix"/>
<feColorMatrix in="SourceAlpha" type="matrix" values="0 0 0 0 0 0 0 0 0 0 0 0 0 0 0 0 0 0 127 0"/>
<feOffset dx="1" dy="1"/>
<feGaussianBlur stdDeviation="1.5"/>
<feColorMatrix type="matrix" values="0 0 0 0 0 0 0 0 0 0 0 0 0 0 0 0 0 0 0.2 0"/>
<feBlend mode="normal" in2="BackgroundImageFix" result="effect1_dropShadow"/>
<feBlend mode="normal" in="SourceGraphic" in2="effect1_dropShadow" result="shape"/>
</filter>
</defs>
</svg>
