<svg width="56" height="56" viewBox="0 0 56 56" fill="none" xmlns="http://www.w3.org/2000/svg">
<g clip-path="url(#clip0)">
<g filter="url(#filter0_d)">
<path d="M40 0H16C11.5817 0 8 3.58172 8 8V32C8 36.4183 11.5817 40 16 40H40C44.4183 40 48 36.4183 48 32V8C48 3.58172 44.4183 0 40 0Z" fill="#F5A623"/>
<path d="M39.1236 19.3718C37.5768 18.5937 35.9502 17.9327 33.0299 18.3827C32.7955 18.4109 32.7111 18.3593 32.3877 18.064C31.8721 17.5624 31.6846 17.3093 30.358 16.0484C29.9971 15.7015 29.5049 15.4765 28.9518 15.4765C24.508 15.4812 24.8221 15.4671 24.6908 15.4859C21.7752 16.0905 19.8674 18.6218 17.1627 18.9406C16.4127 19.0296 15.9065 19.7327 16.0049 20.4593C16.1783 21.7249 17.1908 22.6999 18.4611 22.8312L20.1533 23.0046C20.4158 23.8859 21.2315 24.5281 22.1971 24.5281C23.008 24.5281 23.7158 24.0734 24.0768 23.4078H24.1002H33.2033C33.5643 24.0734 34.2721 24.5281 35.083 24.5281C35.9033 24.5281 36.6158 24.064 36.9721 23.3843L39.1658 22.7187C39.658 22.5687 39.9908 22.1234 39.9908 21.6077V20.7874C40.0002 20.1874 39.6627 19.6437 39.1236 19.3718ZM21.0533 18.378C21.2033 18.2843 21.3533 18.1905 21.5033 18.0921C22.6002 17.3937 23.6408 16.7374 24.8502 16.4702H26.3643V18.3734L21.0533 18.378ZM27.3627 16.4702H28.9565C29.1533 16.4702 29.3455 16.5265 29.5096 16.6343C29.6783 16.7468 30.658 17.7593 31.2768 18.3734H27.3627V16.4702ZM22.2065 23.5296C21.5783 23.5296 21.0721 23.0187 21.0721 22.3952C21.0721 21.7718 21.583 21.2609 22.2065 21.2609C22.8299 21.2609 23.3408 21.7718 23.3408 22.3952C23.3408 23.0187 22.8346 23.5296 22.2065 23.5296ZM35.0924 23.5296C34.4643 23.5296 33.958 23.0187 33.958 22.3952C33.958 21.7718 34.469 21.2609 35.0924 21.2609C35.7158 21.2609 36.2268 21.7718 36.2268 22.3952C36.2315 23.0187 35.7205 23.5296 35.0924 23.5296ZM39.0018 21.6124C39.0018 21.6827 38.9549 21.7437 38.8893 21.7624L37.2252 22.2687C37.1596 21.1484 36.2315 20.2624 35.0971 20.2624C33.9205 20.2624 32.9596 21.2187 32.9596 22.3999V22.414H24.344C24.344 22.4093 24.344 22.4046 24.344 22.3999C24.344 21.2234 23.3877 20.2624 22.2065 20.2624C21.1658 20.2624 20.2986 21.0124 20.1111 21.9968L18.569 21.8374C17.1815 21.6921 16.619 20.0093 17.2846 19.9296C17.983 19.8452 18.6252 19.6437 19.2346 19.3765H26.8658C26.8705 19.3765 33.133 19.3812 33.1893 19.3718C35.819 18.964 37.2299 19.5359 38.6783 20.2671C38.8799 20.3702 39.0018 20.5718 39.0018 20.7968V21.6124Z" fill="white"/>
</g>
</g>
<defs>
<filter id="filter0_d" x="-8" y="-8" width="72" height="72" filterUnits="userSpaceOnUse" color-interpolation-filters="sRGB">
<feFlood flood-opacity="0" result="BackgroundImageFix"/>
<feColorMatrix in="SourceAlpha" type="matrix" values="0 0 0 0 0 0 0 0 0 0 0 0 0 0 0 0 0 0 127 0"/>
<feOffset dy="8"/>
<feGaussianBlur stdDeviation="8"/>
<feColorMatrix type="matrix" values="0 0 0 0 0.791667 0 0 0 0 0.516186 0 0 0 0 0.059375 0 0 0 0.24 0"/>
<feBlend mode="normal" in2="BackgroundImageFix" result="effect1_dropShadow"/>
<feBlend mode="normal" in="SourceGraphic" in2="effect1_dropShadow" result="shape"/>
</filter>
<clipPath id="clip0">
<rect width="56" height="56" fill="white"/>
</clipPath>
</defs>
</svg>
