<svg width="56" height="56" viewBox="0 0 56 56" fill="none" xmlns="http://www.w3.org/2000/svg">
<g clip-path="url(#clip0)">
<g filter="url(#filter0_d)">
<path d="M40 0H16C11.5817 0 8 3.58172 8 8V32C8 36.4183 11.5817 40 16 40H40C44.4183 40 48 36.4183 48 32V8C48 3.58172 44.4183 0 40 0Z" fill="#0E7EE4"/>
<path d="M34.7916 28.9531H21.9865C17.2554 28.9531 14.4008 23.7387 16.9612 19.8288C17.9801 18.272 19.0235 18.0216 19.0235 17.8073C19.0235 10.939 28.2159 8.60319 31.6045 14.5133C34.5327 13.0079 37.8885 15.8666 36.8037 18.9922C42.1132 21.1609 40.3699 28.9531 34.7916 28.9531ZM20.4299 17.8073C20.4299 18.2623 20.4089 18.7492 19.8271 19.0541C15.6844 21.225 17.2087 27.5465 21.9865 27.5465H34.7916C39.0089 27.5465 40.1161 21.621 36.0797 20.2219C35.4543 20.0051 35.1446 19.298 35.412 18.6914C36.3083 16.6585 33.9478 14.7099 32.1064 15.8439C31.5387 16.1934 30.7931 15.9889 30.4868 15.4002C27.9546 10.5384 20.4299 12.2559 20.4299 17.8073Z" fill="white"/>
<path d="M21.5278 23.8812V21.5446C21.5278 20.8274 21.725 20.3011 22.12 19.966C22.5148 19.6309 23.0297 19.4634 23.665 19.4634C24.318 19.4634 24.8538 19.6192 25.2723 19.9309C25.6909 20.2425 25.9 20.6715 25.9 21.2183C25.9 21.471 25.8467 21.6431 25.7398 21.7341C25.6329 21.8253 25.4549 21.8709 25.2055 21.8709C24.7604 21.8709 24.5287 21.7328 24.511 21.4563C24.4932 20.9273 24.229 20.6627 23.7185 20.6627C23.1842 20.6627 22.9171 20.9568 22.9171 21.5446V23.8814C22.9171 24.4692 23.1871 24.7632 23.7273 24.7632C23.8936 24.7632 24.0316 24.7367 24.1415 24.6838C24.2512 24.6308 24.3297 24.5501 24.3773 24.4413C24.4247 24.3326 24.4561 24.2428 24.4709 24.1723C24.4855 24.1018 24.4989 24.0048 24.511 23.8814C24.5346 23.6051 24.7631 23.4668 25.1965 23.4668C25.4518 23.4668 25.6329 23.5126 25.7398 23.6036C25.8467 23.6948 25.9 23.8667 25.9 24.1194C25.9 24.6898 25.6907 25.1395 25.2723 25.4687C24.8538 25.798 24.3178 25.9624 23.6649 25.9624C23.0297 25.9624 22.5146 25.7948 22.12 25.4598C21.725 25.1247 21.5278 24.5986 21.5278 23.8812Z" fill="white"/>
<path d="M26.8887 23.8812V21.5446C26.8887 20.8274 27.0875 20.3011 27.4854 19.966C27.8829 19.6309 28.4114 19.4634 29.0704 19.4634C29.7352 19.4634 30.2666 19.6309 30.6643 19.966C31.062 20.3011 31.261 20.8274 31.261 21.5446V23.8812C31.261 24.5986 31.062 25.1247 30.6643 25.4598C30.2666 25.7948 29.7352 25.9624 29.0704 25.9624C28.4114 25.9624 27.8829 25.7948 27.4854 25.4598C27.0875 25.1247 26.8887 24.5986 26.8887 23.8812ZM28.2779 23.8812C28.2779 24.4692 28.5419 24.763 29.0704 24.763C29.6047 24.763 29.8718 24.4692 29.8718 23.8812V21.5446C29.8718 20.9568 29.6047 20.6627 29.0704 20.6627C28.5419 20.6627 28.2779 20.9566 28.2779 21.5446V23.8812Z" fill="white"/>
<path d="M32.2793 25.65V25.1254C32.2793 24.9705 32.3373 24.8154 32.4536 24.6603C32.5697 24.5054 32.7101 24.3666 32.8748 24.244L33.373 23.8745C33.5453 23.7514 33.691 23.6227 33.8102 23.4887C33.9294 23.3546 33.9889 23.2242 33.9889 23.0974C33.9889 22.9959 33.9542 22.9064 33.8846 22.8284C33.8148 22.7506 33.7103 22.7116 33.5711 22.7116C33.4501 22.7116 33.351 22.7451 33.2741 22.8121C33.197 22.8789 33.1586 22.9849 33.1586 23.1299C33.1586 23.2156 33.1183 23.29 33.0381 23.3532C32.9577 23.4163 32.8515 23.448 32.7193 23.448C32.4694 23.448 32.3445 23.3028 32.3445 23.0126C32.3445 22.7009 32.4659 22.4508 32.709 22.2628C32.9522 22.0747 33.2377 21.9806 33.5656 21.9806C33.9036 21.9806 34.1997 22.0787 34.454 22.2754C34.7085 22.4719 34.8358 22.7368 34.8358 23.0703C34.8358 23.2876 34.7776 23.4923 34.6611 23.6842C34.5448 23.8763 34.4048 24.0376 34.2413 24.1678C34.0776 24.2983 33.9131 24.4179 33.7478 24.5267C33.5823 24.6353 33.4409 24.7413 33.3235 24.8444C33.2064 24.9478 33.1478 25.0429 33.1478 25.1298V25.1787H34.5791C34.6481 25.1787 34.7082 25.2144 34.7593 25.2862C34.8103 25.3578 34.8358 25.442 34.8358 25.5387C34.8358 25.6354 34.8103 25.7214 34.7598 25.7967C34.7091 25.872 34.6494 25.9097 34.5807 25.9097H32.6484C32.5651 25.9097 32.4829 25.8844 32.4014 25.8339C32.3199 25.7835 32.2793 25.7222 32.2793 25.65Z" fill="white"/>
</g>
</g>
<defs>
<filter id="filter0_d" x="-8" y="-8" width="72" height="72" filterUnits="userSpaceOnUse" color-interpolation-filters="sRGB">
<feFlood flood-opacity="0" result="BackgroundImageFix"/>
<feColorMatrix in="SourceAlpha" type="matrix" values="0 0 0 0 0 0 0 0 0 0 0 0 0 0 0 0 0 0 127 0"/>
<feOffset dy="8"/>
<feGaussianBlur stdDeviation="8"/>
<feColorMatrix type="matrix" values="0 0 0 0 0.0142708 0 0 0 0 0.305556 0 0 0 0 0.570833 0 0 0 0.24 0"/>
<feBlend mode="normal" in2="BackgroundImageFix" result="effect1_dropShadow"/>
<feBlend mode="normal" in="SourceGraphic" in2="effect1_dropShadow" result="shape"/>
</filter>
<clipPath id="clip0">
<rect width="56" height="56" fill="white"/>
</clipPath>
</defs>
</svg>
