<svg width="40" height="40" viewBox="0 0 40 40" fill="none" xmlns="http://www.w3.org/2000/svg">
<path d="M20 40C31.0457 40 40 31.0457 40 20C40 8.9543 31.0457 0 20 0C8.9543 0 0 8.9543 0 20C0 31.0457 8.9543 40 20 40Z" fill="#EFF2F7"/>
<path d="M27 13V15H23V13H27ZM17 13V19H13V13H17ZM27 21V27H23V21H27ZM17 25V27H13V25H17ZM29 11H21V17H29V11ZM19 11H11V21H19V11ZM29 19H21V29H29V19ZM19 23H11V29H19V23Z" fill="#F9FAFB"/>
<path d="M27 13V15H23V13H27ZM17 13V19H13V13H17ZM27 21V27H23V21H27ZM17 25V27H13V25H17ZM29 11H21V17H29V11ZM19 11H11V21H19V11ZM29 19H21V29H29V19ZM19 23H11V29H19V23Z" fill="url(#paint0_linear)"/>
<defs>
<linearGradient id="paint0_linear" x1="11" y1="29" x2="29.2129" y2="11.2181" gradientUnits="userSpaceOnUse">
<stop stop-color="#0E7EE4"/>
<stop offset="1" stop-color="#00A3FF"/>
</linearGradient>
</defs>
</svg>
