<svg width="40" height="40" viewBox="0 0 40 40" fill="none" xmlns="http://www.w3.org/2000/svg">
<path d="M20 40C31.0457 40 40 31.0457 40 20C40 8.9543 31.0457 0 20 0C8.9543 0 0 8.9543 0 20C0 31.0457 8.9543 40 20 40Z" fill="#EFF2F7"/>
<path d="M20 15V11H10V29H30V15H20ZM14 27H12V25H14V27ZM14 23H12V21H14V23ZM14 19H12V17H14V19ZM14 15H12V13H14V15ZM18 27H16V25H18V27ZM18 23H16V21H18V23ZM18 19H16V17H18V19ZM18 15H16V13H18V15ZM28 27H20V25H22V23H20V21H22V19H20V17H28V27ZM26 19H24V21H26V19ZM26 23H24V25H26V23Z" fill="#F9FAFB"/>
<path d="M20 15V11H10V29H30V15H20ZM14 27H12V25H14V27ZM14 23H12V21H14V23ZM14 19H12V17H14V19ZM14 15H12V13H14V15ZM18 27H16V25H18V27ZM18 23H16V21H18V23ZM18 19H16V17H18V19ZM18 15H16V13H18V15ZM28 27H20V25H22V23H20V21H22V19H20V17H28V27ZM26 19H24V21H26V19ZM26 23H24V25H26V23Z" fill="url(#paint0_linear)"/>
<defs>
<linearGradient id="paint0_linear" x1="10" y1="29" x2="28.158" y2="9.30199" gradientUnits="userSpaceOnUse">
<stop stop-color="#0E7EE4"/>
<stop offset="1" stop-color="#00A3FF"/>
</linearGradient>
</defs>
</svg>
