<svg width="40" height="40" viewBox="0 0 40 40" fill="none" xmlns="http://www.w3.org/2000/svg">
<circle cx="20" cy="20" r="20" fill="#F7F9FC"/>
<path d="M19.9998 13.7295C17.7478 13.7295 15.9155 15.5617 15.9155 17.8138C15.9155 20.0659 17.7478 21.8981 19.9998 21.8981C22.2519 21.8981 24.0841 20.0659 24.0841 17.8138C24.0841 15.5617 22.252 13.7295 19.9998 13.7295ZM19.9998 20.1784C18.696 20.1784 17.6352 19.1176 17.6352 17.8138C17.6352 16.51 18.696 15.4492 19.9998 15.4492C21.3037 15.4492 22.3644 16.51 22.3644 17.8138C22.3644 19.1176 21.3037 20.1784 19.9998 20.1784Z" fill="#F9FAFB"/>
<path d="M19.9998 13.7295C17.7478 13.7295 15.9155 15.5617 15.9155 17.8138C15.9155 20.0659 17.7478 21.8981 19.9998 21.8981C22.2519 21.8981 24.0841 20.0659 24.0841 17.8138C24.0841 15.5617 22.252 13.7295 19.9998 13.7295ZM19.9998 20.1784C18.696 20.1784 17.6352 19.1176 17.6352 17.8138C17.6352 16.51 18.696 15.4492 19.9998 15.4492C21.3037 15.4492 22.3644 16.51 22.3644 17.8138C22.3644 19.1176 21.3037 20.1784 19.9998 20.1784Z" fill="url(#paint0_linear)"/>
<path d="M20.0001 9C15.1403 9 11.1865 12.9538 11.1865 17.8135V18.0572C11.1865 20.515 12.5956 23.3791 15.3749 26.5698C17.3896 28.8829 19.3762 30.4958 19.4597 30.5634L20.0001 31L20.5404 30.5634C20.624 30.4958 22.6106 28.883 24.6253 26.5699C27.4044 23.3791 28.8136 20.515 28.8136 18.0572V17.8136C28.8136 12.9538 24.8599 9 20.0001 9ZM27.0939 18.0572C27.0939 22.2108 21.7421 27.2388 20.0001 28.7651C18.2575 27.2383 12.9062 22.2105 12.9062 18.0572V17.8136C12.9062 13.902 16.0885 10.7197 20.0001 10.7197C23.9116 10.7197 27.0939 13.902 27.0939 17.8136V18.0572V18.0572Z" fill="#F9FAFB"/>
<path d="M20.0001 9C15.1403 9 11.1865 12.9538 11.1865 17.8135V18.0572C11.1865 20.515 12.5956 23.3791 15.3749 26.5698C17.3896 28.8829 19.3762 30.4958 19.4597 30.5634L20.0001 31L20.5404 30.5634C20.624 30.4958 22.6106 28.883 24.6253 26.5699C27.4044 23.3791 28.8136 20.515 28.8136 18.0572V17.8136C28.8136 12.9538 24.8599 9 20.0001 9ZM27.0939 18.0572C27.0939 22.2108 21.7421 27.2388 20.0001 28.7651C18.2575 27.2383 12.9062 22.2105 12.9062 18.0572V17.8136C12.9062 13.902 16.0885 10.7197 20.0001 10.7197C23.9116 10.7197 27.0939 13.902 27.0939 17.8136V18.0572V18.0572Z" fill="url(#paint1_linear)"/>
<defs>
<linearGradient id="paint0_linear" x1="15.9155" y1="21.8981" x2="24.1808" y2="13.8285" gradientUnits="userSpaceOnUse">
<stop stop-color="#0E7EE4"/>
<stop offset="1" stop-color="#00A3FF"/>
</linearGradient>
<linearGradient id="paint1_linear" x1="11.1865" y1="31" x2="32.7983" y2="14.0938" gradientUnits="userSpaceOnUse">
<stop stop-color="#0E7EE4"/>
<stop offset="1" stop-color="#00A3FF"/>
</linearGradient>
</defs>
</svg>
