<svg width="40" height="40" viewBox="0 0 40 40" fill="none" xmlns="http://www.w3.org/2000/svg">
<path d="M20 40C31.0457 40 40 31.0457 40 20C40 8.9543 31.0457 0 20 0C8.9543 0 0 8.9543 0 20C0 31.0457 8.9543 40 20 40Z" fill="#EFF2F7"/>
<path d="M15 23H22V25H15V23ZM15 19H25V21H15V19ZM15 15H25V17H15V15ZM27 11H22.82C22.4 9.84 21.3 9 20 9C18.7 9 17.6 9.84 17.18 11H13C12.86 11 12.73 11.01 12.6 11.04C12.21 11.12 11.86 11.32 11.59 11.59C11.41 11.77 11.26 11.99 11.16 12.23C11.06 12.46 11 12.72 11 13V27C11 27.27 11.06 27.54 11.16 27.78C11.26 28.02 11.41 28.23 11.59 28.42C11.86 28.69 12.21 28.89 12.6 28.97C12.73 28.99 12.86 29 13 29H27C28.1 29 29 28.1 29 27V13C29 11.9 28.1 11 27 11ZM20 10.75C20.41 10.75 20.75 11.09 20.75 11.5C20.75 11.91 20.41 12.25 20 12.25C19.59 12.25 19.25 11.91 19.25 11.5C19.25 11.09 19.59 10.75 20 10.75ZM27 27H13V13H27V27Z" fill="#F9FAFB"/>
<path d="M15 23H22V25H15V23ZM15 19H25V21H15V19ZM15 15H25V17H15V15ZM27 11H22.82C22.4 9.84 21.3 9 20 9C18.7 9 17.6 9.84 17.18 11H13C12.86 11 12.73 11.01 12.6 11.04C12.21 11.12 11.86 11.32 11.59 11.59C11.41 11.77 11.26 11.99 11.16 12.23C11.06 12.46 11 12.72 11 13V27C11 27.27 11.06 27.54 11.16 27.78C11.26 28.02 11.41 28.23 11.59 28.42C11.86 28.69 12.21 28.89 12.6 28.97C12.73 28.99 12.86 29 13 29H27C28.1 29 29 28.1 29 27V13C29 11.9 28.1 11 27 11ZM20 10.75C20.41 10.75 20.75 11.09 20.75 11.5C20.75 11.91 20.41 12.25 20 12.25C19.59 12.25 19.25 11.91 19.25 11.5C19.25 11.09 19.59 10.75 20 10.75ZM27 27H13V13H27V27Z" fill="url(#paint0_linear)"/>
<defs>
<linearGradient id="paint0_linear" x1="11" y1="29" x2="31.0743" y2="11.3607" gradientUnits="userSpaceOnUse">
<stop stop-color="#0E7EE4"/>
<stop offset="1" stop-color="#00A3FF"/>
</linearGradient>
</defs>
</svg>
