<svg width="20" height="20" viewBox="0 0 20 20" fill="none" xmlns="http://www.w3.org/2000/svg">
<circle cx="10" cy="10" r="10" fill="#F5A623"/>
<path d="M14.9498 5.05023C13.6276 3.72814 11.8698 3 10 3C8.13023 3 6.37239 3.72814 5.05023 5.05023C3.72814 6.37239 3 8.13023 3 10C3 11.8698 3.72814 13.6276 5.05023 14.9498C6.37239 16.2719 8.13023 17 10 17C11.8698 17 13.6276 16.2719 14.9498 14.9498C16.2719 13.6276 17 11.8698 17 10C17 8.13023 16.2719 6.37239 14.9498 5.05023ZM10 3.82031C11.5564 3.82031 12.9801 4.39893 14.0678 5.35208L12.1589 7.26103C11.5646 6.79157 10.8145 6.51099 10 6.51099C9.18557 6.51099 8.43545 6.79157 7.84113 7.26103L5.93218 5.35208C7.01986 4.39893 8.44357 3.82031 10 3.82031ZM12.6687 10C12.6687 11.4715 11.4715 12.6687 10 12.6687C8.52847 12.6687 7.3313 11.4715 7.3313 10C7.3313 8.52847 8.52847 7.3313 10 7.3313C11.4715 7.3313 12.6687 8.52847 12.6687 10ZM3.82031 10C3.82031 8.44354 4.39896 7.01983 5.35214 5.93213L7.26109 7.84107C6.79159 8.43542 6.51099 9.18554 6.51099 10C6.51099 10.8145 6.79157 11.5646 7.26103 12.1589L5.35208 14.0679C4.39893 12.9801 3.82031 11.5564 3.82031 10ZM10 16.1797C8.44354 16.1797 7.01983 15.601 5.9321 14.6479L7.84105 12.7389C8.43539 13.2084 9.18551 13.489 9.99997 13.489C10.8144 13.489 11.5646 13.2084 12.1589 12.7389L14.0679 14.6478C12.9802 15.601 11.5565 16.1797 10 16.1797ZM14.6479 14.0678L12.739 12.1589C13.2084 11.5645 13.489 10.8144 13.489 10C13.489 9.18554 13.2084 8.43542 12.7389 7.84107L14.6479 5.93213C15.601 7.01983 16.1797 8.44354 16.1797 10C16.1797 11.5564 15.6011 12.9801 14.6479 14.0678Z" fill="white"/>
</svg>
