<svg width="32" height="32" viewBox="0 0 32 32" fill="none" xmlns="http://www.w3.org/2000/svg">
<path d="M24 0H8C3.58172 0 0 3.58172 0 8V24C0 28.4183 3.58172 32 8 32H24C28.4183 32 32 28.4183 32 24V8C32 3.58172 28.4183 0 24 0Z" fill="#0E7EE4"/>
<path d="M19.9593 10.9501C19.341 10.3933 18.6126 9.97261 17.8214 9.7154C17.0301 9.45819 16.1936 9.37015 15.3661 9.45699C14.5386 9.54383 13.7386 9.80362 13.018 10.2195C12.2974 10.6354 11.6722 11.1981 11.183 11.8711C10.6938 12.5442 10.3515 13.3125 10.1784 14.1263C10.0052 14.9401 10.005 15.7812 10.1778 16.5951C10.3506 17.409 10.6925 18.1775 11.1813 18.8507C11.6702 19.524 12.2951 20.087 13.0155 20.5032C13.067 20.5292 13.1104 20.5689 13.1407 20.618C13.1711 20.6671 13.1872 20.7236 13.1874 20.7813V21.3126C13.1885 21.5271 13.2337 21.739 13.3203 21.9352C13.4068 22.1315 13.5329 22.3078 13.6905 22.4532C13.5676 22.6786 13.5021 22.9308 13.4999 23.1876V23.8126C13.4999 24.227 13.6645 24.6244 13.9575 24.9174C14.2506 25.2105 14.648 25.3751 15.0624 25.3751H15.3749C15.3749 25.5408 15.4407 25.6998 15.5579 25.817C15.6752 25.9342 15.8341 26.0001 15.9999 26.0001C16.1656 26.0001 16.3246 25.9342 16.4418 25.817C16.559 25.6998 16.6249 25.5408 16.6249 25.3751H16.9374C17.3518 25.3751 17.7492 25.2105 18.0422 24.9174C18.3353 24.6244 18.4999 24.227 18.4999 23.8126V23.1876C18.4976 22.9308 18.4322 22.6786 18.3093 22.4532C18.4669 22.3078 18.5929 22.1315 18.6795 21.9352C18.7661 21.739 18.8113 21.5271 18.8124 21.3126V20.7813C18.8128 20.7245 18.8288 20.6688 18.8585 20.6204C18.8883 20.5719 18.9307 20.5325 18.9811 20.5063C19.7912 20.0356 20.4783 19.3798 20.9863 18.5927C21.4944 17.8056 21.809 16.9094 21.9044 15.9774C21.9998 15.0454 21.8733 14.104 21.5352 13.2303C21.1971 12.3565 20.6571 11.5752 19.9593 10.9501ZM17.2499 23.8126C17.2499 23.8955 17.217 23.9749 17.1584 24.0335C17.0998 24.0922 17.0203 24.1251 16.9374 24.1251H15.0624C14.9795 24.1251 14.9 24.0922 14.8414 24.0335C14.7828 23.9749 14.7499 23.8955 14.7499 23.8126V23.1876C14.7499 23.1047 14.7828 23.0252 14.8414 22.9666C14.9 22.908 14.9795 22.8751 15.0624 22.8751H16.9374C17.0203 22.8751 17.0998 22.908 17.1584 22.9666C17.217 23.0252 17.2499 23.1047 17.2499 23.1876V23.8126ZM18.353 19.4376C18.1164 19.5742 17.9191 19.7697 17.7806 20.0052C17.642 20.2407 17.5668 20.5081 17.5624 20.7813V21.3126C17.5624 21.3955 17.5295 21.4749 17.4709 21.5335C17.4123 21.5922 17.3328 21.6251 17.2499 21.6251H14.7499C14.667 21.6251 14.5875 21.5922 14.5289 21.5335C14.4703 21.4749 14.4374 21.3955 14.4374 21.3126V20.7813C14.4329 20.5081 14.3578 20.2407 14.2192 20.0052C14.0806 19.7697 13.8834 19.5742 13.6468 19.4376C12.7509 18.9219 12.0507 18.1246 11.6549 17.1697C11.2592 16.2148 11.1901 15.1559 11.4586 14.1577C11.727 13.1595 12.3179 12.2781 13.1392 11.6505C13.9605 11.0229 14.9662 10.6844 15.9999 10.6876C17.033 10.6857 18.0378 11.0252 18.858 11.6533C19.6783 12.2814 20.2681 13.1629 20.5357 14.1607C20.8034 15.1586 20.7338 16.2169 20.338 17.1711C19.9421 18.1254 19.2421 18.9222 18.3468 19.4376H18.353Z" fill="white"/>
<path d="M18.7596 16.2189C18.6521 16.1575 18.5289 16.1294 18.4055 16.1382C18.282 16.147 18.164 16.1922 18.0662 16.2681C17.9685 16.344 17.8956 16.4472 17.8566 16.5647C17.8176 16.6821 17.8143 16.8085 17.8472 16.9278C17.8801 17.0471 17.9476 17.1539 18.0413 17.2347C18.135 17.3156 18.2506 17.3668 18.3734 17.3819C18.4962 17.3971 18.6207 17.3754 18.7312 17.3196C18.8417 17.2639 18.9331 17.1766 18.994 17.0689C19.0752 16.925 19.0961 16.7548 19.0522 16.5955C19.0083 16.4362 18.9031 16.3008 18.7596 16.2189Z" fill="white"/>
<path d="M15.6001 11.9594C15.4343 11.9777 15.2826 12.061 15.1783 12.1911C15.0739 12.3212 15.0256 12.4874 15.0438 12.6532C15.062 12.819 15.1454 12.9707 15.2755 13.075C15.4056 13.1793 15.5718 13.2277 15.7376 13.2094C16.2159 13.1513 16.7 13.2528 17.1148 13.498C17.5295 13.7432 17.8517 14.1186 18.0313 14.5657C18.0965 14.7144 18.217 14.8319 18.3673 14.8932C18.5176 14.9546 18.6859 14.9551 18.8366 14.8946C18.9873 14.8341 19.1085 14.7174 19.1745 14.5691C19.2406 14.4208 19.2464 14.2526 19.1907 14.1001C18.9107 13.3982 18.4072 12.8082 17.7581 12.4212C17.1091 12.0343 16.3506 11.872 15.6001 11.9594Z" fill="white"/>
<path d="M16 8.1875C16.1658 8.1875 16.3247 8.12165 16.4419 8.00444C16.5592 7.88723 16.625 7.72826 16.625 7.5625V6.625C16.625 6.45924 16.5592 6.30027 16.4419 6.18306C16.3247 6.06585 16.1658 6 16 6C15.8342 6 15.6753 6.06585 15.5581 6.18306C15.4408 6.30027 15.375 6.45924 15.375 6.625V7.5625C15.375 7.72826 15.4408 7.88723 15.5581 8.00444C15.6753 8.12165 15.8342 8.1875 16 8.1875Z" fill="white"/>
<path d="M21.7437 8.747L21.0812 9.4095C20.9941 9.49709 20.9349 9.60851 20.9111 9.72969C20.8873 9.85087 20.9 9.97639 20.9474 10.0904C20.9949 10.2044 21.0751 10.3018 21.1779 10.3702C21.2807 10.4387 21.4014 10.4752 21.5249 10.4751C21.69 10.4752 21.8484 10.4101 21.9655 10.2939L22.628 9.63138C22.6861 9.57331 22.7322 9.50437 22.7636 9.4285C22.795 9.35263 22.8112 9.27131 22.8112 9.18919C22.8112 9.10707 22.795 9.02575 22.7636 8.94988C22.7322 8.87401 22.6861 8.80507 22.628 8.747C22.57 8.68893 22.501 8.64287 22.4252 8.61144C22.3493 8.58002 22.268 8.56384 22.1859 8.56384C22.1037 8.56384 22.0224 8.58002 21.9465 8.61144C21.8707 8.64287 21.8017 8.68893 21.7437 8.747Z" fill="white"/>
<path d="M24.75 14.75H23.8125C23.6467 14.75 23.4878 14.8158 23.3706 14.9331C23.2533 15.0503 23.1875 15.2092 23.1875 15.375C23.1875 15.5408 23.2533 15.6997 23.3706 15.8169C23.4878 15.9342 23.6467 16 23.8125 16H24.75C24.9158 16 25.0747 15.9342 25.1919 15.8169C25.3092 15.6997 25.375 15.5408 25.375 15.375C25.375 15.2092 25.3092 15.0503 25.1919 14.9331C25.0747 14.8158 24.9158 14.75 24.75 14.75Z" fill="white"/>
<path d="M21.9655 20.4563C21.8482 20.339 21.6892 20.2732 21.5233 20.2732C21.3574 20.2732 21.1984 20.339 21.0811 20.4563C20.9638 20.5736 20.8979 20.7327 20.8979 20.8985C20.8979 21.0644 20.9638 21.2234 21.0811 21.3407L21.7436 22.0032C21.8018 22.0617 21.8709 22.1081 21.9471 22.1397C22.0232 22.1714 22.1049 22.1876 22.1874 22.1876C22.3112 22.1877 22.4324 22.151 22.5353 22.0821C22.6383 22.0132 22.7185 21.9153 22.7657 21.8008C22.8129 21.6863 22.825 21.5603 22.8005 21.4389C22.776 21.3175 22.716 21.2061 22.628 21.1188L21.9655 20.4563Z" fill="white"/>
<path d="M10.0341 20.4563L9.37164 21.1188C9.25436 21.2361 9.18848 21.3952 9.18848 21.561C9.18848 21.7269 9.25436 21.8859 9.37164 22.0032C9.48891 22.1205 9.64797 22.1864 9.81382 22.1864C9.97968 22.1864 10.1387 22.1205 10.256 22.0032L10.9185 21.3407C10.9766 21.2826 11.0226 21.2137 11.0541 21.1378C11.0855 21.0619 11.1017 20.9806 11.1017 20.8985C11.1017 20.8164 11.0855 20.7351 11.0541 20.6592C11.0226 20.5833 10.9766 20.5144 10.9185 20.4563C10.8604 20.3983 10.7915 20.3522 10.7156 20.3208C10.6398 20.2893 10.5584 20.2732 10.4763 20.2732C10.3942 20.2732 10.3129 20.2893 10.237 20.3208C10.1611 20.3522 10.0922 20.3983 10.0341 20.4563Z" fill="white"/>
<path d="M8.1875 14.75H7.25C7.08424 14.75 6.92527 14.8158 6.80806 14.9331C6.69085 15.0503 6.625 15.2092 6.625 15.375C6.625 15.5408 6.69085 15.6997 6.80806 15.8169C6.92527 15.9342 7.08424 16 7.25 16H8.1875C8.35326 16 8.51223 15.9342 8.62944 15.8169C8.74665 15.6997 8.8125 15.5408 8.8125 15.375C8.8125 15.2092 8.74665 15.0503 8.62944 14.9331C8.51223 14.8158 8.35326 14.75 8.1875 14.75Z" fill="white"/>
<path d="M10.0341 10.2939C10.1513 10.4101 10.3097 10.4752 10.4748 10.4751C10.5983 10.4752 10.719 10.4387 10.8218 10.3702C10.9246 10.3018 11.0048 10.2044 11.0522 10.0904C11.0997 9.97639 11.1123 9.85087 11.0885 9.72969C11.0647 9.60851 11.0056 9.49709 10.9185 9.4095L10.256 8.747C10.1979 8.68893 10.129 8.64287 10.0531 8.61144C9.97726 8.58002 9.89594 8.56384 9.81382 8.56384C9.7317 8.56384 9.65038 8.58002 9.57451 8.61144C9.49864 8.64287 9.4297 8.68893 9.37164 8.747C9.31357 8.80507 9.2675 8.87401 9.23608 8.94988C9.20465 9.02575 9.18848 9.10707 9.18848 9.18919C9.18848 9.27131 9.20465 9.35263 9.23608 9.4285C9.2675 9.50437 9.31357 9.57331 9.37164 9.63138L10.0341 10.2939Z" fill="white"/>
</svg>
