<svg width="20" height="20" viewBox="0 0 20 20" fill="none" xmlns="http://www.w3.org/2000/svg">
<circle cx="10" cy="10" r="10" fill="#F25C62"/>
<path d="M15.5072 10.0466C15.5121 9.96606 15.5142 9.88906 15.5142 9.8125C15.5142 7.15906 13.318 5 10.6195 5C8.642 5 6.86312 6.17731 6.10669 7.9575C4.34312 8.20294 3 9.61125 3 11.2707C3 13.1204 4.64062 14.625 6.65662 14.625H14.5811C15.915 14.625 17 13.5566 17 12.2432C17 11.265 16.4024 10.4088 15.5072 10.0466ZM14.5815 13.75H6.65662C5.12319 13.75 3.875 12.6379 3.875 11.2707C3.875 9.98313 5.00419 8.89856 6.44619 8.80144C6.61944 8.78963 6.76994 8.67631 6.82856 8.51225C7.3925 6.93506 8.91588 5.875 10.6191 5.875C12.8354 5.875 14.6388 7.64119 14.6388 9.8125C14.6388 9.95994 14.6279 10.1148 14.6042 10.3007C14.5763 10.5234 14.7211 10.7312 14.9394 10.782C15.6376 10.9443 16.125 11.545 16.125 12.2432C16.125 13.0741 15.4324 13.75 14.5815 13.75Z" fill="white"/>
<path d="M11.6219 8.6283C11.4509 8.45723 11.1744 8.45723 11.0033 8.6283L10.0001 9.63148L8.99692 8.6283C8.82586 8.45723 8.54936 8.45723 8.3783 8.6283C8.20723 8.79936 8.20723 9.07586 8.3783 9.24692L9.38148 10.2501L8.3783 11.2533C8.20723 11.4244 8.20723 11.7009 8.3783 11.8719C8.46361 11.9572 8.57561 12.0001 8.68761 12.0001C8.79961 12.0001 8.91161 11.9572 8.99692 11.8719L10.0001 10.8687L11.0033 11.8719C11.0886 11.9572 11.2006 12.0001 11.3126 12.0001C11.4246 12.0001 11.5366 11.9572 11.6219 11.8719C11.793 11.7009 11.793 11.4244 11.6219 11.2533L10.6187 10.2501L11.6219 9.24692C11.793 9.07586 11.793 8.79936 11.6219 8.6283Z" fill="white"/>
</svg>
