<svg width="20" height="20" viewBox="0 0 20 20" fill="none" xmlns="http://www.w3.org/2000/svg">
<circle cx="10" cy="10" r="9.5" fill="white" stroke="#F25C62"/>
<path d="M15.4854 13.0076C14.4114 11.9336 14.4818 12.0016 14.4516 11.9793L11.6086 9.88032L12.7115 8.77756C13.5982 9.09353 14.6021 8.87509 15.2777 8.19945C16.0138 7.46337 16.207 6.33802 15.7585 5.39918C15.654 5.18044 15.3641 5.13089 15.1929 5.30215L14.2837 6.21132C14.1467 6.34833 13.9238 6.34836 13.7867 6.21132C13.6493 6.07395 13.6493 5.85167 13.7867 5.7143L14.6959 4.80511C14.8673 4.63371 14.8174 4.34389 14.5988 4.23949C13.66 3.79099 12.5347 3.98421 11.7986 4.72027C11.1228 5.39607 10.9046 6.40001 11.2205 7.28647L9.94854 8.55826C9.68958 8.35684 10.0313 8.70088 7.59227 6.11464L7.84795 5.85896C8.00967 5.69726 7.97597 5.42651 7.78027 5.30909L5.8979 4.17966C5.40447 3.8836 4.77571 3.96099 4.36882 4.36789C3.96194 4.77476 3.88453 5.40357 4.18059 5.89697L5.31002 7.77936C5.42763 7.97544 5.6985 8.00844 5.85989 7.84705L6.10101 7.60592C8.52741 10.1788 8.20805 9.8293 8.39986 10.0759C8.40441 10.0818 8.40947 10.0869 8.4143 10.0924L7.28646 11.2202C6.40005 10.9043 5.39604 11.1225 4.72028 11.7983C3.98421 12.5343 3.79099 13.6597 4.23951 14.5985C4.34407 14.8173 4.63389 14.8668 4.80515 14.6956L5.71432 13.7864C5.8514 13.6493 6.07432 13.6494 6.21136 13.7864C6.34872 13.9237 6.34872 14.146 6.21136 14.2834L5.30214 15.1926C5.13072 15.364 5.1806 15.6538 5.39918 15.7582C5.73663 15.9194 6.09808 15.9977 6.45701 15.9977C7.09662 15.9977 7.72793 15.7489 8.19945 15.2774C8.87524 14.6017 9.09342 13.5977 8.77756 12.7112L9.74075 11.7481L11.9833 14.4734C12.0004 14.4941 11.9441 14.4365 12.9471 15.4395C13.3123 15.8046 13.7977 15.9939 14.275 15.9939C14.6253 15.9939 14.9712 15.8919 15.2618 15.6827C16.1484 15.0441 16.253 13.7751 15.4854 13.0076ZM6.3641 6.8604C6.22786 6.71595 5.99946 6.71342 5.85989 6.85301L5.68113 7.03175L4.78331 5.53533C4.65351 5.319 4.68743 5.04331 4.86583 4.8649C5.04424 4.68647 5.31993 4.65258 5.53624 4.78238L7.03266 5.68022L6.8539 5.85893C6.71948 5.99335 6.7163 6.21029 6.84673 6.34857C9.6492 9.32019 9.20836 8.87302 9.44761 9.05912L8.91424 9.59244C8.72991 9.35539 9.15792 9.82285 6.3641 6.8604ZM8.11458 12.3801C8.00925 12.4855 7.98176 12.6457 8.04598 12.7801C8.36634 13.4507 8.22825 14.2546 7.70243 14.7804C7.36554 15.1173 6.9146 15.295 6.45762 15.295C6.37542 15.295 6.29306 15.2892 6.2111 15.2776L6.70835 14.7804C7.12041 14.3683 7.12048 13.7014 6.70835 13.2893C6.29728 12.8782 5.62835 12.8782 5.21728 13.2893L4.72003 13.7865C4.6439 13.249 4.81982 12.6927 5.21728 12.2953C5.74312 11.7694 6.54694 11.6314 7.21753 11.9517C7.35192 12.0159 7.51216 11.9884 7.61754 11.8831L11.8834 7.61752C11.9887 7.51219 12.0162 7.35193 11.952 7.21751C11.6317 6.54694 11.7698 5.74308 12.2956 5.21726C12.6931 4.81976 13.2493 4.64386 13.7869 4.72001L13.2896 5.21726C13.0905 5.41639 12.9808 5.68118 12.9808 5.96281C12.9808 6.24444 13.0905 6.50919 13.2896 6.70836C13.7007 7.11945 14.3696 7.11943 14.7807 6.70836L15.2779 6.21111C15.3541 6.74865 15.1781 7.30494 14.7807 7.70239C14.2548 8.22823 13.451 8.36631 12.7804 8.04596C12.6461 7.98177 12.4858 8.00923 12.3804 8.11456L8.11458 12.3801ZM10.2386 11.2502L11.106 10.3829L11.9901 11.0356L10.9339 12.0918C10.2157 11.2191 10.2605 11.2717 10.2386 11.2502ZM14.8509 15.1123C14.441 15.4076 13.8362 15.3346 13.4441 14.9425L12.5152 14.0137L11.3825 12.6371L12.5619 11.4578L14.0129 12.5291L14.9883 13.5046C15.4342 13.9504 15.4055 14.7129 14.8509 15.1123Z" fill="#F25C62"/>
<path d="M14.4853 13.9414L13.0794 12.5356C12.9422 12.3983 12.7197 12.3983 12.5824 12.5356C12.4452 12.6728 12.4452 12.8953 12.5824 13.0326L13.9882 14.4384C14.1255 14.5756 14.348 14.5756 14.4853 14.4384C14.6225 14.3011 14.6225 14.0786 14.4853 13.9414Z" fill="#F25C62"/>
</svg>
