<svg width="58" height="56" viewBox="0 0 58 56" fill="none" xmlns="http://www.w3.org/2000/svg">
<g clip-path="url(#clip0)">
<g filter="url(#filter0_d)">
<path d="M41.4779 0H16.4927C12.0744 0 8.49268 3.58172 8.49268 8V32C8.49268 36.4183 12.0744 40 16.4927 40H41.4779C45.8962 40 49.4779 36.4183 49.4779 32V8C49.4779 3.58172 45.8962 0 41.4779 0Z" fill="#39B54A"/>
<path d="M37.8488 16.3651C37.8488 15.1701 37.2981 14.0771 36.338 13.3665C35.6167 12.8326 34.7582 12.5813 33.8929 12.6351C33.5768 10.0272 31.3496 7.99988 28.6578 7.99988C25.966 7.99988 23.7388 10.0272 23.4228 12.6351C22.5571 12.5812 21.6988 12.8326 20.9776 13.3665C20.0175 14.0771 19.4668 15.1701 19.4668 16.3651C19.4668 17.5535 20.0405 18.6577 20.9626 19.3525C20.1912 20.2472 19.7628 21.3869 19.7628 22.5983C19.7628 25.3466 21.9986 27.5824 24.7468 27.5824C25.9378 27.5824 27.0646 27.1649 27.9547 26.4137V31.2968C27.9547 31.6851 28.2695 31.9999 28.6578 31.9999C29.0461 31.9999 29.3609 31.6851 29.3609 31.2968V26.4137C30.251 27.1649 31.3778 27.5824 32.5688 27.5824C35.317 27.5824 37.5529 25.3466 37.5529 22.5983C37.5529 21.387 37.1245 20.2472 36.353 19.3525C37.2751 18.6577 37.8488 17.5535 37.8488 16.3651ZM32.5688 26.1762C31.4726 26.1762 30.4517 25.6834 29.7679 24.8243C29.6642 24.6941 29.5193 24.6075 29.3609 24.5745V20.4291C29.3705 20.4205 29.3802 20.4125 29.3893 20.4034L31.405 18.3878C31.6796 18.1132 31.6796 17.668 31.405 17.3934C31.1304 17.1188 30.6852 17.1188 30.4106 17.3934L29.3609 18.443V13.7186C29.3609 13.3303 29.0461 13.0155 28.6578 13.0155C28.2695 13.0155 27.9547 13.3303 27.9547 13.7186V21.1149L26.2253 19.3855C25.9507 19.1109 25.5055 19.1109 25.2309 19.3855C24.9563 19.6601 24.9563 20.1053 25.2309 20.3798L27.7856 22.9345C27.8367 22.9857 27.8939 23.0273 27.9546 23.0594V24.574C27.7963 24.607 27.6514 24.694 27.5477 24.8243C26.8639 25.6834 25.843 26.1761 24.7467 26.1761C22.774 26.1761 21.169 24.5711 21.169 22.5983C21.169 21.4792 21.6785 20.4452 22.5668 19.7614C22.7691 19.6056 22.8711 19.3524 22.8333 19.1C22.7954 18.8475 22.6237 18.6353 22.3846 18.5458C21.4805 18.2071 20.873 17.3308 20.873 16.3651C20.873 15.6204 21.216 14.9394 21.8142 14.4968C22.4158 14.0514 23.1695 13.9208 23.882 14.1385C24.0952 14.2036 24.3266 14.1638 24.5058 14.0312C24.6849 13.8986 24.7906 13.6889 24.7906 13.466V13.2733C24.7906 11.1409 26.5254 9.40613 28.6578 9.40613C30.7901 9.40613 32.525 11.1409 32.525 13.2733V13.466C32.525 13.6889 32.6307 13.8986 32.8098 14.0312C32.9889 14.1638 33.2203 14.2035 33.4335 14.1385C34.146 13.9208 34.8998 14.0515 35.5013 14.4968C36.0995 14.9394 36.4425 15.6204 36.4425 16.3651C36.4425 17.3309 35.8351 18.2072 34.931 18.5458C34.6918 18.6353 34.52 18.8475 34.4822 19.1C34.4444 19.3525 34.5463 19.6057 34.7487 19.7614C35.6371 20.4453 36.1466 21.4793 36.1466 22.5983C36.1466 24.5712 34.5416 26.1762 32.5688 26.1762Z" fill="white"/>
</g>
</g>
<defs>
<filter id="filter0_d" x="-7.50732" y="-8" width="72.9852" height="72" filterUnits="userSpaceOnUse" color-interpolation-filters="sRGB">
<feFlood flood-opacity="0" result="BackgroundImageFix"/>
<feColorMatrix in="SourceAlpha" type="matrix" values="0 0 0 0 0 0 0 0 0 0 0 0 0 0 0 0 0 0 127 0"/>
<feOffset dy="8"/>
<feGaussianBlur stdDeviation="8"/>
<feColorMatrix type="matrix" values="0 0 0 0 0.482331 0 0 0 0 0.808333 0 0 0 0 0.353646 0 0 0 0.24 0"/>
<feBlend mode="normal" in2="BackgroundImageFix" result="effect1_dropShadow"/>
<feBlend mode="normal" in="SourceGraphic" in2="effect1_dropShadow" result="shape"/>
</filter>
<clipPath id="clip0">
<rect width="58" height="56" fill="white"/>
</clipPath>
</defs>
</svg>
