<svg width="40" height="40" viewBox="0 0 40 40" fill="none" xmlns="http://www.w3.org/2000/svg">
<circle cx="20" cy="20" r="20" fill="#EFF2F7"/>
<path d="M12 26V25.35C12 25.01 12.16 24.69 12.41 24.54C14.1 23.53 16.03 23 18 23C18.03 23 18.05 23 18.08 23.01C18.18 22.31 18.38 21.64 18.67 21.03C18.45 21.01 18.23 21 18 21C15.58 21 13.32 21.67 11.39 22.82C10.51 23.34 10 24.32 10 25.35V28H19.26C18.84 27.4 18.51 26.72 18.29 26H12Z" fill="#F9FAFB"/>
<path d="M12 26V25.35C12 25.01 12.16 24.69 12.41 24.54C14.1 23.53 16.03 23 18 23C18.03 23 18.05 23 18.08 23.01C18.18 22.31 18.38 21.64 18.67 21.03C18.45 21.01 18.23 21 18 21C15.58 21 13.32 21.67 11.39 22.82C10.51 23.34 10 24.32 10 25.35V28H19.26C18.84 27.4 18.51 26.72 18.29 26H12Z" fill="url(#paint0_linear)"/>
<path d="M18 20C20.21 20 22 18.21 22 16C22 13.79 20.21 12 18 12C15.79 12 14 13.79 14 16C14 18.21 15.79 20 18 20ZM18 14C19.1 14 20 14.9 20 16C20 17.1 19.1 18 18 18C16.9 18 16 17.1 16 16C16 14.9 16.9 14 18 14Z" fill="#F9FAFB"/>
<path d="M18 20C20.21 20 22 18.21 22 16C22 13.79 20.21 12 18 12C15.79 12 14 13.79 14 16C14 18.21 15.79 20 18 20ZM18 14C19.1 14 20 14.9 20 16C20 17.1 19.1 18 18 18C16.9 18 16 17.1 16 16C16 14.9 16.9 14 18 14Z" fill="url(#paint1_linear)"/>
<path d="M28.75 24C28.75 23.78 28.72 23.58 28.69 23.37L29.83 22.36L28.83 20.63L27.38 21.12C27.06 20.85 26.7 20.64 26.3 20.49L26 19H24L23.7 20.49C23.3 20.64 22.94 20.85 22.62 21.12L21.17 20.63L20.17 22.36L21.31 23.37C21.28 23.58 21.25 23.78 21.25 24C21.25 24.22 21.28 24.42 21.31 24.63L20.17 25.64L21.17 27.37L22.62 26.88C22.94 27.15 23.3 27.36 23.7 27.51L24 29H26L26.3 27.51C26.7 27.36 27.06 27.15 27.38 26.88L28.83 27.37L29.83 25.64L28.69 24.63C28.72 24.42 28.75 24.22 28.75 24ZM25 26C23.9 26 23 25.1 23 24C23 22.9 23.9 22 25 22C26.1 22 27 22.9 27 24C27 25.1 26.1 26 25 26Z" fill="#F9FAFB"/>
<path d="M28.75 24C28.75 23.78 28.72 23.58 28.69 23.37L29.83 22.36L28.83 20.63L27.38 21.12C27.06 20.85 26.7 20.64 26.3 20.49L26 19H24L23.7 20.49C23.3 20.64 22.94 20.85 22.62 21.12L21.17 20.63L20.17 22.36L21.31 23.37C21.28 23.58 21.25 23.78 21.25 24C21.25 24.22 21.28 24.42 21.31 24.63L20.17 25.64L21.17 27.37L22.62 26.88C22.94 27.15 23.3 27.36 23.7 27.51L24 29H26L26.3 27.51C26.7 27.36 27.06 27.15 27.38 26.88L28.83 27.37L29.83 25.64L28.69 24.63C28.72 24.42 28.75 24.22 28.75 24ZM25 26C23.9 26 23 25.1 23 24C23 22.9 23.9 22 25 22C26.1 22 27 22.9 27 24C27 25.1 26.1 26 25 26Z" fill="url(#paint2_linear)"/>
<defs>
<linearGradient id="paint0_linear" x1="10" y1="28" x2="16.8591" y2="19.1411" gradientUnits="userSpaceOnUse">
<stop stop-color="#0E7EE4"/>
<stop offset="1" stop-color="#00A3FF"/>
</linearGradient>
<linearGradient id="paint1_linear" x1="14" y1="20" x2="22.0946" y2="12.0969" gradientUnits="userSpaceOnUse">
<stop stop-color="#0E7EE4"/>
<stop offset="1" stop-color="#00A3FF"/>
</linearGradient>
<linearGradient id="paint2_linear" x1="20.17" y1="29" x2="30.2739" y2="19.4707" gradientUnits="userSpaceOnUse">
<stop stop-color="#0E7EE4"/>
<stop offset="1" stop-color="#00A3FF"/>
</linearGradient>
</defs>
</svg>
