<svg width="12" height="15" viewBox="0 0 12 15" fill="none" xmlns="http://www.w3.org/2000/svg">
<path d="M2.80078 14.3721H9.71191C11.1201 14.3721 11.8652 13.6201 11.8652 12.1982V6.33301C11.8652 5.39648 11.7354 4.95898 11.1475 4.35742L7.8457 1.01465C7.27832 0.433594 6.80664 0.296875 5.95215 0.296875H2.80078C1.39941 0.296875 0.647461 1.04883 0.647461 2.4707V12.1982C0.647461 13.6201 1.39258 14.3721 2.80078 14.3721ZM2.9375 12.9707C2.34277 12.9707 2.04883 12.6631 2.04883 12.0889V2.58691C2.04883 2.0127 2.34277 1.69824 2.94434 1.69824H5.62402V5.11621C5.62402 6.10742 6.10938 6.5791 7.09375 6.5791H10.4639V12.0889C10.4639 12.6631 10.1699 12.9707 9.56836 12.9707H2.9375ZM7.2168 5.38281C6.94336 5.38281 6.82715 5.25977 6.82715 4.99316V1.85547L10.3066 5.38281H7.2168ZM6.86133 7.85059C6.86133 7.52246 6.58789 7.2832 6.25293 7.2832C5.9248 7.2832 5.65137 7.52246 5.65137 7.85059V9.63477L5.70605 10.6123L5.23438 10.1133L4.79004 9.66211C4.69434 9.5459 4.53711 9.47754 4.39355 9.47754C4.0791 9.47754 3.85352 9.69629 3.85352 9.99707C3.85352 10.168 3.91504 10.291 4.04492 10.4072L5.78809 12C5.94531 12.1367 6.08203 12.2119 6.25293 12.2119C6.43066 12.2119 6.56738 12.1367 6.72461 12L8.46777 10.4072C8.59766 10.291 8.65918 10.168 8.65918 9.99707C8.65918 9.69629 8.42676 9.47754 8.11914 9.47754C7.96875 9.47754 7.81152 9.5459 7.72266 9.66211L7.27832 10.1133L6.80664 10.6123L6.86133 9.63477V7.85059Z" fill="#044E92"/>
</svg>
