<svg width="15" height="15" viewBox="0 0 15 15" fill="none" xmlns="http://www.w3.org/2000/svg">
<path d="M6.58105 14.4062H7.89355C8.4541 14.4062 8.8916 14.0645 9.02148 13.5312L9.27441 12.4238L9.4248 12.3691L10.3887 12.9639C10.8604 13.2578 11.4141 13.1826 11.8037 12.7861L12.7129 11.877C13.1094 11.4736 13.1846 10.9268 12.8906 10.4619L12.2891 9.50488L12.3438 9.36133L13.4443 9.1084C13.9775 8.97168 14.3193 8.53418 14.3193 7.98047V6.70898C14.3193 6.15527 13.9775 5.71777 13.4443 5.58789L12.3574 5.32129L12.2959 5.1709L12.8975 4.21387C13.1914 3.75586 13.1162 3.20898 12.7197 2.79199L11.8105 1.88965C11.4209 1.49316 10.8672 1.41797 10.3955 1.71191L9.43848 2.2998L9.27441 2.23828L9.02148 1.13086C8.8916 0.597656 8.4541 0.255859 7.89355 0.255859H6.58105C6.02734 0.255859 5.58984 0.604492 5.45996 1.13086L5.20703 2.23828L5.04297 2.2998L4.0791 1.71191C3.60742 1.4248 3.05371 1.49316 2.66406 1.88965L1.76172 2.79199C1.3584 3.20898 1.29004 3.75586 1.58398 4.21387L2.17871 5.1709L2.12402 5.32129L1.03027 5.58789C0.49707 5.71777 0.155273 6.15527 0.155273 6.70898V7.98047C0.155273 8.53418 0.503906 8.97852 1.03027 9.1084L2.13086 9.36133L2.18555 9.50488L1.59082 10.4619C1.29004 10.9268 1.36523 11.4736 1.76172 11.877L2.6709 12.7861C3.06055 13.1826 3.62109 13.2578 4.08594 12.9639L5.0498 12.3691L5.20703 12.4238L5.45996 13.5312C5.58984 14.0645 6.02734 14.4062 6.58105 14.4062ZM6.77246 13.1416C6.66309 13.1416 6.61523 13.0938 6.59473 12.998L6.21875 11.4121C5.79492 11.3164 5.3916 11.1523 5.05664 10.9336L3.66211 11.7881C3.58691 11.8428 3.50488 11.8359 3.42969 11.7607L2.78711 11.1182C2.71191 11.043 2.71191 10.9678 2.75977 10.8857L3.62109 9.49805C3.42285 9.16309 3.25195 8.7666 3.15625 8.34961L1.56348 7.97363C1.47461 7.95996 1.41992 7.90527 1.41992 7.7959V6.89355C1.41992 6.77734 1.46777 6.72949 1.56348 6.70898L3.14941 6.33301C3.25195 5.89551 3.43652 5.48535 3.61426 5.17773L2.75977 3.79004C2.70508 3.70117 2.69824 3.62598 2.77344 3.55078L3.42285 2.91504C3.50488 2.83984 3.57324 2.83301 3.66211 2.8877L5.04297 3.72852C5.34375 3.54395 5.79492 3.35938 6.21875 3.25L6.59473 1.66406C6.61523 1.56836 6.66309 1.52051 6.77246 1.52051H7.70215C7.81152 1.52051 7.86621 1.56836 7.87988 1.66406L8.2627 3.25684C8.7002 3.35938 9.08984 3.53711 9.4248 3.73535L10.8057 2.89453C10.9014 2.83984 10.9697 2.84668 11.0518 2.92188L11.6943 3.55762C11.7695 3.63281 11.7695 3.70801 11.7148 3.79688L10.8672 5.17773C11.0381 5.48535 11.2295 5.89551 11.3252 6.32617L12.9111 6.70898C13.0137 6.72949 13.0547 6.77734 13.0547 6.89355V7.7959C13.0547 7.90527 13.0068 7.95996 12.9111 7.97363L11.3184 8.34961C11.2227 8.7666 11.0518 9.16992 10.8535 9.49805L11.708 10.8789C11.7627 10.9678 11.7627 11.043 11.6875 11.1113L11.0449 11.7539C10.9629 11.8359 10.8877 11.8359 10.8057 11.7881L9.4248 10.9336C9.08301 11.1523 8.70703 11.3096 8.2627 11.4121L7.87988 12.998C7.86621 13.0938 7.81152 13.1416 7.70215 13.1416H6.77246ZM7.2373 9.78516C8.58398 9.78516 9.68457 8.68457 9.68457 7.33105C9.68457 5.99121 8.58398 4.89062 7.2373 4.89062C5.89746 4.89062 4.79004 5.99121 4.79004 7.33105C4.79004 8.67773 5.89746 9.78516 7.2373 9.78516ZM7.2373 8.61621C6.54004 8.61621 5.96582 8.03516 5.96582 7.33105C5.96582 6.64062 6.54004 6.06641 7.2373 6.06641C7.92773 6.06641 8.50195 6.64062 8.50195 7.33105C8.50195 8.03516 7.92773 8.61621 7.2373 8.61621Z" fill="#044E92"/>
</svg>
