<svg width="24" height="24" viewBox="0 0 24 24" fill="none" xmlns="http://www.w3.org/2000/svg">
  <path d="M16.5277 17.9687H7.99099C4.83694 17.9687 2.93387 14.4924 4.64077 11.8858C5.3201 10.848 6.01565 10.681 6.01565 10.5382C6.01565 5.95932 12.1439 4.40207 14.403 8.34213C16.3551 7.33859 18.5923 9.24436 17.8692 11.3281C21.4088 12.7739 20.2466 17.9687 16.5277 17.9687ZM6.95327 10.5382C6.95327 10.8415 6.93923 11.1661 6.55142 11.3694C3.78958 12.8166 4.80581 17.031 7.99099 17.031H16.5277C19.3392 17.031 20.0774 13.0807 17.3865 12.1479C16.9695 12.0034 16.7631 11.532 16.9413 11.1275C17.5388 9.77231 15.9652 8.47324 14.7376 9.22922C14.3592 9.46225 13.8621 9.3259 13.6579 8.93344C11.9697 5.69223 6.95327 6.83725 6.95327 10.5382Z" fill="#00A3FF" />
  <path d="M7.68506 14.5875V13.0297C7.68506 12.5516 7.81653 12.2007 8.07983 11.9774C8.34302 11.754 8.68628 11.6423 9.10986 11.6423C9.54517 11.6423 9.90234 11.7462 10.1814 11.9539C10.4605 12.1617 10.5999 12.4477 10.5999 12.8122C10.5999 12.9807 10.5643 13.0954 10.493 13.1561C10.4218 13.2169 10.3031 13.2473 10.1368 13.2473C9.84009 13.2473 9.68567 13.1552 9.67383 12.9709C9.66199 12.6182 9.48584 12.4418 9.14551 12.4418C8.78931 12.4418 8.61121 12.6379 8.61121 13.0297V14.5876C8.61121 14.9794 8.79126 15.1755 9.15137 15.1755C9.26221 15.1755 9.35425 15.1578 9.42749 15.1225C9.50061 15.0872 9.55298 15.0334 9.58472 14.9609C9.61633 14.8884 9.63721 14.8286 9.6471 14.7816C9.65686 14.7346 9.66577 14.6699 9.67383 14.5876C9.68958 14.4034 9.84192 14.3112 10.1309 14.3112C10.301 14.3112 10.4218 14.3417 10.493 14.4024C10.5643 14.4632 10.5999 14.5778 10.5999 14.7463C10.5999 15.1265 10.4603 15.4263 10.1814 15.6458C9.90234 15.8653 9.54504 15.9749 9.10974 15.9749C8.68628 15.9749 8.3429 15.8632 8.07983 15.6398C7.81653 15.4165 7.68506 15.0657 7.68506 14.5875Z" fill="#00A3FF" />
  <path d="M11.2588 14.5875V13.0297C11.2588 12.5516 11.3914 12.2007 11.6566 11.9774C11.9216 11.754 12.2739 11.6423 12.7132 11.6423C13.1565 11.6423 13.5107 11.754 13.7759 11.9774C14.041 12.2007 14.1737 12.5516 14.1737 13.0297V14.5875C14.1737 15.0657 14.041 15.4165 13.7759 15.6398C13.5107 15.8632 13.1565 15.9749 12.7132 15.9749C12.2739 15.9749 11.9216 15.8632 11.6566 15.6398C11.3914 15.4165 11.2588 15.0657 11.2588 14.5875ZM12.1849 14.5875C12.1849 14.9794 12.361 15.1754 12.7132 15.1754C13.0694 15.1754 13.2475 14.9794 13.2475 14.5875V13.0297C13.2475 12.6379 13.0694 12.4418 12.7132 12.4418C12.361 12.4418 12.1849 12.6378 12.1849 13.0297V14.5875Z" fill="#00A3FF" />
  <path d="M14.853 15.7666V15.4169C14.853 15.3136 14.8917 15.2102 14.9692 15.1068C15.0466 15.0036 15.1403 14.911 15.25 14.8293L15.5821 14.5829C15.697 14.5009 15.7942 14.4151 15.8737 14.3257C15.9531 14.2364 15.9928 14.1494 15.9928 14.0649C15.9928 13.9972 15.9696 13.9375 15.9232 13.8855C15.8767 13.8337 15.807 13.8076 15.7142 13.8076C15.6335 13.8076 15.5675 13.83 15.5162 13.8747C15.4648 13.9192 15.4392 13.9899 15.4392 14.0866C15.4392 14.1437 15.4124 14.1933 15.3589 14.2354C15.3053 14.2775 15.2345 14.2986 15.1464 14.2986C14.9797 14.2986 14.8965 14.2018 14.8965 14.0083C14.8965 13.8006 14.9774 13.6338 15.1395 13.5085C15.3016 13.3831 15.4919 13.3203 15.7106 13.3203C15.9359 13.3203 16.1333 13.3858 16.3028 13.5169C16.4725 13.6479 16.5574 13.8245 16.5574 14.0468C16.5574 14.1917 16.5185 14.3282 16.4409 14.4561C16.3634 14.5841 16.27 14.6917 16.161 14.7785C16.0519 14.8655 15.9423 14.9452 15.832 15.0177C15.7217 15.0901 15.6274 15.1608 15.5492 15.2295C15.4711 15.2985 15.432 15.3619 15.432 15.4198V15.4524H16.3862C16.4322 15.4524 16.4723 15.4762 16.5063 15.5241C16.5404 15.5718 16.5574 15.628 16.5574 15.6924C16.5574 15.7569 16.5404 15.8142 16.5067 15.8644C16.4729 15.9146 16.4331 15.9397 16.3873 15.9397H15.0991C15.0436 15.9397 14.9888 15.9229 14.9344 15.8892C14.8801 15.8556 14.853 15.8147 14.853 15.7666Z" fill="#00A3FF" />
</svg>
