<svg width="32" height="32" viewBox="0 0 32 32" fill="none" xmlns="http://www.w3.org/2000/svg">
<g clip-path="url(#clip0)">
<path d="M30.6027 19.8805L26.86 20.5091L22.5376 18.0529L28.9147 15.2862L22.5389 12.5188L26.86 10.0636L30.6027 10.6922L30.9477 8.70174L28.0591 8.21631L29.0763 5.51122L27.1526 4.81021L25.8343 8.31475L21.5132 10.7699L22.2665 3.95193L16.6427 8.00401V3.73787L19.0673 0.860876L17.4892 -0.428558L15.6168 1.79135L13.7444 -0.428558L12.1662 0.860876L14.5908 3.73686V8.003L8.9696 3.95193L9.72317 10.7712L5.39953 8.31475L4.08143 4.81021L2.15776 5.51122L3.17448 8.21631L0.285645 8.70174L0.630879 10.6919L4.37357 10.0634L8.69567 12.519L2.3214 15.2862L8.69696 18.0524L4.37357 20.5088L0.630879 19.8805L0.285645 21.8707L3.17448 22.3562L2.15699 25.0612L4.08066 25.7623L5.39876 22.2577L9.72215 19.801L8.96884 26.6188L14.5908 22.5687V26.8348L12.1662 29.7106L13.7452 31L15.6176 28.7804L17.4899 31L19.0689 29.7106L16.6427 26.8343V22.5682L22.2665 26.62L21.5135 19.8043L25.8338 22.2592L27.1521 25.7638L29.0758 25.0628L28.0591 22.3562L30.9477 21.8707L30.6027 19.8805ZM23.8291 15.2862L20.3362 16.8008L17.6687 15.2862L20.3362 13.7701L23.8291 15.2862ZM19.7237 8.28699L19.3102 12.0212L16.6427 13.5374V10.5066L19.7237 8.28699ZM11.513 8.28724L14.5908 10.5049V13.5374L11.9254 12.0228L11.513 8.28724ZM7.40733 15.2862L10.8974 13.7716L13.5649 15.2862L10.8992 16.8008L7.40733 15.2862ZM11.513 22.2837L11.9256 18.5497L14.5913 17.0351V20.0661L11.513 22.2837ZM19.7242 22.2837L16.6427 20.0643V17.0351L19.3102 18.5515L19.7242 22.2837Z" fill="#62B4FF"/>
</g>
<defs>
<clipPath id="clip0">
<rect width="32" height="32" fill="white"/>
</clipPath>
</defs>
</svg>
