<svg width="16" height="16" viewBox="0 0 16 16" fill="none" xmlns="http://www.w3.org/2000/svg">
<path d="M5.79037 6.81378C5.79037 6.30235 5.47005 5.69203 4.81122 4.94828C4.36169 4.44085 3.91766 4.05953 3.89901 4.04363L3.61394 3.79964L3.32887 4.04363C3.31021 4.05953 2.86618 4.44085 2.41677 4.94828C1.75782 5.69203 1.4375 6.30235 1.4375 6.81378C1.4375 8.00408 2.4138 8.97248 3.61394 8.97248C4.81408 8.97248 5.79037 8.00397 5.79037 6.81378ZM3.61394 8.09541C2.89742 8.09541 2.31446 7.52046 2.31446 6.81367C2.31446 6.37044 3.00248 5.54772 3.61371 4.96785C4.21555 5.54097 4.91341 6.37525 4.91341 6.81367C4.91341 7.52046 4.33045 8.09541 3.61394 8.09541Z" fill="#F9FAFB"/>
<path d="M5.79037 6.81378C5.79037 6.30235 5.47005 5.69203 4.81122 4.94828C4.36169 4.44085 3.91766 4.05953 3.89901 4.04363L3.61394 3.79964L3.32887 4.04363C3.31021 4.05953 2.86618 4.44085 2.41677 4.94828C1.75782 5.69203 1.4375 6.30235 1.4375 6.81378C1.4375 8.00408 2.4138 8.97248 3.61394 8.97248C4.81408 8.97248 5.79037 8.00397 5.79037 6.81378ZM3.61394 8.09541C2.89742 8.09541 2.31446 7.52046 2.31446 6.81367C2.31446 6.37044 3.00248 5.54772 3.61371 4.96785C4.21555 5.54097 4.91341 6.37525 4.91341 6.81367C4.91341 7.52046 4.33045 8.09541 3.61394 8.09541Z" fill="url(#paint0_linear)"/>
<path d="M13.3697 1.84308C12.8228 1.22613 12.2829 0.762985 12.2603 0.74353L11.9753 0.5L11.6904 0.74353C11.6677 0.762985 11.1279 1.22613 10.5809 1.84308C9.78916 2.73606 9.4043 3.46265 9.4043 4.06449C9.4043 5.46914 10.5576 6.61183 11.9753 6.61183C13.3929 6.61183 14.5462 5.46914 14.5462 4.06449C14.5464 3.46276 14.1614 2.73606 13.3697 1.84308ZM11.9753 5.73487C11.0413 5.73487 10.2813 4.98551 10.2813 4.06449C10.2813 3.44685 11.2272 2.36161 11.9753 1.66512C12.7234 2.36161 13.6693 3.44685 13.6693 4.06449C13.6693 4.98563 12.9094 5.73487 11.9753 5.73487Z" fill="#F9FAFB"/>
<path d="M13.3697 1.84308C12.8228 1.22613 12.2829 0.762985 12.2603 0.74353L11.9753 0.5L11.6904 0.74353C11.6677 0.762985 11.1279 1.22613 10.5809 1.84308C9.78916 2.73606 9.4043 3.46265 9.4043 4.06449C9.4043 5.46914 10.5576 6.61183 11.9753 6.61183C13.3929 6.61183 14.5462 5.46914 14.5462 4.06449C14.5464 3.46276 14.1614 2.73606 13.3697 1.84308ZM11.9753 5.73487C11.0413 5.73487 10.2813 4.98551 10.2813 4.06449C10.2813 3.44685 11.2272 2.36161 11.9753 1.66512C12.7234 2.36161 13.6693 3.44685 13.6693 4.06449C13.6693 4.98563 12.9094 5.73487 11.9753 5.73487Z" fill="url(#paint1_linear)"/>
<path d="M9.07075 5.72193L8.78568 5.47794L8.5006 5.72193C8.46124 5.75557 7.52534 6.55929 6.57479 7.63229C5.25254 9.12517 4.58203 10.3708 4.58203 11.3348C4.58203 13.6315 6.46779 15.5 8.78568 15.5C11.1037 15.5 12.9894 13.6315 12.9894 11.3348C12.9894 10.3708 12.3189 9.12517 10.9966 7.63229C10.0461 6.55929 9.11023 5.75557 9.07075 5.72193ZM8.78568 14.623C6.9513 14.623 5.45899 13.1479 5.45899 11.3348C5.45899 9.94182 7.64607 7.67257 8.78579 6.63986C9.92562 7.672 12.1125 9.9401 12.1125 11.3348C12.1125 13.1479 10.62 14.623 8.78568 14.623Z" fill="#F9FAFB"/>
<path d="M9.07075 5.72193L8.78568 5.47794L8.5006 5.72193C8.46124 5.75557 7.52534 6.55929 6.57479 7.63229C5.25254 9.12517 4.58203 10.3708 4.58203 11.3348C4.58203 13.6315 6.46779 15.5 8.78568 15.5C11.1037 15.5 12.9894 13.6315 12.9894 11.3348C12.9894 10.3708 12.3189 9.12517 10.9966 7.63229C10.0461 6.55929 9.11023 5.75557 9.07075 5.72193ZM8.78568 14.623C6.9513 14.623 5.45899 13.1479 5.45899 11.3348C5.45899 9.94182 7.64607 7.67257 8.78579 6.63986C9.92562 7.672 12.1125 9.9401 12.1125 11.3348C12.1125 13.1479 10.62 14.623 8.78568 14.623Z" fill="url(#paint2_linear)"/>
<path d="M9.00928 13.6924C10.2045 13.6924 11.1769 12.8158 11.1769 11.7383H10.2998C10.2998 12.3322 9.72087 12.8153 9.00928 12.8153V13.6924Z" fill="#F9FAFB"/>
<path d="M9.00928 13.6924C10.2045 13.6924 11.1769 12.8158 11.1769 11.7383H10.2998C10.2998 12.3322 9.72087 12.8153 9.00928 12.8153V13.6924Z" fill="url(#paint3_linear)"/>
<defs>
<linearGradient id="paint0_linear" x1="1.4375" y1="8.97248" x2="6.57353" y2="4.75288" gradientUnits="userSpaceOnUse">
<stop stop-color="#0E7EE4"/>
<stop offset="1" stop-color="#00A3FF"/>
</linearGradient>
<linearGradient id="paint1_linear" x1="9.4043" y1="6.61183" x2="15.4724" y2="1.62752" gradientUnits="userSpaceOnUse">
<stop stop-color="#0E7EE4"/>
<stop offset="1" stop-color="#00A3FF"/>
</linearGradient>
<linearGradient id="paint2_linear" x1="4.58203" y1="15.5" x2="14.5267" y2="7.35491" gradientUnits="userSpaceOnUse">
<stop stop-color="#0E7EE4"/>
<stop offset="1" stop-color="#00A3FF"/>
</linearGradient>
<linearGradient id="paint3_linear" x1="9.00928" y1="13.6924" x2="10.9808" y2="11.5572" gradientUnits="userSpaceOnUse">
<stop stop-color="#0E7EE4"/>
<stop offset="1" stop-color="#00A3FF"/>
</linearGradient>
</defs>
</svg>
