<svg width="17" height="16" viewBox="0 0 17 16" fill="none" xmlns="http://www.w3.org/2000/svg">
<path d="M15.3533 5.04799C14.8347 4.49296 14.1553 4.13063 13.4149 4.00865C12.9115 2.87798 11.7887 2.13815 10.5303 2.13815C10.2035 2.13815 9.88513 2.18701 9.57929 2.28379C8.88717 1.35966 7.78772 0.800003 6.6207 0.800003C4.869 0.800003 3.36472 2.03868 3.00846 3.7258C1.67609 4.30996 0.799805 5.63426 0.799805 7.1075C0.799805 9.14329 2.45603 10.7995 4.49185 10.7995H12.8552C14.74 10.7995 16.2735 9.26608 16.2735 7.38119C16.2735 6.51164 15.9467 5.68304 15.3533 5.04799ZM12.8552 9.83241H4.49185C2.9893 9.83241 1.76691 8.61002 1.76691 7.1075C1.76691 5.94773 2.50264 4.91302 3.59764 4.53276C3.77079 4.47265 3.89503 4.31982 3.91857 4.13806C4.09362 2.78641 5.25526 1.76714 6.6207 1.76714C7.58529 1.76714 8.48739 2.2853 8.97497 3.11934C9.10135 3.33557 9.3719 3.41953 9.59839 3.31279C9.89094 3.17506 10.2045 3.10525 10.5303 3.10525C11.4769 3.10525 12.3128 3.70851 12.6105 4.60641C12.6721 4.79216 12.8395 4.92247 13.0347 4.93656C14.3085 5.02855 15.3064 6.10234 15.3064 7.38122C15.3064 8.73281 14.2068 9.83241 12.8552 9.83241ZM4.51023 5.68667C4.59781 5.93893 4.46432 6.21447 4.21206 6.30205C3.86982 6.42092 3.63986 6.74459 3.63986 7.10747C3.63986 7.35723 3.74869 7.59347 3.93843 7.75564C4.1414 7.92918 4.1653 8.23442 3.99177 8.43742C3.89615 8.5493 3.76048 8.60679 3.624 8.60679C3.51281 8.60679 3.40114 8.56868 3.30999 8.4908C2.90501 8.14457 2.67276 7.64038 2.67276 7.1075C2.67276 6.33312 3.16387 5.64233 3.89482 5.3885C4.14711 5.30083 4.42265 5.43438 4.51023 5.68667ZM4.52226 11.4536C4.39049 11.4536 4.2644 11.5074 4.17322 11.6025C3.37282 12.4373 2.98308 13.1985 3.01484 13.8648C3.05174 14.6383 3.68556 15.1999 4.52196 15.2H4.52229C5.35853 15.2 5.9925 14.6387 6.02967 13.8653C6.06171 13.1989 5.67197 12.4376 4.87132 11.6025C4.78011 11.5074 4.65403 11.4536 4.52226 11.4536ZM5.06366 13.8189C5.04431 14.2212 4.57584 14.2329 4.52217 14.2329C4.52214 14.2329 4.52214 14.2329 4.52211 14.2329C4.46873 14.2329 4.00002 14.2212 3.98083 13.8187C3.97376 13.6706 4.02154 13.293 4.52226 12.6676C5.02316 13.2932 5.07079 13.6708 5.06366 13.8189ZM8.54539 11.4536C8.41362 11.4536 8.28753 11.5074 8.19635 11.6025C7.39592 12.4373 7.00618 13.1985 7.03797 13.8648C7.07487 14.6383 7.70869 15.1999 8.54509 15.2H8.54542C9.38166 15.2 10.0156 14.6387 10.0528 13.8653C10.0848 13.1989 9.6951 12.4376 8.89442 11.6025C8.80321 11.5074 8.67716 11.4536 8.54539 11.4536ZM9.08682 13.8189C9.06748 14.2212 8.599 14.2329 8.54533 14.2329C8.5453 14.2329 8.5453 14.2329 8.54527 14.2329C8.4919 14.2329 8.02318 14.2212 8.00396 13.8187C7.99692 13.6706 8.04458 13.2931 8.54542 12.6676C9.04629 13.2932 9.09392 13.6708 9.08682 13.8189ZM12.5685 11.4536C12.4368 11.4536 12.3107 11.5074 12.2195 11.6025C11.4191 12.4373 11.0293 13.1985 11.0611 13.8647C11.098 14.6383 11.7318 15.1999 12.5682 15.2H12.5686C13.4048 15.2 14.0388 14.6387 14.0759 13.8653C14.108 13.1989 13.7182 12.4376 12.9176 11.6025C12.8263 11.5074 12.7003 11.4536 12.5685 11.4536ZM13.1099 13.8189C13.0906 14.2213 12.6221 14.2329 12.5685 14.2329H12.5684C12.515 14.2329 12.0463 14.2212 12.0271 13.8187C12.0201 13.6706 12.0677 13.2931 12.5685 12.6676C13.0694 13.2932 13.1171 13.6708 13.1099 13.8189Z" fill="#F9FAFB"/>
<path d="M15.3533 5.04799C14.8347 4.49296 14.1553 4.13063 13.4149 4.00865C12.9115 2.87798 11.7887 2.13815 10.5303 2.13815C10.2035 2.13815 9.88513 2.18701 9.57929 2.28379C8.88717 1.35966 7.78772 0.800003 6.6207 0.800003C4.869 0.800003 3.36472 2.03868 3.00846 3.7258C1.67609 4.30996 0.799805 5.63426 0.799805 7.1075C0.799805 9.14329 2.45603 10.7995 4.49185 10.7995H12.8552C14.74 10.7995 16.2735 9.26608 16.2735 7.38119C16.2735 6.51164 15.9467 5.68304 15.3533 5.04799ZM12.8552 9.83241H4.49185C2.9893 9.83241 1.76691 8.61002 1.76691 7.1075C1.76691 5.94773 2.50264 4.91302 3.59764 4.53276C3.77079 4.47265 3.89503 4.31982 3.91857 4.13806C4.09362 2.78641 5.25526 1.76714 6.6207 1.76714C7.58529 1.76714 8.48739 2.2853 8.97497 3.11934C9.10135 3.33557 9.3719 3.41953 9.59839 3.31279C9.89094 3.17506 10.2045 3.10525 10.5303 3.10525C11.4769 3.10525 12.3128 3.70851 12.6105 4.60641C12.6721 4.79216 12.8395 4.92247 13.0347 4.93656C14.3085 5.02855 15.3064 6.10234 15.3064 7.38122C15.3064 8.73281 14.2068 9.83241 12.8552 9.83241ZM4.51023 5.68667C4.59781 5.93893 4.46432 6.21447 4.21206 6.30205C3.86982 6.42092 3.63986 6.74459 3.63986 7.10747C3.63986 7.35723 3.74869 7.59347 3.93843 7.75564C4.1414 7.92918 4.1653 8.23442 3.99177 8.43742C3.89615 8.5493 3.76048 8.60679 3.624 8.60679C3.51281 8.60679 3.40114 8.56868 3.30999 8.4908C2.90501 8.14457 2.67276 7.64038 2.67276 7.1075C2.67276 6.33312 3.16387 5.64233 3.89482 5.3885C4.14711 5.30083 4.42265 5.43438 4.51023 5.68667ZM4.52226 11.4536C4.39049 11.4536 4.2644 11.5074 4.17322 11.6025C3.37282 12.4373 2.98308 13.1985 3.01484 13.8648C3.05174 14.6383 3.68556 15.1999 4.52196 15.2H4.52229C5.35853 15.2 5.9925 14.6387 6.02967 13.8653C6.06171 13.1989 5.67197 12.4376 4.87132 11.6025C4.78011 11.5074 4.65403 11.4536 4.52226 11.4536ZM5.06366 13.8189C5.04431 14.2212 4.57584 14.2329 4.52217 14.2329C4.52214 14.2329 4.52214 14.2329 4.52211 14.2329C4.46873 14.2329 4.00002 14.2212 3.98083 13.8187C3.97376 13.6706 4.02154 13.293 4.52226 12.6676C5.02316 13.2932 5.07079 13.6708 5.06366 13.8189ZM8.54539 11.4536C8.41362 11.4536 8.28753 11.5074 8.19635 11.6025C7.39592 12.4373 7.00618 13.1985 7.03797 13.8648C7.07487 14.6383 7.70869 15.1999 8.54509 15.2H8.54542C9.38166 15.2 10.0156 14.6387 10.0528 13.8653C10.0848 13.1989 9.6951 12.4376 8.89442 11.6025C8.80321 11.5074 8.67716 11.4536 8.54539 11.4536ZM9.08682 13.8189C9.06748 14.2212 8.599 14.2329 8.54533 14.2329C8.5453 14.2329 8.5453 14.2329 8.54527 14.2329C8.4919 14.2329 8.02318 14.2212 8.00396 13.8187C7.99692 13.6706 8.04458 13.2931 8.54542 12.6676C9.04629 13.2932 9.09392 13.6708 9.08682 13.8189ZM12.5685 11.4536C12.4368 11.4536 12.3107 11.5074 12.2195 11.6025C11.4191 12.4373 11.0293 13.1985 11.0611 13.8647C11.098 14.6383 11.7318 15.1999 12.5682 15.2H12.5686C13.4048 15.2 14.0388 14.6387 14.0759 13.8653C14.108 13.1989 13.7182 12.4376 12.9176 11.6025C12.8263 11.5074 12.7003 11.4536 12.5685 11.4536ZM13.1099 13.8189C13.0906 14.2213 12.6221 14.2329 12.5685 14.2329H12.5684C12.515 14.2329 12.0463 14.2212 12.0271 13.8187C12.0201 13.6706 12.0677 13.2931 12.5685 12.6676C13.0694 13.2932 13.1171 13.6708 13.1099 13.8189Z" fill="url(#paint0_linear)"/>
<defs>
<linearGradient id="paint0_linear" x1="0.799805" y1="15.2" x2="15.3576" y2="-0.0730141" gradientUnits="userSpaceOnUse">
<stop stop-color="#0E7EE4"/>
<stop offset="1" stop-color="#00A3FF"/>
</linearGradient>
</defs>
</svg>
