<svg width="17" height="16" viewBox="0 0 17 16" fill="none" xmlns="http://www.w3.org/2000/svg">
  <path d="M7.00967 12.05C6.26537 12.05 5.65967 12.6557 5.65967 13.4C5.65967 14.1443 6.26537 14.75 7.00967 14.75C7.75397 14.75 8.35967 14.1443 8.35967 13.4C8.35967 12.6557 7.75397 12.05 7.00967 12.05ZM7.00967 13.85C6.76217 13.85 6.55967 13.6475 6.55967 13.4C6.55967 13.1525 6.76217 12.95 7.00967 12.95C7.25717 12.95 7.45967 13.1525 7.45967 13.4C7.45967 13.6475 7.25717 13.85 7.00967 13.85Z" fill="#F9FAFB" />
  <path d="M7.00967 12.05C6.26537 12.05 5.65967 12.6557 5.65967 13.4C5.65967 14.1443 6.26537 14.75 7.00967 14.75C7.75397 14.75 8.35967 14.1443 8.35967 13.4C8.35967 12.6557 7.75397 12.05 7.00967 12.05ZM7.00967 13.85C6.76217 13.85 6.55967 13.6475 6.55967 13.4C6.55967 13.1525 6.76217 12.95 7.00967 12.95C7.25717 12.95 7.45967 13.1525 7.45967 13.4C7.45967 13.6475 7.25717 13.85 7.00967 13.85Z" fill="url(#paint0_linear)" />
  <path d="M11.1498 9.35001C10.4055 9.35001 9.7998 9.95571 9.7998 10.7C9.7998 11.4443 10.4055 12.05 11.1498 12.05C11.8941 12.05 12.4998 11.4443 12.4998 10.7C12.4998 9.95571 11.8941 9.35001 11.1498 9.35001ZM11.1498 11.15C10.9023 11.15 10.6998 10.9475 10.6998 10.7C10.6998 10.4525 10.9023 10.25 11.1498 10.25C11.3973 10.25 11.5998 10.4525 11.5998 10.7C11.5998 10.9475 11.3973 11.15 11.1498 11.15Z" fill="#F9FAFB" />
  <path d="M11.1498 9.35001C10.4055 9.35001 9.7998 9.95571 9.7998 10.7C9.7998 11.4443 10.4055 12.05 11.1498 12.05C11.8941 12.05 12.4998 11.4443 12.4998 10.7C12.4998 9.95571 11.8941 9.35001 11.1498 9.35001ZM11.1498 11.15C10.9023 11.15 10.6998 10.9475 10.6998 10.7C10.6998 10.4525 10.9023 10.25 11.1498 10.25C11.3973 10.25 11.5998 10.4525 11.5998 10.7C11.5998 10.9475 11.3973 11.15 11.1498 11.15Z" fill="url(#paint1_linear)" />
  <path d="M11.1498 3.05C10.4055 3.05 9.7998 3.6557 9.7998 4.4C9.7998 5.1443 10.4055 5.75 11.1498 5.75C11.8941 5.75 12.4998 5.1443 12.4998 4.4C12.4998 3.6557 11.8941 3.05 11.1498 3.05ZM11.1498 4.85C10.9023 4.85 10.6998 4.6484 10.6998 4.4C10.6998 4.1516 10.9023 3.95 11.1498 3.95C11.3973 3.95 11.5998 4.1516 11.5998 4.4C11.5998 4.6484 11.3973 4.85 11.1498 4.85Z" fill="#F9FAFB" />
  <path d="M11.1498 3.05C10.4055 3.05 9.7998 3.6557 9.7998 4.4C9.7998 5.1443 10.4055 5.75 11.1498 5.75C11.8941 5.75 12.4998 5.1443 12.4998 4.4C12.4998 3.6557 11.8941 3.05 11.1498 3.05ZM11.1498 4.85C10.9023 4.85 10.6998 4.6484 10.6998 4.4C10.6998 4.1516 10.9023 3.95 11.1498 3.95C11.3973 3.95 11.5998 4.1516 11.5998 4.4C11.5998 4.6484 11.3973 4.85 11.1498 4.85Z" fill="url(#paint2_linear)" />
  <path d="M3.58975 8.72005C2.84545 8.72005 2.23975 9.32575 2.23975 10.07C2.23975 10.8143 2.84545 11.42 3.58975 11.42C4.33405 11.42 4.93975 10.8143 4.93975 10.07C4.93975 9.32575 4.33405 8.72005 3.58975 8.72005ZM3.58975 10.52C3.34225 10.52 3.13975 10.3184 3.13975 10.07C3.13975 9.82165 3.34225 9.62005 3.58975 9.62005C3.83725 9.62005 4.03975 9.82165 4.03975 10.07C4.03975 10.3184 3.83725 10.52 3.58975 10.52Z" fill="#F9FAFB" />
  <path d="M3.58975 8.72005C2.84545 8.72005 2.23975 9.32575 2.23975 10.07C2.23975 10.8143 2.84545 11.42 3.58975 11.42C4.33405 11.42 4.93975 10.8143 4.93975 10.07C4.93975 9.32575 4.33405 8.72005 3.58975 8.72005ZM3.58975 10.52C3.34225 10.52 3.13975 10.3184 3.13975 10.07C3.13975 9.82165 3.34225 9.62005 3.58975 9.62005C3.83725 9.62005 4.03975 9.82165 4.03975 10.07C4.03975 10.3184 3.83725 10.52 3.58975 10.52Z" fill="url(#paint3_linear)" />
  <path d="M3.58975 3.67996C2.84545 3.67996 2.23975 4.28566 2.23975 5.02996C2.23975 5.77426 2.84545 6.37996 3.58975 6.37996C4.33405 6.37996 4.93975 5.77426 4.93975 5.02996C4.93975 4.28566 4.33405 3.67996 3.58975 3.67996ZM3.58975 5.47996C3.34225 5.47996 3.13975 5.27836 3.13975 5.02996C3.13975 4.78156 3.34225 4.57996 3.58975 4.57996C3.83725 4.57996 4.03975 4.78156 4.03975 5.02996C4.03975 5.27836 3.83725 5.47996 3.58975 5.47996Z" fill="#F9FAFB" />
  <path d="M3.58975 3.67996C2.84545 3.67996 2.23975 4.28566 2.23975 5.02996C2.23975 5.77426 2.84545 6.37996 3.58975 6.37996C4.33405 6.37996 4.93975 5.77426 4.93975 5.02996C4.93975 4.28566 4.33405 3.67996 3.58975 3.67996ZM3.58975 5.47996C3.34225 5.47996 3.13975 5.27836 3.13975 5.02996C3.13975 4.78156 3.34225 4.57996 3.58975 4.57996C3.83725 4.57996 4.03975 4.78156 4.03975 5.02996C4.03975 5.27836 3.83725 5.47996 3.58975 5.47996Z" fill="url(#paint4_linear)" />
  <path d="M7.00967 2.95998C6.26537 2.95998 5.65967 3.56568 5.65967 4.30998C5.65967 5.05428 6.26537 5.65998 7.00967 5.65998C7.75397 5.65998 8.35967 5.05428 8.35967 4.30998C8.35967 3.56568 7.75397 2.95998 7.00967 2.95998ZM7.00967 4.75998C6.76217 4.75998 6.55967 4.55838 6.55967 4.30998C6.55967 4.06158 6.76217 3.85998 7.00967 3.85998C7.25717 3.85998 7.45967 4.06158 7.45967 4.30998C7.45967 4.55838 7.25717 4.75998 7.00967 4.75998Z" fill="#F9FAFB" />
  <path d="M7.00967 2.95998C6.26537 2.95998 5.65967 3.56568 5.65967 4.30998C5.65967 5.05428 6.26537 5.65998 7.00967 5.65998C7.75397 5.65998 8.35967 5.05428 8.35967 4.30998C8.35967 3.56568 7.75397 2.95998 7.00967 2.95998ZM7.00967 4.75998C6.76217 4.75998 6.55967 4.55838 6.55967 4.30998C6.55967 4.06158 6.76217 3.85998 7.00967 3.85998C7.25717 3.85998 7.45967 4.06158 7.45967 4.30998C7.45967 4.55838 7.25717 4.75998 7.00967 4.75998Z" fill="url(#paint5_linear)" />
  <path d="M7.72988 7.27997C6.98558 7.27997 6.37988 7.88567 6.37988 8.62997C6.37988 9.37427 6.98558 9.97997 7.72988 9.97997C8.47418 9.97997 9.07988 9.37427 9.07988 8.62997C9.07988 7.88567 8.47418 7.27997 7.72988 7.27997ZM7.72988 9.07997C7.48238 9.07997 7.27988 8.87837 7.27988 8.62997C7.27988 8.38157 7.48238 8.17997 7.72988 8.17997C7.97738 8.17997 8.17988 8.38157 8.17988 8.62997C8.17988 8.87837 7.97738 9.07997 7.72988 9.07997Z" fill="#F9FAFB" />
  <path d="M7.72988 7.27997C6.98558 7.27997 6.37988 7.88567 6.37988 8.62997C6.37988 9.37427 6.98558 9.97997 7.72988 9.97997C8.47418 9.97997 9.07988 9.37427 9.07988 8.62997C9.07988 7.88567 8.47418 7.27997 7.72988 7.27997ZM7.72988 9.07997C7.48238 9.07997 7.27988 8.87837 7.27988 8.62997C7.27988 8.38157 7.48238 8.17997 7.72988 8.17997C7.97738 8.17997 8.17988 8.38157 8.17988 8.62997C8.17988 8.87837 7.97738 9.07997 7.72988 9.07997Z" fill="url(#paint6_linear)" />
  <defs>
    <linearGradient id="paint0_linear" x1="5.65967" y1="14.75" x2="8.39161" y2="12.0827" gradientUnits="userSpaceOnUse">
      <stop stop-color="#0E7EE4" />
      <stop offset="1" stop-color="#00A3FF" />
    </linearGradient>
    <linearGradient id="paint1_linear" x1="9.7998" y1="12.05" x2="12.5317" y2="9.38272" gradientUnits="userSpaceOnUse">
      <stop stop-color="#0E7EE4" />
      <stop offset="1" stop-color="#00A3FF" />
    </linearGradient>
    <linearGradient id="paint2_linear" x1="9.7998" y1="5.75" x2="12.5317" y2="3.08272" gradientUnits="userSpaceOnUse">
      <stop stop-color="#0E7EE4" />
      <stop offset="1" stop-color="#00A3FF" />
    </linearGradient>
    <linearGradient id="paint3_linear" x1="2.23975" y1="11.42" x2="4.97169" y2="8.75276" gradientUnits="userSpaceOnUse">
      <stop stop-color="#0E7EE4" />
      <stop offset="1" stop-color="#00A3FF" />
    </linearGradient>
    <linearGradient id="paint4_linear" x1="2.23975" y1="6.37996" x2="4.97169" y2="3.71268" gradientUnits="userSpaceOnUse">
      <stop stop-color="#0E7EE4" />
      <stop offset="1" stop-color="#00A3FF" />
    </linearGradient>
    <linearGradient id="paint5_linear" x1="5.65967" y1="5.65998" x2="8.39161" y2="2.99269" gradientUnits="userSpaceOnUse">
      <stop stop-color="#0E7EE4" />
      <stop offset="1" stop-color="#00A3FF" />
    </linearGradient>
    <linearGradient id="paint6_linear" x1="6.37988" y1="9.97997" x2="9.11183" y2="7.31269" gradientUnits="userSpaceOnUse">
      <stop stop-color="#0E7EE4" />
      <stop offset="1" stop-color="#00A3FF" />
    </linearGradient>
  </defs>
</svg>
