<svg width="40" height="34" viewBox="0 0 40 34" fill="none" xmlns="http://www.w3.org/2000/svg">
<path d="M15.782 4.67022C15.4018 4.67022 15.0938 4.3621 15.0938 3.98202V0.953032C15.0938 0.572962 15.4018 0.264832 15.782 0.264832C16.162 0.264832 16.4702 0.572962 16.4702 0.953032V3.98202C16.4702 4.3621 16.162 4.67022 15.782 4.67022Z" fill="#EDE21B"/>
<path d="M9.7503 6.28672C9.51241 6.28672 9.28109 6.16328 9.15366 5.9425L7.63921 3.31922C7.44913 2.99007 7.56194 2.56914 7.89108 2.37906C8.22023 2.18921 8.64116 2.30195 8.83116 2.63101L10.3456 5.25429C10.5356 5.58343 10.4229 6.00437 10.0937 6.19445C9.98546 6.25703 9.86695 6.28672 9.7503 6.28672Z" fill="#EDE21B"/>
<path d="M5.3327 10.7027C5.21598 10.7027 5.0977 10.673 4.98926 10.6104L2.36622 9.0959C2.03708 8.9059 1.92419 8.485 2.11434 8.1559C2.30434 7.8267 2.7252 7.7138 3.05442 7.904L5.67754 9.4185C6.00669 9.6085 6.11958 10.0294 5.92942 10.3586C5.80192 10.5794 5.57067 10.7027 5.3327 10.7027Z" fill="#EDE21B"/>
<path d="M3.71727 16.7351H0.688203C0.308125 16.7351 0 16.4269 0 16.0469C0 15.6669 0.308125 15.3587 0.688203 15.3587H3.71727C4.09734 15.3587 4.40547 15.6668 4.40547 16.0469C4.40547 16.427 4.09734 16.7351 3.71727 16.7351Z" fill="#EDE21B"/>
<path d="M2.71136 24.2821C2.47339 24.2821 2.24214 24.1587 2.1148 23.9379C1.92472 23.6087 2.03753 23.1878 2.36667 22.9978L4.98972 21.4833C5.31886 21.2931 5.7398 21.4062 5.9298 21.7352C6.11987 22.0644 6.00706 22.4853 5.67792 22.6753L3.0548 24.1897C2.94636 24.2523 2.828 24.2821 2.71136 24.2821Z" fill="#EDE21B"/>
<path d="M26.231 10.7027C25.993 10.7027 25.7617 10.5793 25.6343 10.3585C25.4442 10.0294 25.5571 9.6084 25.8862 9.4184L28.5095 7.9039C28.8386 7.7141 29.2596 7.8268 29.4496 8.1559C29.6397 8.485 29.5268 8.9059 29.1977 9.096L26.5744 10.6105C26.466 10.6731 26.3476 10.7027 26.231 10.7027Z" fill="#EDE21B"/>
<path d="M21.8137 6.28666C21.6969 6.28666 21.5787 6.25689 21.4702 6.19447C21.1411 6.00431 21.0282 5.58345 21.2183 5.25431L22.7328 2.63103C22.9227 2.30189 23.3437 2.18923 23.6729 2.37908C24.002 2.56915 24.1147 2.99001 23.9247 3.31923L22.4103 5.94251C22.2828 6.1633 22.0515 6.28666 21.8137 6.28666Z" fill="#EDE21B"/>
<path d="M23.2256 23.3925C23.2631 23.3539 23.3007 23.3154 23.3377 23.2761C23.3613 23.2514 23.3844 23.2262 23.4077 23.2012C23.4426 23.1636 23.4773 23.1257 23.5116 23.0875C23.5353 23.0611 23.5589 23.0346 23.5823 23.0079C23.6155 22.9702 23.6484 22.9323 23.681 22.894C23.7045 22.8666 23.7277 22.8391 23.7509 22.8114C23.783 22.7732 23.8145 22.7347 23.8459 22.6961C23.8688 22.6678 23.8914 22.6399 23.914 22.6116C23.9453 22.5721 23.9762 22.5323 24.0069 22.4924C24.0285 22.4644 24.0502 22.4364 24.0716 22.4082C24.103 22.3666 24.1336 22.3246 24.1644 22.2825C24.1842 22.2553 24.2043 22.2282 24.2239 22.2009C24.2567 22.1552 24.2887 22.1089 24.3206 22.0625C24.3374 22.0382 24.3545 22.0143 24.3709 21.99C24.4124 21.9287 24.453 21.8671 24.4931 21.805C24.4996 21.795 24.5064 21.7853 24.5127 21.7753C24.559 21.7031 24.6043 21.6303 24.6489 21.5568C24.6625 21.5343 24.6755 21.5115 24.6891 21.4888C24.7195 21.4376 24.75 21.3864 24.7795 21.3347C24.7962 21.3057 24.812 21.2764 24.8284 21.2473C24.854 21.2013 24.8796 21.1553 24.9047 21.1089C24.9218 21.0772 24.9385 21.0451 24.9552 21.0131C24.9785 20.9686 25.0018 20.9243 25.0245 20.8795C25.0413 20.8463 25.0577 20.8128 25.0741 20.7794C25.096 20.7352 25.1175 20.6909 25.1387 20.6461C25.1548 20.6121 25.1708 20.5778 25.1866 20.5435C25.2071 20.4989 25.2274 20.4543 25.2473 20.4093C25.2626 20.3746 25.2778 20.3399 25.2927 20.3051C25.3123 20.2596 25.3312 20.2139 25.3503 20.168C25.3645 20.1335 25.3789 20.099 25.3927 20.0642C25.4116 20.0171 25.4298 19.9695 25.448 19.922C25.4609 19.8881 25.474 19.8546 25.4865 19.8205C25.5052 19.77 25.5231 19.7192 25.5409 19.6682C25.552 19.6368 25.5634 19.6056 25.5742 19.574C25.5944 19.5148 25.6136 19.455 25.6327 19.3953C25.6403 19.3718 25.6483 19.3483 25.6556 19.3248C25.6817 19.2413 25.7067 19.1577 25.7305 19.0732C25.736 19.054 25.7409 19.0345 25.7464 19.0153C25.7644 18.9499 25.7823 18.8844 25.7991 18.8186C25.807 18.7871 25.8145 18.7556 25.8221 18.7241C25.8354 18.6699 25.8487 18.6157 25.861 18.561C25.8691 18.5258 25.8765 18.4903 25.8841 18.455C25.8952 18.4037 25.9062 18.3524 25.9165 18.3008C25.924 18.2637 25.9309 18.2265 25.9379 18.1893C25.9473 18.139 25.9566 18.0885 25.9653 18.0379C25.972 17.9999 25.9782 17.9617 25.9843 17.9236C25.9923 17.8732 26.0002 17.8227 26.0075 17.7721C26.0132 17.7336 26.0186 17.6952 26.0237 17.6565C26.0305 17.6055 26.0368 17.5543 26.043 17.5032C26.0475 17.4648 26.0521 17.4265 26.0561 17.3879C26.0617 17.3357 26.0666 17.2832 26.0715 17.2307C26.0748 17.193 26.0784 17.1553 26.0815 17.1175C26.0858 17.0626 26.0895 17.0078 26.0929 16.9526C26.0952 16.9169 26.0978 16.8813 26.0997 16.8455C26.1029 16.7846 26.1051 16.7236 26.1073 16.6624C26.1084 16.6321 26.1099 16.602 26.1108 16.5715C26.1132 16.48 26.1147 16.3882 26.1147 16.2961C26.1147 15.3316 25.9803 14.3984 25.7292 13.5145C25.113 11.3445 23.7937 9.4705 22.0332 8.1539C20.338 6.88613 18.2335 6.13535 15.9538 6.13535H15.9537C13.6741 6.13535 11.5696 6.88613 9.8743 8.1539C8.11375 9.4706 6.79469 11.3446 6.17836 13.5145C5.92727 14.3984 5.79297 15.3316 5.79297 16.2961C5.79297 16.3882 5.79437 16.48 5.79672 16.5715C5.7975 16.602 5.79914 16.6321 5.80016 16.6624C5.80234 16.7236 5.80453 16.7846 5.80781 16.8455C5.80969 16.8813 5.81227 16.9169 5.81461 16.9526C5.81805 17.0078 5.82164 17.0626 5.82602 17.1175C5.82906 17.1553 5.83258 17.193 5.83602 17.2307C5.84086 17.2832 5.8457 17.3356 5.85141 17.3879C5.85555 17.4264 5.86 17.4647 5.86445 17.5032C5.87047 17.5543 5.87687 17.6054 5.88375 17.6564C5.88906 17.695 5.89445 17.7336 5.89992 17.772C5.90734 17.8227 5.91508 17.8731 5.92313 17.9236C5.9293 17.9617 5.93562 17.9999 5.94211 18.0378C5.95086 18.0884 5.96016 18.1389 5.96961 18.1893C5.97664 18.2264 5.98352 18.2636 5.99102 18.3007C6.00125 18.3524 6.01227 18.4036 6.02336 18.4549C6.03109 18.4901 6.03852 18.5257 6.04656 18.561C6.05898 18.6156 6.07219 18.6698 6.08555 18.724C6.09328 18.7555 6.10055 18.787 6.10859 18.8186C6.12539 18.8843 6.1432 18.9498 6.16133 19.0152C6.16672 19.0345 6.17156 19.054 6.17695 19.0732C6.20094 19.1575 6.22578 19.2412 6.25188 19.3247C6.2593 19.3482 6.26719 19.3717 6.27484 19.3952C6.29391 19.455 6.31312 19.5149 6.33344 19.5739C6.34422 19.6055 6.35555 19.6367 6.36656 19.6681C6.38445 19.7191 6.40234 19.7699 6.42102 19.8204C6.43359 19.8546 6.44672 19.888 6.45961 19.9219C6.47773 19.9695 6.49609 20.017 6.51484 20.0641C6.52867 20.0989 6.54305 20.1335 6.55734 20.1679C6.57617 20.2138 6.59523 20.2595 6.61484 20.305C6.62984 20.3399 6.64516 20.3746 6.66047 20.4092C6.68031 20.4541 6.70055 20.4988 6.72102 20.5434C6.73687 20.5777 6.75273 20.612 6.76891 20.6461C6.79008 20.6908 6.81172 20.7351 6.83352 20.7793C6.84992 20.8127 6.86641 20.8462 6.8832 20.8794C6.90586 20.9242 6.92906 20.9686 6.95234 21.013C6.96922 21.045 6.98586 21.0771 7.00289 21.1089C7.02789 21.1553 7.05367 21.2011 7.07937 21.2472C7.09555 21.2763 7.11164 21.3056 7.12812 21.3346C7.15766 21.3864 7.18797 21.4375 7.21859 21.4887C7.23203 21.5114 7.24516 21.5342 7.25883 21.5568C7.30328 21.6302 7.34867 21.703 7.39492 21.7752C7.40125 21.7851 7.40805 21.795 7.41445 21.805C7.45461 21.8671 7.49523 21.9286 7.53664 21.9899C7.55313 22.0143 7.57031 22.0382 7.58703 22.0625C7.61898 22.1087 7.65102 22.1551 7.68375 22.2008C7.70336 22.2282 7.72344 22.2553 7.74328 22.2825C7.77398 22.3245 7.80477 22.3665 7.83609 22.4081C7.85742 22.4364 7.87914 22.4643 7.9007 22.4923C7.93141 22.5322 7.96242 22.5721 7.99359 22.6115C8.01609 22.6398 8.03883 22.6678 8.06164 22.696C8.09305 22.7346 8.12469 22.7732 8.15672 22.8114C8.17992 22.8391 8.20312 22.8665 8.22664 22.8939C8.25922 22.9322 8.29219 22.9702 8.32539 23.0078C8.34883 23.0344 8.37227 23.0609 8.39602 23.0875C8.43031 23.1257 8.46516 23.1635 8.49992 23.2011C8.5232 23.2261 8.54641 23.2514 8.56984 23.2761C8.6068 23.3153 8.64437 23.3538 8.68195 23.3925C8.70414 23.4151 8.72609 23.4378 8.74836 23.4603C8.7907 23.5028 8.83367 23.5448 8.87672 23.5868C8.89484 23.6045 8.91266 23.6223 8.93102 23.6397C8.9925 23.6986 9.05469 23.7567 9.11766 23.8141C9.11781 23.8142 9.11797 23.8143 9.1182 23.8145C9.18258 23.873 9.24758 23.9307 9.31352 23.9875C9.31523 23.9889 9.31672 23.9902 9.31844 23.9918L9.32 23.9929C9.77453 24.385 10.2645 24.7371 10.784 25.0448L10.7907 25.0496C10.8035 25.0573 10.8168 25.0643 10.8296 25.0718C10.8979 25.1118 10.9666 25.1509 11.0358 25.1893C11.0542 25.1994 11.0723 25.2099 11.0908 25.22C11.1775 25.2672 11.2648 25.3133 11.353 25.358C11.3736 25.3685 11.3945 25.3786 11.4153 25.3889C11.4848 25.4236 11.5547 25.4577 11.6251 25.491C11.6521 25.5037 11.6792 25.5164 11.7064 25.5288C11.7808 25.5631 11.8558 25.5966 11.9313 25.6292C11.9481 25.6365 11.9648 25.6442 11.9818 25.6512C12.0734 25.6901 12.1657 25.7277 12.2586 25.764C12.2818 25.7731 12.3053 25.7818 12.3286 25.7907C12.4006 25.8182 12.473 25.845 12.5458 25.8709C12.5741 25.8809 12.6023 25.891 12.6307 25.9008C12.7115 25.9287 12.7927 25.9558 12.8745 25.9817C12.8893 25.9864 12.904 25.9914 12.9189 25.996C13.0148 26.0261 13.1113 26.0544 13.2084 26.0816C13.2341 26.0887 13.2599 26.0954 13.2856 26.1025C13.3597 26.1227 13.4344 26.142 13.5091 26.1605C13.5386 26.1676 13.568 26.1751 13.5975 26.1821C13.6852 26.2028 13.773 26.2226 13.8614 26.2411C13.8732 26.2435 13.8849 26.2463 13.8966 26.2486C13.9963 26.2692 14.0966 26.2878 14.1973 26.3053C14.2251 26.3103 14.2529 26.3146 14.2809 26.3193C14.3572 26.3319 14.4335 26.3437 14.5105 26.3546C14.5406 26.359 14.5709 26.3634 14.6012 26.3673C14.697 26.38 14.7929 26.3918 14.8894 26.4017C14.8962 26.4025 14.903 26.4035 14.9098 26.404C15.0128 26.4146 15.1164 26.4232 15.2203 26.4305C15.2501 26.4325 15.2798 26.4344 15.3096 26.4361C15.3877 26.4412 15.466 26.4451 15.5445 26.4482C15.5752 26.4494 15.6059 26.4508 15.6367 26.4517C15.742 26.455 15.8472 26.4571 15.9533 26.4571H15.9534C16.0594 26.4571 16.1648 26.455 16.27 26.4517C16.3007 26.4508 16.3314 26.4494 16.362 26.4482C16.4406 26.445 16.5189 26.4412 16.597 26.4361C16.6268 26.4343 16.6566 26.4326 16.6863 26.4305C16.7902 26.4232 16.8938 26.4146 16.9969 26.404C17.0036 26.4034 17.0104 26.4025 17.0172 26.4017C17.1136 26.3917 17.2096 26.38 17.3054 26.3674C17.3357 26.3634 17.3659 26.359 17.3962 26.3547C17.473 26.3438 17.5495 26.3319 17.6259 26.3193C17.6536 26.3147 17.6816 26.3103 17.7094 26.3054C17.8101 26.2879 17.9103 26.2693 18.0102 26.2487C18.022 26.2464 18.0334 26.2436 18.0452 26.2411C18.1337 26.2225 18.2216 26.2028 18.3091 26.1821C18.3387 26.1752 18.368 26.1677 18.3975 26.1606C18.4724 26.1421 18.5469 26.1228 18.6212 26.1026C18.6469 26.0956 18.6727 26.0889 18.6983 26.0817C18.7954 26.0545 18.892 26.0261 18.9878 25.9961C19.0027 25.9915 19.0173 25.9865 19.0323 25.9818C19.1139 25.9557 19.1953 25.9288 19.2759 25.9009C19.3042 25.8911 19.3327 25.8811 19.3609 25.871C19.4337 25.845 19.5061 25.8183 19.578 25.7907C19.6013 25.7819 19.6248 25.7732 19.648 25.7641C19.7409 25.7278 19.8332 25.6904 19.9248 25.6515C19.9417 25.6442 19.9586 25.6365 19.9755 25.6293C20.0509 25.5967 20.1258 25.5632 20.2002 25.5289C20.2273 25.5164 20.2545 25.5038 20.2816 25.4911C20.352 25.4578 20.422 25.4239 20.4914 25.389C20.5121 25.3787 20.533 25.3686 20.5537 25.3582C20.6419 25.3134 20.7294 25.2672 20.8159 25.2201C20.8344 25.21 20.8525 25.1996 20.8709 25.1894C20.9401 25.1511 21.0089 25.1119 21.0773 25.072C21.0901 25.0645 21.1034 25.0575 21.1161 25.0498L21.1228 25.045C21.6423 24.7374 22.1323 24.3852 22.5869 23.9931L22.5884 23.9919C22.5902 23.9903 22.5916 23.989 22.5933 23.9876C22.6591 23.9307 22.7242 23.8731 22.7886 23.8146C22.7887 23.8145 22.7889 23.8143 22.7892 23.8142C22.852 23.7568 22.9143 23.6986 22.9758 23.6398C22.994 23.6223 23.0118 23.6046 23.03 23.5868C23.0732 23.545 23.1162 23.5029 23.1585 23.4604C23.1817 23.4379 23.2035 23.4151 23.2256 23.3925Z" fill="#EAC71C"/>
<path d="M22.0336 8.1541C20.3383 6.88625 18.2339 6.13547 15.9542 6.13547H15.9541C15.3458 6.13547 14.7503 6.1893 14.1714 6.2918C11.9387 8.3311 10.5381 11.266 10.5381 14.528C10.5381 20.1514 14.7002 24.8018 20.1116 25.5689C20.1414 25.5555 20.1715 25.5424 20.2012 25.5288C20.2284 25.5163 20.2556 25.5037 20.2827 25.491C20.353 25.4577 20.423 25.4237 20.4925 25.3889C20.5132 25.3786 20.5341 25.3685 20.5547 25.358C20.6429 25.3133 20.7304 25.2671 20.817 25.22C20.8354 25.2099 20.8536 25.1994 20.872 25.1893C20.9411 25.1509 21.01 25.1118 21.0783 25.0719C21.0911 25.0644 21.1044 25.0573 21.1172 25.0497L21.1239 25.0448C21.6434 24.7373 22.1333 24.3851 22.5879 23.993L22.5895 23.9918C22.5912 23.9902 22.5927 23.9889 22.5943 23.9875C22.6601 23.9306 22.7253 23.873 22.7896 23.8145C22.7898 23.8144 22.79 23.8142 22.7903 23.8141C22.8531 23.7567 22.9154 23.6985 22.9768 23.6397C22.995 23.6222 23.0129 23.6044 23.0311 23.5867C23.0743 23.5449 23.1172 23.5028 23.1596 23.4603C23.1819 23.4379 23.2038 23.4151 23.226 23.3924C23.2635 23.3538 23.3011 23.3153 23.3381 23.276C23.3617 23.2513 23.3847 23.2261 23.408 23.2011C23.4429 23.1634 23.4777 23.1256 23.512 23.0874C23.5357 23.0609 23.5593 23.0344 23.5827 23.0078C23.6158 22.9701 23.6488 22.9322 23.6814 22.8939C23.7049 22.8665 23.7281 22.839 23.7513 22.8113C23.7833 22.7731 23.8149 22.7346 23.8463 22.6959C23.8692 22.6677 23.8918 22.6398 23.9143 22.6115C23.9457 22.572 23.9766 22.5322 24.0072 22.4923C24.0289 22.4643 24.0506 22.4363 24.0719 22.408C24.1033 22.3665 24.1339 22.3245 24.1647 22.2824C24.1846 22.2552 24.2047 22.2281 24.2243 22.2008C24.2571 22.1551 24.289 22.1087 24.321 22.0624C24.3378 22.0381 24.3548 22.0141 24.3713 21.9898C24.4128 21.9286 24.4533 21.8669 24.4935 21.8049C24.5 21.7949 24.5068 21.7852 24.5131 21.7752C24.5593 21.703 24.6047 21.6302 24.6493 21.5567C24.6629 21.5342 24.6759 21.5114 24.6894 21.4887C24.7199 21.4375 24.7504 21.3863 24.7799 21.3346C24.7965 21.3055 24.8124 21.2762 24.8287 21.2472C24.8543 21.2012 24.88 21.1552 24.905 21.1088C24.9221 21.0771 24.9389 21.045 24.9556 21.013C24.9789 20.9685 25.0021 20.9242 25.0248 20.8794C25.0416 20.8462 25.0581 20.8127 25.0745 20.7793C25.0964 20.7351 25.1179 20.6908 25.139 20.646C25.1552 20.6119 25.1711 20.5777 25.1869 20.5434C25.2075 20.4988 25.2278 20.4541 25.2476 20.4091C25.2629 20.3744 25.2782 20.3398 25.2931 20.305C25.3127 20.2595 25.3316 20.2137 25.3507 20.1679C25.3649 20.1334 25.3793 20.0989 25.393 20.0641C25.4119 20.0169 25.4302 19.9694 25.4483 19.9219C25.4612 19.888 25.4743 19.8545 25.4868 19.8204C25.5056 19.7698 25.5235 19.7191 25.5413 19.668C25.5524 19.6367 25.5637 19.6055 25.5746 19.5739C25.5947 19.5147 25.6139 19.4549 25.6331 19.3952C25.6407 19.3716 25.6486 19.3482 25.656 19.3247C25.6821 19.2412 25.7071 19.1576 25.7309 19.0731C25.7364 19.0539 25.7413 19.0344 25.7468 19.0152C25.7647 18.9498 25.7826 18.8843 25.7995 18.8185C25.8074 18.787 25.8148 18.7555 25.8225 18.724C25.8357 18.6698 25.849 18.6156 25.8614 18.5609C25.8694 18.5257 25.8768 18.4902 25.8844 18.4548C25.8956 18.4036 25.9066 18.3523 25.9168 18.3007C25.9243 18.2636 25.9313 18.2264 25.9382 18.1892C25.9477 18.1389 25.957 18.0884 25.9657 18.0378C25.9723 17.9998 25.9786 17.9616 25.9847 17.9235C25.9927 17.873 26.0006 17.8226 26.0079 17.772C26.0136 17.7335 26.0189 17.6951 26.0241 17.6564C26.0308 17.6054 26.0372 17.5542 26.0433 17.5031C26.0479 17.4647 26.0525 17.4264 26.0564 17.3879C26.0621 17.3356 26.0669 17.2831 26.0718 17.2306C26.0752 17.193 26.0788 17.1552 26.0818 17.1175C26.0861 17.0626 26.0898 17.0078 26.0932 16.9526C26.0955 16.9169 26.0982 16.8812 26.1 16.8455C26.1032 16.7845 26.1054 16.7235 26.1077 16.6623C26.1088 16.632 26.1103 16.6019 26.1111 16.5715C26.1136 16.48 26.115 16.3882 26.115 16.2961C26.115 15.3316 25.9807 14.3984 25.7296 13.5144C25.1134 11.3447 23.7941 9.4707 22.0336 8.1541Z" fill="#EDE21B"/>
<path d="M23.6231 16.0324C23.6224 16.0106 23.6217 15.9888 23.6207 15.9669C23.6132 15.792 23.6002 15.6188 23.5813 15.447C23.5788 15.4258 23.5764 15.4046 23.5739 15.3834C23.5536 15.2118 23.5275 15.0421 23.4962 14.8744C23.4924 14.8539 23.4885 14.8334 23.4844 14.8132C23.4516 14.6455 23.4133 14.4799 23.3698 14.3164C23.3646 14.2967 23.3592 14.277 23.3538 14.2574C23.3089 14.0941 23.2589 13.9331 23.2036 13.7745C23.1971 13.7556 23.1906 13.7368 23.1838 13.7182C23.1274 13.5598 23.0659 13.4039 22.9995 13.2505C22.9917 13.2325 22.9838 13.2147 22.976 13.1967C22.9085 13.044 22.836 12.8938 22.7589 12.7464C22.7499 12.7291 22.7409 12.712 22.7317 12.6946C22.6536 12.548 22.571 12.4043 22.4839 12.2635C22.4735 12.2468 22.4632 12.23 22.4527 12.2134C22.0835 11.6271 21.6374 11.0941 21.1282 10.6289L21.1273 10.6278C21.1255 10.6261 21.1237 10.6245 21.1218 10.6228C21.1011 10.6039 21.08 10.5854 21.0591 10.5669C21.0357 10.546 21.0123 10.5249 20.9885 10.5042C20.9666 10.4853 20.9444 10.4665 20.9223 10.4478C20.899 10.428 20.8757 10.4079 20.8523 10.3884C20.8296 10.3696 20.8068 10.3513 20.784 10.3328C20.7605 10.3139 20.7371 10.2948 20.7135 10.276C20.6903 10.2575 20.6667 10.2395 20.6431 10.2214C20.6195 10.203 20.5957 10.1847 20.5717 10.1667C20.5479 10.1485 20.5239 10.131 20.5 10.1132C20.476 10.0955 20.4517 10.0781 20.4278 10.0605C20.4034 10.043 20.3789 10.0258 20.3543 10.0085C20.3299 9.9914 20.3053 9.9743 20.2808 9.9575C20.2561 9.9406 20.2314 9.9239 20.2067 9.9074C20.1816 9.8907 20.1564 9.8742 20.1311 9.8578C20.1063 9.8415 20.0813 9.8254 20.0563 9.8096C20.0307 9.7934 20.0049 9.7774 19.9792 9.7616C19.954 9.746 19.9288 9.7305 19.9035 9.7152C19.8772 9.6995 19.8509 9.684 19.8246 9.6685C19.7992 9.6538 19.7738 9.6389 19.7484 9.6242C19.7217 9.609 19.6945 9.5941 19.6674 9.5791C19.642 9.5649 19.6165 9.5508 19.5907 9.5369C19.5633 9.522 19.5354 9.5076 19.5077 9.4931C19.4823 9.4798 19.4567 9.4663 19.4312 9.4532C19.4024 9.4386 19.3734 9.4244 19.3443 9.4101C19.3195 9.3977 19.2945 9.3853 19.2694 9.3732C19.2383 9.3584 19.2068 9.344 19.1756 9.3295C19.1524 9.3185 19.1291 9.3074 19.1056 9.2969C19.0662 9.2792 19.0265 9.2621 18.9867 9.2449C18.9709 9.2381 18.9554 9.231 18.9396 9.2244C18.8845 9.2011 18.8292 9.1785 18.7735 9.1565C18.752 9.148 18.7303 9.1401 18.7088 9.1318C18.6735 9.1181 18.6385 9.1046 18.6031 9.0915C18.5788 9.0827 18.5544 9.0742 18.53 9.0655C18.497 9.0537 18.4642 9.0419 18.431 9.0306C18.4053 9.0219 18.3793 9.0135 18.3535 9.005C18.3214 8.9946 18.2894 8.9839 18.2571 8.9737C18.2306 8.9653 18.2038 8.9575 18.1771 8.9494C18.1452 8.9398 18.1133 8.93 18.0812 8.921C18.054 8.9131 18.0267 8.9056 17.9995 8.8981C17.9677 8.8891 17.9356 8.8804 17.9035 8.8721C17.876 8.8649 17.8482 8.8578 17.8206 8.851C17.7884 8.843 17.7564 8.8349 17.7242 8.8274C17.6963 8.8208 17.6684 8.8146 17.6403 8.8081C17.6078 8.801 17.5755 8.7938 17.5428 8.7869C17.5148 8.781 17.4866 8.7753 17.4584 8.7697C17.4256 8.7631 17.3928 8.757 17.36 8.751C17.3317 8.7456 17.3035 8.7404 17.2751 8.7355C17.2419 8.7298 17.2086 8.7243 17.1753 8.719C17.1471 8.7146 17.1188 8.71 17.0905 8.7059C17.0566 8.7009 17.0225 8.6963 16.9885 8.6916C16.9605 8.6878 16.9325 8.684 16.9044 8.6806C16.8697 8.6763 16.8349 8.6724 16.8001 8.6687C16.7722 8.6656 16.7446 8.6624 16.7166 8.6596C16.681 8.6561 16.6453 8.6533 16.6096 8.6502C16.5824 8.648 16.5551 8.6453 16.5279 8.6435C16.4903 8.6406 16.4525 8.6383 16.4149 8.6361C16.3892 8.6346 16.3636 8.6328 16.3378 8.6315C16.2959 8.6296 16.2536 8.6281 16.2114 8.6267C16.1899 8.626 16.1682 8.6249 16.1466 8.6245C16.0831 8.6228 16.0193 8.6221 15.9553 8.6221C15.955 8.6221 15.9546 8.6221 15.9543 8.6221H15.9542C15.9538 8.6221 15.9535 8.6221 15.9531 8.6221C15.8892 8.6221 15.8255 8.6229 15.7619 8.6245C15.7403 8.625 15.7187 8.6261 15.6971 8.6267C15.6549 8.6281 15.6127 8.6295 15.5706 8.6315C15.5449 8.6329 15.5194 8.6347 15.4936 8.6361C15.456 8.6383 15.4181 8.6405 15.3806 8.6435C15.3533 8.6453 15.326 8.648 15.2988 8.6502C15.2631 8.6533 15.2274 8.6561 15.1918 8.6596C15.1639 8.6624 15.1363 8.6656 15.1083 8.6687C15.0735 8.6724 15.0387 8.6763 15.0042 8.6806C14.976 8.684 14.9481 8.6878 14.9201 8.6916C14.886 8.6962 14.852 8.7009 14.8181 8.7059C14.7897 8.7102 14.7614 8.7146 14.7332 8.719C14.6999 8.7244 14.6667 8.7299 14.6335 8.7355C14.6051 8.7404 14.5768 8.7456 14.5486 8.751C14.5156 8.7569 14.4829 8.7631 14.4501 8.7697C14.422 8.7753 14.3938 8.781 14.3657 8.7869C14.3332 8.7938 14.3006 8.8009 14.2682 8.8081C14.2403 8.8144 14.2123 8.8207 14.1845 8.8274C14.1522 8.835 14.12 8.843 14.0881 8.851C14.0603 8.8578 14.0326 8.8648 14.005 8.8721C13.9729 8.8804 13.941 8.8891 13.9091 8.8981C13.8818 8.9056 13.8544 8.9131 13.8273 8.921C13.7952 8.9301 13.7634 8.9398 13.7315 8.9494C13.7048 8.9575 13.6781 8.9654 13.6515 8.9737C13.6192 8.9839 13.5871 8.9945 13.555 9.005C13.5292 9.0135 13.5032 9.0219 13.4775 9.0306C13.4442 9.0419 13.4114 9.0538 13.3785 9.0655C13.3542 9.0742 13.3298 9.0826 13.3055 9.0915C13.27 9.1045 13.2349 9.1181 13.1998 9.1318C13.1782 9.1401 13.1565 9.148 13.135 9.1565C13.0795 9.1785 13.0239 9.201 12.9689 9.2244C12.953 9.231 12.9376 9.2381 12.9218 9.2449C12.8821 9.262 12.8424 9.2791 12.8029 9.2969C12.7795 9.3074 12.7562 9.3185 12.7328 9.3295C12.7016 9.344 12.6702 9.3584 12.6391 9.3732C12.6139 9.3853 12.589 9.3978 12.564 9.4101C12.5351 9.4244 12.5061 9.4385 12.4774 9.4532C12.4517 9.4662 12.4262 9.4799 12.4006 9.4932C12.3731 9.5077 12.3453 9.5221 12.3178 9.5369C12.2921 9.5507 12.2667 9.5649 12.2412 9.5791C12.2142 9.5942 12.1871 9.6091 12.1603 9.6242C12.1347 9.6389 12.1094 9.6538 12.084 9.6685C12.0577 9.684 12.0313 9.6994 12.0052 9.7152C11.9797 9.7305 11.9545 9.7459 11.9293 9.7616C11.9036 9.7775 11.8779 9.7933 11.8523 9.8096C11.8273 9.8254 11.8023 9.8415 11.7774 9.8578C11.7521 9.8742 11.727 9.8908 11.7017 9.9074C11.6771 9.9239 11.6524 9.9406 11.6278 9.9575C11.6031 9.9742 11.5786 9.9914 11.5541 10.0085C11.5296 10.0257 11.5051 10.0429 11.4808 10.0605C11.4565 10.078 11.4325 10.0955 11.4085 10.1132C11.3845 10.1309 11.3603 10.1486 11.3364 10.1667C11.3127 10.1847 11.289 10.203 11.2653 10.2212C11.2418 10.2393 11.2181 10.2575 11.1949 10.276C11.1712 10.2948 11.1478 10.3138 11.1244 10.3328C11.1015 10.3514 11.0787 10.3697 11.0562 10.3884C11.0325 10.408 11.0093 10.428 10.986 10.4478C10.9638 10.4665 10.9416 10.4853 10.9197 10.5042C10.8959 10.5247 10.8724 10.5459 10.8492 10.5669C10.8281 10.5855 10.807 10.604 10.7863 10.6228C10.7846 10.6245 10.7828 10.6261 10.781 10.6278L10.7799 10.6289C10.2707 11.0941 9.82471 11.6269 9.45549 12.2134C9.44502 12.23 9.43455 12.2468 9.42424 12.2635C9.33713 12.4043 9.25439 12.5479 9.17635 12.6946C9.16728 12.7118 9.15822 12.7289 9.14916 12.7464C9.07205 12.8938 8.99971 13.044 8.93221 13.1967C8.92432 13.2147 8.91643 13.2325 8.90861 13.2505C8.84228 13.4038 8.7808 13.5598 8.72424 13.7182C8.71752 13.7369 8.71096 13.7557 8.70447 13.7745C8.64924 13.9331 8.59916 14.0942 8.55424 14.2574C8.54885 14.2769 8.54353 14.2966 8.5383 14.3164C8.49471 14.4798 8.45643 14.6454 8.42361 14.8132C8.41955 14.8334 8.41572 14.8539 8.41182 14.8744C8.38041 15.0421 8.35432 15.2119 8.33416 15.3834C8.33158 15.4046 8.32916 15.4258 8.32682 15.447C8.30791 15.6188 8.29471 15.7921 8.28736 15.9669C8.28635 15.9888 8.28557 16.0106 8.28486 16.0324C8.28182 16.12 8.27979 16.2079 8.27979 16.2963C8.27979 16.5612 8.29322 16.8228 8.31947 17.0809C8.33252 17.2099 8.34893 17.3378 8.36822 17.465C8.41682 17.7825 8.48478 18.0937 8.57096 18.3972C9.48455 21.6142 12.4441 23.9706 15.9539 23.9706H15.954C19.4638 23.9706 22.4234 21.6142 23.3369 18.3972C23.4231 18.0937 23.4911 17.7825 23.5396 17.465C23.559 17.338 23.5753 17.2099 23.5883 17.0809C23.6146 16.8228 23.628 16.5612 23.628 16.2963C23.6282 16.2079 23.6263 16.1201 23.6231 16.0324Z" fill="#EF8229"/>
<path d="M23.6208 15.9669C23.6133 15.792 23.6003 15.6188 23.5814 15.447C23.5789 15.4259 23.5765 15.4046 23.574 15.3834C23.5537 15.2119 23.5276 15.0421 23.4963 14.8744C23.4925 14.854 23.4886 14.8334 23.4845 14.8132C23.4517 14.6455 23.4134 14.4799 23.3699 14.3164C23.3647 14.2967 23.3593 14.277 23.3539 14.2574C23.309 14.0941 23.259 13.9331 23.2037 13.7745C23.1972 13.7556 23.1907 13.7369 23.1839 13.7182C23.1275 13.5598 23.066 13.404 22.9996 13.2505C22.9918 13.2326 22.9839 13.2148 22.9761 13.1967C22.9086 13.0441 22.8361 12.8938 22.759 12.7464C22.75 12.7291 22.741 12.712 22.7318 12.6946C22.6537 12.548 22.5711 12.4044 22.484 12.2635C22.4736 12.2469 22.4633 12.2301 22.4528 12.2134C22.0836 11.6271 21.6375 11.0941 21.1283 10.6289L21.1274 10.6279C21.1256 10.6262 21.1238 10.6245 21.1219 10.6229C21.1012 10.604 21.0801 10.5855 21.0592 10.5669C21.0358 10.546 21.0124 10.5249 20.9886 10.5042C20.9667 10.4853 20.9445 10.4666 20.9224 10.4478C20.8991 10.428 20.8758 10.408 20.8524 10.3884C20.8297 10.3697 20.8069 10.3513 20.7841 10.3329C20.7606 10.3139 20.7372 10.2948 20.7136 10.276C20.6904 10.2576 20.6668 10.2395 20.6432 10.2215C20.6196 10.203 20.5958 10.1848 20.5718 10.1667C20.548 10.1486 20.524 10.131 20.5001 10.1132C20.4761 10.0955 20.4518 10.0781 20.4279 10.0605C20.4035 10.043 20.379 10.0259 20.3544 10.0086C20.33 9.9915 20.3054 9.9744 20.2809 9.9576C20.2562 9.9407 20.2315 9.9239 20.2068 9.9075C20.1817 9.8908 20.1565 9.8742 20.1312 9.8578C20.1064 9.8416 20.0814 9.8255 20.0564 9.8096C20.0308 9.7934 20.005 9.7775 19.9793 9.7616C19.9541 9.746 19.9289 9.7306 19.9036 9.7152C19.8773 9.6994 19.851 9.6841 19.8247 9.6686C19.7993 9.6538 19.7739 9.6389 19.7485 9.6243C19.7218 9.6091 19.6946 9.5941 19.6675 9.5791C19.6421 9.565 19.6166 9.5509 19.5908 9.5369C19.5634 9.5221 19.5355 9.5076 19.5078 9.4932C19.4824 9.4798 19.4568 9.4663 19.4313 9.4533C19.4025 9.4387 19.3735 9.4244 19.3444 9.4101C19.3196 9.3977 19.2946 9.3854 19.2695 9.3733C19.2385 9.3584 19.2069 9.3441 19.1757 9.3295C19.1525 9.3186 19.1292 9.3075 19.1057 9.2969C19.0663 9.2792 19.0266 9.2621 18.9868 9.245C18.971 9.2381 18.9555 9.2311 18.9397 9.2244C18.8846 9.2012 18.8293 9.1786 18.7736 9.1566C18.7521 9.148 18.7304 9.1401 18.7089 9.1319C18.6736 9.1182 18.6386 9.1046 18.6032 9.0916C18.5789 9.0827 18.5545 9.0743 18.5301 9.0655C18.4971 9.0537 18.4643 9.0419 18.4311 9.0306C18.4054 9.0219 18.3794 9.0136 18.3536 9.0051C18.3215 8.9946 18.2895 8.9839 18.2572 8.9737C18.2307 8.9654 18.2039 8.9576 18.1772 8.9494C18.1453 8.9398 18.1134 8.9301 18.0813 8.921C18.0541 8.9132 18.0268 8.9056 17.9996 8.8981C17.9678 8.8891 17.9357 8.8805 17.9036 8.8721C17.8761 8.8649 17.8483 8.8579 17.8207 8.851C17.7885 8.843 17.7565 8.835 17.7243 8.8275C17.6964 8.8209 17.6685 8.8146 17.6404 8.8081C17.6079 8.801 17.5756 8.7938 17.5429 8.7869C17.5149 8.7811 17.4867 8.7753 17.4585 8.7698C17.4257 8.7632 17.3929 8.757 17.3601 8.751C17.3318 8.7456 17.3036 8.7405 17.2752 8.7355C17.242 8.7298 17.2087 8.7244 17.1754 8.7191C17.1471 8.7146 17.1189 8.7101 17.0906 8.7059C17.0567 8.7009 17.0226 8.6963 16.9886 8.6916C16.9606 8.6879 16.9326 8.6841 16.9045 8.6806C16.8698 8.6763 16.835 8.6724 16.8002 8.6687C16.7723 8.6656 16.7446 8.6625 16.7167 8.6597C16.6811 8.6562 16.6454 8.6534 16.6096 8.6502C16.5825 8.648 16.5552 8.6453 16.528 8.6435C16.4904 8.6406 16.4526 8.6384 16.415 8.6362C16.3893 8.6347 16.3637 8.6329 16.3379 8.6316C16.296 8.6296 16.2537 8.6282 16.2115 8.6268C16.19 8.6261 16.1683 8.625 16.1467 8.6245C16.0832 8.6229 16.0194 8.6221 15.9554 8.6221C15.9551 8.6221 15.9547 8.6221 15.9544 8.6221H15.9543C15.9539 8.6221 15.9536 8.6221 15.9532 8.6221C15.8893 8.6221 15.8256 8.623 15.762 8.6245C15.7404 8.6251 15.7188 8.6262 15.6971 8.6268C15.655 8.6282 15.6128 8.6295 15.5707 8.6316C15.545 8.633 15.5195 8.6348 15.4937 8.6362C15.4561 8.6384 15.4182 8.6405 15.3807 8.6435C15.3534 8.6453 15.3261 8.648 15.2989 8.6502C15.2632 8.6534 15.2275 8.6562 15.1919 8.6597C15.164 8.6624 15.1364 8.6656 15.1084 8.6687C15.0736 8.6724 15.0388 8.6763 15.0043 8.6806C14.9761 8.6841 14.9482 8.6878 14.9202 8.6916C14.8861 8.6962 14.8521 8.7009 14.8182 8.7059C14.7898 8.7102 14.7615 8.7147 14.7333 8.7191C14.7 8.7244 14.6668 8.7299 14.6336 8.7355C14.6052 8.7405 14.5769 8.7456 14.5487 8.751C14.5157 8.7569 14.483 8.7632 14.4502 8.7698C14.4221 8.7754 14.3939 8.7811 14.3658 8.7869C14.3333 8.7938 14.3007 8.8009 14.2683 8.8081C14.2404 8.8144 14.2124 8.8208 14.1846 8.8275C14.1523 8.8351 14.1201 8.843 14.0882 8.851C14.0604 8.8579 14.0327 8.8648 14.0051 8.8721C13.973 8.8805 13.9411 8.8891 13.9092 8.8981C13.8819 8.9056 13.8545 8.9132 13.8274 8.921C13.7953 8.9301 13.7635 8.9398 13.7316 8.9494C13.7049 8.9576 13.6782 8.9655 13.6516 8.9737C13.6193 8.9839 13.5871 8.9945 13.5551 9.0051C13.5293 9.0136 13.5033 9.0219 13.4776 9.0306C13.4443 9.0419 13.4115 9.0538 13.3786 9.0655C13.3543 9.0742 13.3299 9.0826 13.3056 9.0916C13.2701 9.1045 13.235 9.1181 13.1999 9.1319C13.1783 9.1401 13.1566 9.148 13.1351 9.1566C13.0796 9.1786 13.024 9.2011 12.969 9.2244C12.9531 9.2311 12.9377 9.2381 12.9219 9.245C12.8822 9.262 12.8425 9.2791 12.803 9.2969C12.7796 9.3075 12.7563 9.3186 12.7329 9.3295C12.7017 9.3441 12.6703 9.3584 12.6392 9.3733C12.614 9.3854 12.5891 9.3979 12.5641 9.4101C12.5352 9.4244 12.5062 9.4386 12.4775 9.4533C12.4518 9.4662 12.4263 9.4799 12.4007 9.4933C12.3732 9.5077 12.3454 9.5222 12.3179 9.5369C12.2922 9.5508 12.2668 9.565 12.2413 9.5791C12.2143 9.5942 12.1871 9.6091 12.1604 9.6243C12.1348 9.6389 12.1095 9.6538 12.0841 9.6686C12.0578 9.6841 12.0314 9.6994 12.0053 9.7152C11.9798 9.7305 11.9546 9.7459 11.9294 9.7616C11.9037 9.7776 11.878 9.7934 11.8524 9.8096C11.8274 9.8255 11.8024 9.8416 11.7775 9.8578C11.7522 9.8742 11.7271 9.8909 11.7018 9.9075C11.6771 9.9239 11.6525 9.9407 11.6279 9.9576C11.6032 9.9743 11.5787 9.9915 11.5542 10.0086C11.5296 10.0258 11.5052 10.043 11.4809 10.0605C11.4754 10.0646 11.47 10.0684 11.4646 10.0725C10.8692 11.4372 10.5381 12.9441 10.5381 14.5282C10.5381 18.5026 12.6176 21.9912 15.7475 23.9662C15.8163 23.968 15.885 23.9706 15.9542 23.9706H15.9543C19.464 23.9706 22.4236 21.6142 23.3372 18.3973C23.4233 18.0937 23.4914 17.7826 23.5399 17.4651C23.5593 17.338 23.5755 17.21 23.5886 17.0809C23.6148 16.8229 23.6282 16.5612 23.6282 16.2963C23.6282 16.208 23.6263 16.1201 23.6232 16.0325C23.6226 16.0105 23.6218 15.9887 23.6208 15.9669Z" fill="#F29F26"/>
<path d="M35.7771 17.5874C35.4104 17.5874 35.0546 17.6344 34.7152 17.7223C34.1073 16.8446 33.0936 16.2694 31.9451 16.2694C31.5719 16.2694 31.2136 16.3312 30.8781 16.443C30.3127 13.9405 28.0771 12.0712 25.4036 12.0712C22.3032 12.0712 19.7897 14.5847 19.7897 17.6853C19.7897 17.7491 19.7922 17.8126 19.7946 17.8757C19.4 17.752 18.9803 17.6853 18.5448 17.6853C16.6454 17.6853 15.0433 18.9545 14.5381 20.6909C15.3929 20.1638 16.3998 19.8596 17.4779 19.8596C20.5784 19.8596 23.092 22.373 23.092 25.4735C23.092 25.5375 23.0893 25.6009 23.0871 25.6641C23.4816 25.5404 23.9013 25.4735 24.3366 25.4735C25.0971 25.4735 25.8091 25.6778 26.4232 26.033H33.2759H35.7771C38.1094 26.033 40 24.1423 40 21.8102C40 19.4781 38.1093 17.5874 35.7771 17.5874Z" fill="#83D4ED"/>
<path d="M24.3363 25.3873C23.901 25.3873 23.4813 25.4542 23.0868 25.5779C23.089 25.5148 23.0917 25.4513 23.0917 25.3873C23.0917 22.2869 20.5781 19.7734 17.4777 19.7734C14.8042 19.7734 12.5688 21.6426 12.0032 24.1451C11.6679 24.0331 11.3093 23.9716 10.9362 23.9716C9.7876 23.9716 8.77393 24.5468 8.16611 25.4244C7.82674 25.3366 7.47104 25.2897 7.104 25.2897C4.77189 25.2897 2.88135 27.1802 2.88135 29.5123C2.88135 31.8445 4.77197 33.7352 7.104 33.7352H24.3363C26.6416 33.7352 28.5103 31.8663 28.5103 29.5612C28.5103 27.2561 26.6416 25.3873 24.3363 25.3873Z" fill="#D7EDF9"/>
<path d="M24.3363 25.3873C23.901 25.3873 23.4813 25.4542 23.0868 25.5779C23.089 25.5148 23.0917 25.4513 23.0917 25.3873C23.0917 22.2869 20.5781 19.7734 17.4777 19.7734C14.8042 19.7734 12.5688 21.6426 12.0032 24.1451C11.6679 24.0331 11.3093 23.9716 10.9362 23.9716C10.6035 23.9716 10.2825 24.0213 9.979 24.1112C11.762 28.8242 15.7514 32.4527 20.6875 33.7351H24.3364C26.6417 33.7351 28.5104 31.8662 28.5104 29.5611C28.5103 27.2561 26.6416 25.3873 24.3363 25.3873Z" fill="#E4F2F9"/>
<path d="M35.7772 17.5874C35.4106 17.5874 35.0548 17.6344 34.7154 17.7223C34.1075 16.8446 33.0938 16.2694 31.9453 16.2694C31.5721 16.2694 31.2137 16.3312 30.8783 16.443C30.3129 13.9405 28.0773 12.0712 25.4038 12.0712C24.0319 12.0712 22.7755 12.564 21.8005 13.3813C21.8005 13.3833 21.8003 13.3853 21.8003 13.3873C21.8003 19.4376 25.9031 24.529 31.4782 26.033H33.2759H35.7772C38.1094 26.033 40 24.1423 40 21.8102C40 19.478 38.1094 17.5874 35.7772 17.5874Z" fill="#9FDEF7"/>
</svg>
