<svg width="17" height="16" viewBox="0 0 24 24" fill="none" xmlns="http://www.w3.org/2000/svg">
  <path d="M20 9.54166C20 11.2418 18.6168 12.625 16.9167 12.625H7.125C6.77981 12.625 6.5 12.3452 6.5 12C6.5 11.6548 6.77981 11.375 7.125 11.375H16.9167C17.9276 11.375 18.75 10.5526 18.75 9.54166C18.75 8.53075 17.9276 7.70831 16.9167 7.70831C15.9058 7.70831 15.0833 8.53075 15.0833 9.54166C15.0833 9.88684 14.8035 10.1667 14.4583 10.1667C14.1131 10.1667 13.8333 9.88684 13.8333 9.54166C13.8333 7.8415 15.2165 6.45831 16.9167 6.45831C18.6168 6.45834 20 7.8415 20 9.54166ZM4.625 10.1667H9.9375C11.6377 10.1667 13.0208 8.78347 13.0208 7.08331C13.0208 5.38319 11.6377 4 9.9375 4C8.23734 4 6.85416 5.38319 6.85416 7.08334C6.85416 7.42853 7.13397 7.70834 7.47916 7.70834C7.82434 7.70834 8.10416 7.42853 8.10416 7.08334C8.10416 6.07244 8.92659 5.25 9.9375 5.25C10.9484 5.25 11.7708 6.07244 11.7708 7.08334C11.7708 8.09425 10.9484 8.91669 9.9375 8.91669H4.625C4.27981 8.91669 4 9.1965 4 9.54169C4 9.88688 4.27981 10.1667 4.625 10.1667ZM14.4583 13.8333H4.625C4.27981 13.8333 4 14.1132 4 14.4583C4 14.8035 4.27981 15.0833 4.625 15.0833H14.4583C15.4692 15.0833 16.2917 15.9058 16.2917 16.9167C16.2917 17.9276 15.4692 18.75 14.4583 18.75C13.4474 18.75 12.625 17.9276 12.625 16.9167C12.625 16.5715 12.3452 16.2917 12 16.2917C11.6548 16.2917 11.375 16.5715 11.375 16.9167C11.375 18.6168 12.7582 20 14.4583 20C16.1585 20 17.5417 18.6168 17.5417 16.9167C17.5417 15.2165 16.1585 13.8333 14.4583 13.8333Z" fill="#F9FAFB" />
  <path d="M20 9.54166C20 11.2418 18.6168 12.625 16.9167 12.625H7.125C6.77981 12.625 6.5 12.3452 6.5 12C6.5 11.6548 6.77981 11.375 7.125 11.375H16.9167C17.9276 11.375 18.75 10.5526 18.75 9.54166C18.75 8.53075 17.9276 7.70831 16.9167 7.70831C15.9058 7.70831 15.0833 8.53075 15.0833 9.54166C15.0833 9.88684 14.8035 10.1667 14.4583 10.1667C14.1131 10.1667 13.8333 9.88684 13.8333 9.54166C13.8333 7.8415 15.2165 6.45831 16.9167 6.45831C18.6168 6.45834 20 7.8415 20 9.54166ZM4.625 10.1667H9.9375C11.6377 10.1667 13.0208 8.78347 13.0208 7.08331C13.0208 5.38319 11.6377 4 9.9375 4C8.23734 4 6.85416 5.38319 6.85416 7.08334C6.85416 7.42853 7.13397 7.70834 7.47916 7.70834C7.82434 7.70834 8.10416 7.42853 8.10416 7.08334C8.10416 6.07244 8.92659 5.25 9.9375 5.25C10.9484 5.25 11.7708 6.07244 11.7708 7.08334C11.7708 8.09425 10.9484 8.91669 9.9375 8.91669H4.625C4.27981 8.91669 4 9.1965 4 9.54169C4 9.88688 4.27981 10.1667 4.625 10.1667ZM14.4583 13.8333H4.625C4.27981 13.8333 4 14.1132 4 14.4583C4 14.8035 4.27981 15.0833 4.625 15.0833H14.4583C15.4692 15.0833 16.2917 15.9058 16.2917 16.9167C16.2917 17.9276 15.4692 18.75 14.4583 18.75C13.4474 18.75 12.625 17.9276 12.625 16.9167C12.625 16.5715 12.3452 16.2917 12 16.2917C11.6548 16.2917 11.375 16.5715 11.375 16.9167C11.375 18.6168 12.7582 20 14.4583 20C16.1585 20 17.5417 18.6168 17.5417 16.9167C17.5417 15.2165 16.1585 13.8333 14.4583 13.8333Z" fill="url(#paint0_linear)" />
  <defs>
    <linearGradient id="paint0_linear" x1="4" y1="20" x2="20.1893" y2="4.19388" gradientUnits="userSpaceOnUse">
      <stop stop-color="#0E7EE4" />
      <stop offset="1" stop-color="#00A3FF" />
    </linearGradient>
  </defs>
</svg>
